Poppins-BoldItalic.ufo
<glyph name="quotedbl" format="2">
  <advance width="490"/>
  <unicode hex="0022"/>
  <outline>
    <contour>
      <point x="137" y="803" type="line"/>
      <point x="109" y="568" type="line"/>
      <point x="257" y="568" type="line"/>
      <point x="312" y="803" type="line"/>
    </contour>
    <contour>
      <point x="362" y="803" type="line"/>
      <point x="334" y="568" type="line"/>
      <point x="482" y="568" type="line"/>
      <point x="537" y="803" type="line"/>
    </contour>
  </outline>
</glyph>
<glyph name="quotesingle" format="2">
  <advance width="265"/>
  <unicode hex="0027"/>
  <outline>
    <contour>
      <point x="137" y="803" type="line"/>
      <point x="109" y="568" type="line"/>
      <point x="257" y="568" type="line"/>
      <point x="312" y="803" type="line"/>
    </contour>
  </outline>
</glyph>
<glyph name="parenleft" format="2">
  <advance width="463"/>
  <unicode hex="0028"/>
  <outline>
    <contour>
      <point x="171" y="-229" type="curve"/>
      <point x="385" y="-229" type="line"/>
      <point x="388" y="-209" type="line"/>
      <point x="308" y="-105"/>
      <point x="263" y="38"/>
      <point x="263" y="193" type="curve" smooth="yes"/>
      <point x="263" y="446"/>
      <point x="390" y="705"/>
      <point x="579" y="874" type="curve"/>
      <point x="583" y="895" type="line"/>
      <point x="369" y="895" type="line"/>
      <point x="169" y="732"/>
      <point x="48" y="431"/>
      <point x="48" y="164" type="curve" smooth="yes"/>
      <point x="48" y="1"/>
      <point x="92" y="-139"/>
    </contour>
  </outline>
</glyph>
<glyph name="asterisk" format="2">
  <advance width="561"/>
  <unicode hex="002A"/>
  <outline>
    <contour>
      <point x="387" y="625" type="line"/>
      <point x="437" y="744" type="line"/>
      <point x="295" y="744" type="line"/>
      <point x="305" y="625" type="line"/>
      <point x="228" y="708" type="line"/>
      <point x="140" y="587" type="line"/>
      <point x="243" y="555" type="line"/>
      <point x="126" y="519" type="line"/>
      <point x="178" y="390" type="line"/>
      <point x="278" y="477" type="line"/>
      <point x="230" y="360" type="line"/>
      <point x="369" y="360" type="line"/>
      <point x="361" y="477" type="line"/>
      <point x="433" y="391" type="line"/>
      <point x="529" y="518" type="line"/>
      <point x="424" y="552" type="line"/>
      <point x="541" y="588" type="line"/>
      <point x="495" y="709" type="line"/>
    </contour>
  </outline>
</glyph>
<glyph name="slash" format="2">
  <advance width="399"/>
  <unicode hex="002F"/>
  <outline>
    <contour>
      <point x="349" y="955" type="line"/>
      <point x="-121" y="-198" type="line"/>
      <point x="92" y="-198" type="line"/>
      <point x="561" y="955" type="line"/>
    </contour>
  </outline>
</glyph>
<glyph name="four" format="2">
  <advance width="704"/>
  <unicode hex="0034"/>
  <outline>
    <contour>
      <point x="335" y="110" type="line"/>
      <point x="315" y="0" type="line"/>
      <point x="539" y="0" type="line"/>
      <point x="559" y="110" type="line"/>
      <point x="631" y="110" type="line"/>
      <point x="665" y="302" type="line"/>
      <point x="593" y="302" type="line"/>
      <point x="666" y="720" type="line"/>
      <point x="427" y="720" type="line"/>
      <point x="54" y="295" type="line"/>
      <point x="22" y="110" type="line"/>
    </contour>
    <contour>
      <point x="387" y="302" type="line"/>
      <point x="279" y="302" type="line"/>
      <point x="416" y="467" type="line"/>
    </contour>
  </outline>
</glyph>
<glyph name="seven" format="2">
  <advance width="512"/>
  <unicode hex="0037"/>
  <outline>
    <contour>
      <point x="579" y="717" type="line"/>
      <point x="97" y="717" type="line"/>
      <point x="63" y="527" type="line"/>
      <point x="319" y="527" type="line"/>
      <point x="-20" y="0" type="line"/>
      <point x="208" y="0" type="line"/>
      <point x="550" y="554" type="line"/>
    </contour>
  </outline>
</glyph>
<glyph name="eight" format="2">
  <advance width="657"/>
  <unicode hex="0038"/>
  <outline>
    <contour>
      <point x="124" y="431"/>
      <point x="170" y="402" type="curve"/>
      <point x="96" y="363"/>
      <point x="52" y="305"/>
      <point x="38" y="225" type="curve" smooth="yes"/>
      <point x="10" y="68"/>
      <point x="128" y="-11"/>
      <point x="276" y="-11" type="curve"/>
      <point x="424" y="-11"/>
      <point x="570" y="68"/>
      <point x="598" y="225" type="curve" smooth="yes"/>
      <point x="612" y="305"/>
      <point x="588" y="363"/>
      <point x="528" y="402" type="curve"/>
      <point x="584" y="431"/>
      <point x="627" y="480"/>
      <point x="640" y="553" type="curve"/>
      <point x="657" y="648"/>
      <point x="594" y="756"/>
      <point x="412" y="756" type="curve"/>
      <point x="230" y="756"/>
      <point x="129" y="648"/>
      <point x="112" y="553" type="curve"/>
      <point x="99" y="480"/>
    </contour>
    <contour>
      <point x="354" y="576"/>
      <point x="380" y="576" type="curve"/>
      <point x="406" y="576"/>
      <point x="422" y="553"/>
      <point x="415" y="515" type="curve"/>
      <point x="408" y="474"/>
      <point x="384" y="456"/>
      <point x="359" y="456" type="curve"/>
      <point x="334" y="456"/>
      <point x="316" y="474"/>
      <point x="323" y="515" type="curve"/>
      <point x="330" y="553"/>
    </contour>
    <contour>
      <point x="292" y="307"/>
      <point x="332" y="307" type="curve"/>
      <point x="372" y="307"/>
      <point x="392" y="278"/>
      <point x="385" y="238" type="curve"/>
      <point x="379" y="200"/>
      <point x="350" y="170"/>
      <point x="308" y="170" type="curve"/>
      <point x="266" y="170"/>
      <point x="249" y="200"/>
      <point x="255" y="238" type="curve"/>
      <point x="262" y="278"/>
    </contour>
  </outline>
</glyph>
<glyph name="greater" format="2">
  <advance width="497"/>
  <unicode hex="003E"/>
  <outline>
    <contour>
      <point x="210" y="340" type="line"/>
      <point x="-8" y="125" type="line"/>
      <point x="269" y="125" type="line"/>
      <point x="487" y="340" type="line"/>
      <point x="345" y="556" type="line"/>
      <point x="68" y="556" type="line"/>
    </contour>
  </outline>
</glyph>
<glyph name="at" format="2">
  <advance width="1114"/>
  <unicode hex="0040"/>
  <outline>
    <contour>
      <point x="605" y="181" type="line" smooth="yes"/>
      <point x="582" y="68"/>
      <point x="644" y="-4"/>
      <point x="762" y="-4" type="curve" smooth="yes"/>
      <point x="942" y="-4"/>
      <point x="1037" y="138"/>
      <point x="1037" y="315" type="curve" smooth="yes"/>
      <point x="1037" y="535"/>
      <point x="875" y="687"/>
      <point x="629" y="687" type="curve" smooth="yes"/>
      <point x="308" y="687"/>
      <point x="60" y="459"/>
      <point x="60" y="136" type="curve" smooth="yes"/>
      <point x="60" y="-95"/>
      <point x="217" y="-245"/>
      <point x="457" y="-245" type="curve" smooth="yes"/>
      <point x="543" y="-245"/>
      <point x="623" y="-229"/>
      <point x="691" y="-199" type="curve"/>
      <point x="653" y="-60" type="line"/>
      <point x="604" y="-81"/>
      <point x="540" y="-96"/>
      <point x="467" y="-96" type="curve" smooth="yes"/>
      <point x="312" y="-96"/>
      <point x="220" y="2"/>
      <point x="220" y="152" type="curve" smooth="yes"/>
      <point x="220" y="365"/>
      <point x="389" y="541"/>
      <point x="610" y="541" type="curve" smooth="yes"/>
      <point x="772" y="541"/>
      <point x="874" y="447"/>
      <point x="874" y="309" type="curve" smooth="yes"/>
      <point x="874" y="218"/>
      <point x="850" y="138"/>
      <point x="793" y="138" type="curve" smooth="yes"/>
      <point x="763" y="138"/>
      <point x="757" y="163"/>
      <point x="764" y="201" type="curve" smooth="yes"/>
      <point x="803" y="422" type="line"/>
      <point x="631" y="422" type="line"/>
      <point x="613" y="319" type="line"/>
      <point x="626" y="338" type="line"/>
      <point x="622" y="390"/>
      <point x="583" y="427"/>
      <point x="515" y="427" type="curve" smooth="yes"/>
      <point x="386" y="427"/>
      <point x="297" y="295"/>
      <point x="297" y="153" type="curve" smooth="yes"/>
      <point x="297" y="51"/>
      <point x="356" y="-7"/>
      <point x="452" y="-7" type="curve" smooth="yes"/>
      <point x="538" y="-7"/>
      <point x="604" y="34"/>
      <point x="632" y="112" type="curve"/>
      <point x="611" y="211" type="line"/>
    </contour>
    <contour>
      <point x="548" y="274" type="curve" smooth="yes"/>
      <point x="573" y="274"/>
      <point x="591" y="255"/>
      <point x="591" y="224" type="curve" smooth="yes"/>
      <point x="591" y="178"/>
      <point x="557" y="147"/>
      <point x="525" y="147" type="curve" smooth="yes"/>
      <point x="499" y="147"/>
      <point x="482" y="165"/>
      <point x="482" y="195" type="curve" smooth="yes"/>
      <point x="482" y="242"/>
      <point x="514" y="274"/>
    </contour>
  </outline>
</glyph>
<glyph name="F" format="2">
  <advance width="575"/>
  <unicode hex="0046"/>
  <outline>
    <contour>
      <point x="125" y="708" type="line"/>
      <point x="0" y="0" type="line"/>
      <point x="222" y="0" type="line"/>
      <point x="269" y="267" type="line"/>
      <point x="469" y="267" type="line"/>
      <point x="499" y="434" type="line"/>
      <point x="299" y="434" type="line"/>
      <point x="316" y="532" type="line"/>
      <point x="594" y="532" type="line"/>
      <point x="625" y="708" type="line"/>
    </contour>
  </outline>
</glyph>
<glyph name="G" format="2">
  <advance width="752"/>
  <unicode hex="0047"/>
  <anchor x="327" y="0" name="bottom"/>
  <anchor x="453" y="711" name="top"/>
  <outline>
    <contour>
      <point x="750" y="466" type="line"/>
      <point x="756" y="617"/>
      <point x="652" y="715"/>
      <point x="464" y="715" type="curve"/>
      <point x="242" y="715"/>
      <point x="80" y="566"/>
      <point x="43" y="355" type="curve"/>
      <point x="6" y="144"/>
      <point x="116" y="-5"/>
      <point x="339" y="-5" type="curve"/>
      <point x="522" y="-5"/>
      <point x="641" y="102"/>
      <point x="705" y="187" type="curve"/>
      <point x="744" y="409" type="line"/>
      <point x="383" y="409" type="line"/>
      <point x="356" y="252" type="line"/>
      <point x="533" y="252" type="line"/>
      <point x="492" y="208"/>
      <point x="448" y="190"/>
      <point x="398" y="190" type="curve"/>
      <point x="289" y="190"/>
      <point x="248" y="245"/>
      <point x="268" y="355" type="curve"/>
      <point x="284" y="449"/>
      <point x="343" y="510"/>
      <point x="429" y="510" type="curve"/>
      <point x="475" y="510"/>
      <point x="504" y="493"/>
      <point x="516" y="466" type="curve"/>
    </contour>
  </outline>
</glyph>
<glyph name="J" format="2">
  <advance width="590"/>
  <unicode hex="004A"/>
  <outline>
    <contour>
      <point x="398" y="708" type="line"/>
      <point x="318" y="251" type="line" smooth="yes"/>
      <point x="309" y="205"/>
      <point x="289" y="193"/>
      <point x="265" y="193" type="curve" smooth="yes"/>
      <point x="236" y="193"/>
      <point x="216" y="209"/>
      <point x="227" y="271" type="curve"/>
      <point x="8" y="271" type="line"/>
      <point x="-25" y="85"/>
      <point x="74" y="-7"/>
      <point x="240" y="-7" type="curve" smooth="yes"/>
      <point x="396" y="-7"/>
      <point x="508" y="78"/>
      <point x="539" y="251" type="curve" smooth="yes"/>
      <point x="619" y="708" type="line"/>
    </contour>
  </outline>
</glyph>
<glyph name="L" format="2">
  <advance width="506"/>
  <unicode hex="004C"/>
  <anchor x="215" y="0" name="bottom"/>
  <anchor x="217" y="10" name="commaaccent"/>
  <anchor x="307" y="711" name="top"/>
  <anchor x="542" y="711" name="topright"/>
  <outline>
    <contour>
      <point x="347" y="708" type="line"/>
      <point x="125" y="708" type="line"/>
      <point x="0" y="0" type="line"/>
      <point x="436" y="0" type="line"/>
      <point x="466" y="168" type="line"/>
      <point x="252" y="168" type="line"/>
    </contour>
  </outline>
</glyph>
<glyph name="N" format="2">
  <advance width="779"/>
  <unicode hex="004E"/>
  <anchor x="339" y="0" name="bottom"/>
  <anchor x="465" y="711" name="top"/>
  <outline>
    <contour>
      <point x="804" y="708" type="line"/>
      <point x="582" y="708" type="line"/>
      <point x="518" y="346" type="line"/>
      <point x="347" y="708" type="line"/>
      <point x="125" y="708" type="line"/>
      <point x="0" y="0" type="line"/>
      <point x="222" y="0" type="line"/>
      <point x="285" y="356" type="line"/>
      <point x="457" y="0" type="line"/>
      <point x="679" y="0" type="line"/>
    </contour>
  </outline>
</glyph>
<glyph name="O" format="2">
  <advance width="788"/>
  <unicode hex="004F"/>
  <anchor x="471" y="711" name="top"/>
  <outline>
    <contour>
      <point x="347" y="-7" type="curve" smooth="yes"/>
      <point x="599" y="-7"/>
      <point x="767" y="172"/>
      <point x="767" y="427" type="curve" smooth="yes"/>
      <point x="767" y="603"/>
      <point x="650" y="720"/>
      <point x="464" y="720" type="curve" smooth="yes"/>
      <point x="215" y="720"/>
      <point x="47" y="545"/>
      <point x="47" y="289" type="curve" smooth="yes"/>
      <point x="47" y="113"/>
      <point x="165" y="-7"/>
    </contour>
    <contour>
      <point x="381" y="200" type="curve" smooth="yes"/>
      <point x="304" y="200"/>
      <point x="265" y="245"/>
      <point x="265" y="317" type="curve" smooth="yes"/>
      <point x="265" y="422"/>
      <point x="328" y="515"/>
      <point x="436" y="515" type="curve" smooth="yes"/>
      <point x="511" y="515"/>
      <point x="550" y="471"/>
      <point x="550" y="399" type="curve" smooth="yes"/>
      <point x="550" y="294"/>
      <point x="489" y="200"/>
    </contour>
  </outline>
</glyph>
<glyph name="S" format="2">
  <advance width="642"/>
  <unicode hex="0053"/>
  <anchor x="280" y="0" name="bottom"/>
  <anchor x="406" y="711" name="top"/>
  <outline>
    <contour>
      <point x="304" y="-7" type="curve" smooth="yes"/>
      <point x="486" y="-7"/>
      <point x="592" y="92"/>
      <point x="592" y="221" type="curve" smooth="yes"/>
      <point x="592" y="424"/>
      <point x="310" y="426"/>
      <point x="310" y="511" type="curve" smooth="yes"/>
      <point x="310" y="533"/>
      <point x="327" y="547"/>
      <point x="349" y="547" type="curve" smooth="yes"/>
      <point x="378" y="547"/>
      <point x="395" y="528"/>
      <point x="388" y="491" type="curve"/>
      <point x="627" y="491" type="line"/>
      <point x="645" y="635"/>
      <point x="526" y="720"/>
      <point x="362" y="720" type="curve" smooth="yes"/>
      <point x="191" y="720"/>
      <point x="67" y="634"/>
      <point x="67" y="480" type="curve" smooth="yes"/>
      <point x="67" y="276"/>
      <point x="350" y="291"/>
      <point x="350" y="201" type="curve" smooth="yes"/>
      <point x="350" y="178"/>
      <point x="331" y="166"/>
      <point x="308" y="166" type="curve" smooth="yes"/>
      <point x="269" y="166"/>
      <point x="253" y="186"/>
      <point x="257" y="227" type="curve"/>
      <point x="21" y="227" type="line"/>
      <point x="3" y="68"/>
      <point x="126" y="-7"/>
    </contour>
  </outline>
</glyph>
<glyph name="X" format="2">
  <advance width="764"/>
  <unicode hex="0058"/>
  <outline>
    <contour>
      <point x="75" y="708" type="line"/>
      <point x="451" y="0" type="line"/>
      <point x="714" y="0" type="line"/>
      <point x="338" y="708" type="line"/>
    </contour>
    <contour>
      <point x="399" y="243" type="line"/>
      <point x="299" y="416" type="line"/>
      <point x="-40" y="0" type="line"/>
      <point x="213" y="0" type="line"/>
    </contour>
    <contour>
      <point x="382" y="466" type="line"/>
      <point x="482" y="293" type="line"/>
      <point x="820" y="708" type="line"/>
      <point x="567" y="708" type="line"/>
    </contour>
  </outline>
</glyph>
<glyph name="bracketright" format="2">
  <advance width="533"/>
  <unicode hex="005D"/>
  <outline>
    <contour>
      <point x="546" y="895" type="line"/>
      <point x="164" y="895" type="line"/>
      <point x="133" y="717" type="line"/>
      <point x="307" y="717" type="line"/>
      <point x="171" y="-51" type="line"/>
      <point x="-3" y="-51" type="line"/>
      <point x="-34" y="-229" type="line"/>
      <point x="348" y="-229" type="line"/>
    </contour>
  </outline>
</glyph>
<glyph name="c" format="2">
  <advance width="609"/>
  <unicode hex="0063"/>
  <anchor x="249" y="0" name="bottom"/>
  <anchor x="349" y="564" name="top"/>
  <outline>
    <contour>
      <point x="52" y="462"/>
      <point x="20" y="282" type="curve"/>
      <point x="-12" y="102"/>
      <point x="88" y="-7"/>
      <point x="257" y="-7" type="curve" smooth="yes"/>
      <point x="402" y="-7"/>
      <point x="526" y="79"/>
      <point x="579" y="227" type="curve"/>
      <point x="344" y="227" type="line"/>
      <point x="332" y="200"/>
      <point x="314" y="183"/>
      <point x="286" y="183" type="curve" smooth="yes"/>
      <point x="252" y="183"/>
      <point x="233" y="214"/>
      <point x="245" y="282" type="curve"/>
      <point x="257" y="350"/>
      <point x="286" y="381"/>
      <point x="320" y="381" type="curve" smooth="yes"/>
      <point x="348" y="381"/>
      <point x="360" y="364"/>
      <point x="364" y="337" type="curve"/>
      <point x="599" y="337" type="line"/>
      <point x="598" y="485"/>
      <point x="504" y="571"/>
      <point x="359" y="571" type="curve" smooth="yes"/>
      <point x="190" y="571"/>
    </contour>
  </outline>
</glyph>
<glyph name="l" format="2">
  <advance width="322"/>
  <unicode hex="006C"/>
  <anchor x="112" y="0" name="bottom"/>
  <anchor x="114" y="10" name="commaaccent"/>
  <anchor x="243" y="740" name="top"/>
  <anchor x="377" y="564" name="topright"/>
  <outline>
    <contour>
      <point x="131" y="740" type="line"/>
      <point x="0" y="0" type="line"/>
      <point x="222" y="0" type="line"/>
      <point x="353" y="740" type="line"/>
    </contour>
  </outline>
</glyph>
<glyph name="q" format="2">
  <advance width="680"/>
  <unicode hex="0071"/>
  <outline>
    <contour>
      <point x="49" y="448"/>
      <point x="19" y="278" type="curve" smooth="yes"/>
      <point x="-11" y="108"/>
      <point x="85" y="-6"/>
      <point x="218" y="-6" type="curve" smooth="yes"/>
      <point x="276" y="-6"/>
      <point x="322" y="16"/>
      <point x="370" y="62" type="curve"/>
      <point x="312" y="-270" type="line"/>
      <point x="533" y="-270" type="line"/>
      <point x="680" y="564" type="line"/>
      <point x="459" y="564" type="line"/>
      <point x="450" y="514" type="line"/>
      <point x="420" y="554"/>
      <point x="377" y="568"/>
      <point x="319" y="568" type="curve" smooth="yes"/>
      <point x="186" y="568"/>
    </contour>
    <contour>
      <point x="422" y="354"/>
      <point x="409" y="282" type="curve" smooth="yes"/>
      <point x="396" y="210"/>
      <point x="343" y="187"/>
      <point x="310" y="187" type="curve" smooth="yes"/>
      <point x="277" y="187"/>
      <point x="232" y="206"/>
      <point x="244" y="278" type="curve" smooth="yes"/>
      <point x="257" y="350"/>
      <point x="311" y="376"/>
      <point x="344" y="376" type="curve" smooth="yes"/>
      <point x="377" y="376"/>
    </contour>
  </outline>
</glyph>
<glyph name="x" format="2">
  <advance width="668"/>
  <unicode hex="0078"/>
  <outline>
    <contour>
      <point x="50" y="564" type="line"/>
      <point x="370" y="0" type="line"/>
      <point x="618" y="0" type="line"/>
      <point x="298" y="564" type="line"/>
    </contour>
    <contour>
      <point x="361" y="213" type="line"/>
      <point x="265" y="375" type="line"/>
      <point x="-40" y="0" type="line"/>
      <point x="204" y="0" type="line"/>
    </contour>
    <contour>
      <point x="322" y="371" type="line"/>
      <point x="407" y="209" type="line"/>
      <point x="709" y="564" type="line"/>
      <point x="465" y="564" type="line"/>
    </contour>
  </outline>
</glyph>
<glyph name="braceleft" format="2">
  <advance width="484"/>
  <unicode hex="007B"/>
  <outline>
    <contour>
      <point x="53" y="242" type="line"/>
      <point x="115" y="242"/>
      <point x="135" y="222"/>
      <point x="135" y="191" type="curve" smooth="yes"/>
      <point x="135" y="146"/>
      <point x="69" y="14"/>
      <point x="69" y="-70" type="curve" smooth="yes"/>
      <point x="69" y="-175"/>
      <point x="144" y="-231"/>
      <point x="264" y="-231" type="curve" smooth="yes"/>
      <point x="340" y="-231" type="line"/>
      <point x="371" y="-54" type="line"/>
      <point x="337" y="-54" type="line" smooth="yes"/>
      <point x="300" y="-54"/>
      <point x="286" y="-39"/>
      <point x="286" y="-15" type="curve" smooth="yes"/>
      <point x="286" y="28"/>
      <point x="342" y="163"/>
      <point x="342" y="232" type="curve" smooth="yes"/>
      <point x="342" y="281"/>
      <point x="314" y="319"/>
      <point x="256" y="331" type="curve"/>
      <point x="256" y="333" type="line"/>
      <point x="332" y="347"/>
      <point x="376" y="401"/>
      <point x="389" y="477" type="curve" smooth="yes"/>
      <point x="399" y="533"/>
      <point x="397" y="623"/>
      <point x="404" y="664" type="curve" smooth="yes"/>
      <point x="410" y="697"/>
      <point x="429" y="718"/>
      <point x="473" y="718" type="curve" smooth="yes"/>
      <point x="507" y="718" type="line"/>
      <point x="538" y="895" type="line"/>
      <point x="462" y="895" type="line" smooth="yes"/>
      <point x="325" y="895"/>
      <point x="222" y="822"/>
      <point x="199" y="688" type="curve" smooth="yes"/>
      <point x="188" y="627"/>
      <point x="198" y="537"/>
      <point x="188" y="486" type="curve" smooth="yes"/>
      <point x="181" y="444"/>
      <point x="155" y="423"/>
      <point x="85" y="423" type="curve"/>
    </contour>
  </outline>
</glyph>
<glyph name="bar" format="2">
  <advance width="262"/>
  <unicode hex="007C"/>
  <outline>
    <contour>
      <point x="338" y="828" type="line"/>
      <point x="116" y="828" type="line"/>
      <point x="-55" y="-144" type="line"/>
      <point x="167" y="-144" type="line"/>
    </contour>
  </outline>
</glyph>
<glyph name="yen" format="2">
  <advance width="730"/>
  <unicode hex="00A5"/>
  <outline>
    <contour>
      <point x="508" y="452" type="line"/>
      <point x="496" y="308" type="line"/>
      <point x="680" y="308" type="line"/>
      <point x="705" y="452" type="line"/>
    </contour>
    <contour>
      <point x="51" y="272" type="line"/>
      <point x="26" y="128" type="line"/>
      <point x="648" y="128" type="line"/>
      <point x="673" y="272" type="line"/>
    </contour>
    <contour>
      <point x="75" y="708" type="line"/>
      <point x="242" y="215" type="line"/>
      <point x="204" y="0" type="line"/>
      <point x="426" y="0" type="line"/>
      <point x="464" y="215" type="line"/>
      <point x="805" y="708" type="line"/>
      <point x="555" y="708" type="line"/>
      <point x="349" y="348" type="line"/>
      <point x="409" y="348" type="line"/>
      <point x="329" y="708" type="line"/>
    </contour>
    <contour>
      <point x="83" y="452" type="line"/>
      <point x="58" y="308" type="line"/>
      <point x="304" y="308" type="line"/>
      <point x="341" y="452" type="line"/>
    </contour>
  </outline>
</glyph>
<glyph name="brokenbar" format="2">
  <advance width="432"/>
  <unicode hex="00A6"/>
  <outline>
    <contour>
      <point x="328" y="287" type="line"/>
      <point x="106" y="287" type="line"/>
      <point x="30" y="-144" type="line"/>
      <point x="252" y="-144" type="line"/>
    </contour>
    <contour>
      <point x="125" y="398" type="line"/>
      <point x="347" y="398" type="line"/>
      <point x="423" y="828" type="line"/>
      <point x="201" y="828" type="line"/>
    </contour>
  </outline>
</glyph>
<glyph name="ordfeminine" format="2">
  <advance width="481"/>
  <unicode hex="00AA"/>
  <outline>
    <contour>
      <point x="85" y="648"/>
      <point x="64" y="530" type="curve" smooth="yes"/>
      <point x="43" y="412"/>
      <point x="105" y="350"/>
      <point x="198" y="350" type="curve" smooth="yes"/>
      <point x="253" y="350"/>
      <point x="287" y="368"/>
      <point x="319" y="404" type="curve"/>
      <point x="310" y="355" type="line"/>
      <point x="474" y="355" type="line"/>
      <point x="536" y="708" type="line"/>
      <point x="372" y="708" type="line"/>
      <point x="363" y="658" type="line"/>
      <point x="345" y="694"/>
      <point x="315" y="712"/>
      <point x="260" y="712" type="curve" smooth="yes"/>
      <point x="168" y="712"/>
    </contour>
    <contour>
      <point x="347" y="565"/>
      <point x="341" y="532" type="curve" smooth="yes"/>
      <point x="335" y="498"/>
      <point x="307" y="481"/>
      <point x="278" y="481" type="curve" smooth="yes"/>
      <point x="249" y="481"/>
      <point x="227" y="495"/>
      <point x="233" y="529" type="curve" smooth="yes"/>
      <point x="239" y="563"/>
      <point x="267" y="582"/>
      <point x="296" y="582" type="curve" smooth="yes"/>
      <point x="325" y="582"/>
    </contour>
  </outline>
</glyph>
<glyph name="guillemotleft" format="2">
  <advance width="618"/>
  <unicode hex="00AB"/>
  <outline>
    <contour>
      <point x="294" y="120" type="line"/>
      <point x="246" y="295" type="line"/>
      <point x="356" y="470" type="line"/>
      <point x="155" y="470" type="line"/>
      <point x="47" y="295" type="line"/>
      <point x="93" y="120" type="line"/>
    </contour>
    <contour>
      <point x="549" y="120" type="line"/>
      <point x="501" y="295" type="line"/>
      <point x="611" y="470" type="line"/>
      <point x="410" y="470" type="line"/>
      <point x="302" y="295" type="line"/>
      <point x="348" y="120" type="line"/>
    </contour>
  </outline>
</glyph>
<glyph name="onequarter" format="2">
  <advance width="879"/>
  <unicode hex="00BC"/>
  <outline>
    <contour>
      <point x="573" y="708" type="line"/>
      <point x="60" y="0" type="line"/>
      <point x="277" y="0" type="line"/>
      <point x="789" y="708" type="line"/>
    </contour>
    <contour>
      <point x="833" y="146" type="line"/>
      <point x="798" y="146" type="line"/>
      <point x="834" y="351" type="line"/>
      <point x="607" y="351" type="line"/>
      <point x="429" y="142" type="line"/>
      <point x="415" y="58" type="line"/>
      <point x="618" y="58" type="line"/>
      <point x="607" y="0" type="line"/>
      <point x="772" y="0" type="line"/>
      <point x="783" y="58" type="line"/>
      <point x="818" y="58" type="line"/>
    </contour>
    <contour>
      <point x="643" y="151" type="line"/>
      <point x="584" y="151" type="line"/>
      <point x="660" y="250" type="line"/>
    </contour>
    <component base="onesuperior" xOffset="25"/>
  </outline>
</glyph>
<glyph name="onehalf" format="2">
  <advance width="928"/>
  <unicode hex="00BD"/>
  <outline>
    <contour>
      <point x="584" y="711" type="line"/>
      <point x="60" y="0" type="line"/>
      <point x="277" y="0" type="line"/>
      <point x="800" y="711" type="line"/>
    </contour>
    <component base="onesuperior" xOffset="25"/>
    <component base="twosuperior" xOffset="454" yOffset="-353"/>
  </outline>
</glyph>
<glyph name="threequarters" format="2">
  <advance width="1024"/>
  <unicode hex="00BE"/>
  <outline>
    <contour>
      <point x="706" y="711" type="line"/>
      <point x="211" y="0" type="line"/>
      <point x="427" y="0" type="line"/>
      <point x="923" y="711" type="line"/>
    </contour>
    <contour>
      <point x="985" y="146" type="line"/>
      <point x="950" y="146" type="line"/>
      <point x="986" y="351" type="line"/>
      <point x="739" y="351" type="line"/>
      <point x="581" y="142" type="line"/>
      <point x="567" y="58" type="line"/>
      <point x="771" y="58" type="line"/>
      <point x="760" y="0" type="line"/>
      <point x="924" y="0" type="line"/>
      <point x="935" y="58" type="line"/>
      <point x="970" y="58" type="line"/>
    </contour>
    <contour>
      <point x="795" y="146" type="line"/>
      <point x="736" y="146" type="line"/>
      <point x="817" y="270" type="line"/>
    </contour>
    <component base="threesuperior" xOffset="53"/>
  </outline>
</glyph>
<glyph name="AE" format="2">
  <advance width="986"/>
  <unicode hex="00C6"/>
  <outline>
    <contour>
      <point x="245" y="264" type="line"/>
      <point x="122" y="97" type="line"/>
      <point x="565" y="97" type="line"/>
      <point x="595" y="264" type="line"/>
    </contour>
    <contour>
      <point x="756" y="532" type="line"/>
      <point x="996" y="532" type="line"/>
      <point x="1027" y="708" type="line"/>
      <point x="414" y="708" type="line"/>
      <point x="-50" y="0" type="line"/>
      <point x="191" y="0" type="line"/>
      <point x="535" y="537" type="line"/>
      <point x="440" y="0" type="line"/>
      <point x="902" y="0" type="line"/>
      <point x="933" y="177" type="line"/>
      <point x="693" y="177" type="line"/>
      <point x="712" y="280" type="line"/>
      <point x="922" y="280" type="line"/>
      <point x="951" y="447" type="line"/>
      <point x="741" y="447" type="line"/>
    </contour>
  </outline>
</glyph>
<glyph name="eth" format="2">
  <advance width="643"/>
  <unicode hex="00F0"/>
  <outline>
    <contour>
      <point x="609" y="735" type="line"/>
      <point x="331" y="660" type="line"/>
      <point x="318" y="588" type="line"/>
      <point x="596" y="663" type="line"/>
    </contour>
    <contour>
      <point x="351" y="568" type="curve" smooth="yes"/>
      <point x="194" y="568"/>
      <point x="52" y="462"/>
      <point x="20" y="284" type="curve" smooth="yes"/>
      <point x="-11" y="105"/>
      <point x="113" y="-6"/>
      <point x="277" y="-6" type="curve" smooth="yes"/>
      <point x="437" y="-6"/>
      <point x="592" y="107"/>
      <point x="629" y="317" type="curve" smooth="yes"/>
      <point x="657" y="476"/>
      <point x="603" y="636"/>
      <point x="521" y="740" type="curve"/>
      <point x="328" y="740" type="line"/>
      <point x="364" y="702"/>
      <point x="408" y="627"/>
      <point x="429" y="560" type="curve"/>
      <point x="401" y="565"/>
      <point x="374" y="568"/>
    </contour>
    <contour>
      <point x="311" y="186" type="curve" smooth="yes"/>
      <point x="278" y="186"/>
      <point x="233" y="210"/>
      <point x="246" y="282" type="curve" smooth="yes"/>
      <point x="259" y="354"/>
      <point x="306" y="377"/>
      <point x="341" y="377" type="curve" smooth="yes"/>
      <point x="372" y="377"/>
      <point x="410" y="354"/>
      <point x="397" y="282" type="curve" smooth="yes"/>
      <point x="384" y="210"/>
      <point x="345" y="186"/>
    </contour>
  </outline>
</glyph>
<glyph name="oslash" format="2">
  <advance width="621"/>
  <unicode hex="00F8"/>
  <outline>
    <contour>
      <point x="568" y="564" type="line"/>
      <point x="-50" y="0" type="line"/>
      <point x="53" y="0" type="line"/>
      <point x="671" y="564" type="line"/>
    </contour>
    <component base="o" xOffset="-8"/>
  </outline>
</glyph>
<glyph name="thorn" format="2">
  <advance width="680"/>
  <unicode hex="00FE"/>
  <outline>
    <contour>
      <point x="357" y="554"/>
      <point x="313" y="514" type="curve"/>
      <point x="353" y="740" type="line"/>
      <point x="131" y="740" type="line"/>
      <point x="-47" y="-270" type="line"/>
      <point x="175" y="-270" type="line"/>
      <point x="233" y="62" type="line"/>
      <point x="263" y="16"/>
      <point x="301" y="-6"/>
      <point x="360" y="-6" type="curve" smooth="yes"/>
      <point x="494" y="-6"/>
      <point x="629" y="108"/>
      <point x="659" y="278" type="curve" smooth="yes"/>
      <point x="689" y="448"/>
      <point x="595" y="568"/>
      <point x="461" y="568" type="curve" smooth="yes"/>
      <point x="402" y="568"/>
    </contour>
    <contour>
      <point x="447" y="350"/>
      <point x="434" y="278" type="curve" smooth="yes"/>
      <point x="422" y="206"/>
      <point x="370" y="187"/>
      <point x="337" y="187" type="curve" smooth="yes"/>
      <point x="303" y="187"/>
      <point x="259" y="210"/>
      <point x="272" y="282" type="curve" smooth="yes"/>
      <point x="285" y="354"/>
      <point x="337" y="376"/>
      <point x="371" y="376" type="curve" smooth="yes"/>
      <point x="404" y="376"/>
    </contour>
  </outline>
</glyph>
<glyph name="dcroat" format="2">
  <advance width="704"/>
  <unicode hex="0111"/>
  <outline>
    <contour>
      <point x="421" y="688" type="line"/>
      <point x="404" y="592" type="line"/>
      <point x="749" y="592" type="line"/>
      <point x="766" y="688" type="line"/>
    </contour>
    <component base="d"/>
  </outline>
</glyph>
<glyph name="Kcommaaccent" format="2">
  <advance width="798"/>
  <unicode hex="0136"/>
  <anchor x="349" y="0" name="_bottom"/>
  <outline>
    <contour>
      <point x="419" y="-35" type="curve"/>
      <point x="263" y="-35" type="line"/>
      <point x="237" y="-182" type="line"/>
      <point x="309" y="-182" type="line"/>
      <point x="307" y="-193" type="line" smooth="yes"/>
      <point x="298" y="-245"/>
      <point x="273" y="-268"/>
      <point x="239" y="-268" type="curve"/>
      <point x="225" y="-346" type="line"/>
      <point x="338" y="-346"/>
      <point x="403" y="-266"/>
      <point x="420" y="-170" type="curve" smooth="yes"/>
      <point x="428" y="-128"/>
      <point x="429" y="-82"/>
    </contour>
    <component base="K"/>
  </outline>
</glyph>
<glyph name="kcommaaccent" format="2">
  <advance width="676"/>
  <unicode hex="0137"/>
  <outline>
    <contour>
      <point x="362" y="-35" type="curve"/>
      <point x="206" y="-35" type="line"/>
      <point x="180" y="-182" type="line"/>
      <point x="252" y="-182" type="line"/>
      <point x="250" y="-193" type="line" smooth="yes"/>
      <point x="241" y="-245"/>
      <point x="216" y="-268"/>
      <point x="182" y="-268" type="curve"/>
      <point x="168" y="-346" type="line"/>
      <point x="281" y="-346"/>
      <point x="346" y="-266"/>
      <point x="363" y="-170" type="curve" smooth="yes"/>
      <point x="371" y="-128"/>
      <point x="372" y="-82"/>
    </contour>
    <component base="k"/>
  </outline>
</glyph>
<glyph name="ldot" format="2">
  <advance width="435"/>
  <unicode hex="0140"/>
  <outline>
    <contour>
      <point x="0" y="0" type="line"/>
      <point x="222" y="0" type="line"/>
      <point x="353" y="740" type="line"/>
      <point x="131" y="740" type="line"/>
    </contour>
    <contour>
      <point x="381" y="287" type="curve" smooth="yes"/>
      <point x="431" y="287"/>
      <point x="474" y="324"/>
      <point x="483" y="372" type="curve" smooth="yes"/>
      <point x="492" y="422"/>
      <point x="461" y="459"/>
      <point x="411" y="459" type="curve" smooth="yes"/>
      <point x="363" y="459"/>
      <point x="319" y="422"/>
      <point x="311" y="372" type="curve" smooth="yes"/>
      <point x="303" y="324"/>
      <point x="333" y="287"/>
    </contour>
  </outline>
</glyph>
<glyph name="lslash" format="2">
  <advance width="372"/>
  <unicode hex="0142"/>
  <outline>
    <contour>
      <point x="37" y="437" type="line"/>
      <point x="-1" y="221" type="line"/>
      <point x="368" y="318" type="line"/>
      <point x="406" y="534" type="line"/>
    </contour>
    <contour>
      <point x="156" y="740" type="line"/>
      <point x="25" y="0" type="line"/>
      <point x="247" y="0" type="line"/>
      <point x="378" y="740" type="line"/>
    </contour>
  </outline>
</glyph>
<glyph name="OE" format="2">
  <advance width="1056"/>
  <unicode hex="0152"/>
  <outline>
    <contour>
      <point x="816" y="532" type="line"/>
      <point x="1066" y="532" type="line"/>
      <point x="1097" y="708" type="line"/>
      <point x="625" y="708" type="line"/>
      <point x="619" y="671" type="line"/>
      <point x="580" y="704"/>
      <point x="521" y="720"/>
      <point x="462" y="720" type="curve" smooth="yes"/>
      <point x="260" y="720"/>
      <point x="88" y="569"/>
      <point x="50" y="354" type="curve"/>
      <point x="12" y="139"/>
      <point x="131" y="-12"/>
      <point x="333" y="-12" type="curve" smooth="yes"/>
      <point x="393" y="-9"/>
      <point x="457" y="4"/>
      <point x="507" y="37" type="curve"/>
      <point x="500" y="0" type="line"/>
      <point x="972" y="0" type="line"/>
      <point x="1003" y="177" type="line"/>
      <point x="753" y="177" type="line"/>
      <point x="771" y="277" type="line"/>
      <point x="991" y="277" type="line"/>
      <point x="1021" y="444" type="line"/>
      <point x="801" y="444" type="line"/>
    </contour>
    <contour>
      <point x="276" y="354" type="curve"/>
      <point x="293" y="452"/>
      <point x="352" y="515"/>
      <point x="443" y="515" type="curve" smooth="yes"/>
      <point x="532" y="515"/>
      <point x="570" y="452"/>
      <point x="553" y="354" type="curve"/>
      <point x="535" y="256"/>
      <point x="475" y="193"/>
      <point x="386" y="193" type="curve" smooth="yes"/>
      <point x="295" y="193"/>
      <point x="258" y="256"/>
    </contour>
  </outline>
</glyph>
<glyph name="oe" format="2">
  <advance width="1022"/>
  <unicode hex="0153"/>
  <outline>
    <contour>
      <point x="403" y="349"/>
      <point x="391" y="282" type="curve"/>
      <point x="379" y="215"/>
      <point x="340" y="185"/>
      <point x="301" y="185" type="curve"/>
      <point x="261" y="185"/>
      <point x="233" y="215"/>
      <point x="245" y="282" type="curve"/>
      <point x="257" y="349"/>
      <point x="296" y="379"/>
      <point x="335" y="379" type="curve"/>
      <point x="374" y="379"/>
    </contour>
    <contour>
      <point x="52" y="462"/>
      <point x="20" y="282" type="curve"/>
      <point x="-12" y="102"/>
      <point x="97" y="-7"/>
      <point x="267" y="-7" type="curve"/>
      <point x="339" y="-7"/>
      <point x="408" y="13"/>
      <point x="464" y="49" type="curve"/>
      <point x="507" y="13"/>
      <point x="565" y="-7"/>
      <point x="637" y="-7" type="curve" smooth="yes"/>
      <point x="779" y="-7"/>
      <point x="905" y="83"/>
      <point x="950" y="203" type="curve"/>
      <point x="715" y="203" type="line"/>
      <point x="704" y="186"/>
      <point x="686" y="170"/>
      <point x="657" y="170" type="curve" smooth="yes"/>
      <point x="624" y="170"/>
      <point x="599" y="185"/>
      <point x="612" y="258" type="curve" smooth="yes"/>
      <point x="621" y="311" type="line" smooth="yes"/>
      <point x="632" y="370"/>
      <point x="663" y="397"/>
      <point x="708" y="397" type="curve"/>
      <point x="741" y="397"/>
      <point x="768" y="379"/>
      <point x="760" y="334" type="curve"/>
      <point x="585" y="334" type="line"/>
      <point x="569" y="243" type="line"/>
      <point x="964" y="243" type="line"/>
      <point x="970" y="257"/>
      <point x="974" y="273"/>
      <point x="977" y="287" type="curve"/>
      <point x="1008" y="464"/>
      <point x="908" y="571"/>
      <point x="739" y="571" type="curve"/>
      <point x="667" y="571"/>
      <point x="601" y="551"/>
      <point x="546" y="515" type="curve"/>
      <point x="502" y="551"/>
      <point x="441" y="571"/>
      <point x="369" y="571" type="curve"/>
      <point x="199" y="571"/>
    </contour>
  </outline>
</glyph>
<glyph name="florin" format="2">
  <advance width="340"/>
  <unicode hex="0192"/>
  <outline>
    <contour>
      <point x="87" y="564" type="line"/>
      <point x="35" y="379" type="line"/>
      <point x="360" y="379" type="line"/>
      <point x="412" y="564" type="line"/>
    </contour>
    <contour>
      <point x="174" y="725"/>
      <point x="130" y="569" type="curve" smooth="yes"/>
      <point x="-59" y="-98" type="line" smooth="yes"/>
      <point x="-63" y="-110"/>
      <point x="-72" y="-120"/>
      <point x="-85" y="-120" type="curve" smooth="yes"/>
      <point x="-123" y="-120" type="line"/>
      <point x="-174" y="-310" type="line"/>
      <point x="-141" y="-310" type="line" smooth="yes"/>
      <point x="-8" y="-310"/>
      <point x="115" y="-268"/>
      <point x="163" y="-98" type="curve" smooth="yes"/>
      <point x="351" y="569" type="line" smooth="yes"/>
      <point x="359" y="597"/>
      <point x="381" y="604"/>
      <point x="416" y="604" type="curve"/>
      <point x="468" y="793" type="line"/>
      <point x="282" y="793"/>
    </contour>
  </outline>
</glyph>
<glyph name="tilde" format="2">
  <advance width="458"/>
  <unicode hex="02DC"/>
  <anchor x="284" y="564" name="_top"/>
  <outline>
    <contour>
      <point x="103" y="740"/>
      <point x="58" y="612" type="curve"/>
      <point x="166" y="612" type="line"/>
      <point x="178" y="645"/>
      <point x="195" y="659"/>
      <point x="219" y="659" type="curve" smooth="yes"/>
      <point x="259" y="659"/>
      <point x="291" y="614"/>
      <point x="356" y="614" type="curve" smooth="yes"/>
      <point x="438" y="614"/>
      <point x="503" y="661"/>
      <point x="547" y="789" type="curve"/>
      <point x="438" y="789" type="line"/>
      <point x="428" y="757"/>
      <point x="410" y="742"/>
      <point x="386" y="742" type="curve" smooth="yes"/>
      <point x="346" y="742"/>
      <point x="315" y="788"/>
      <point x="250" y="788" type="curve" smooth="yes"/>
      <point x="168" y="788"/>
    </contour>
  </outline>
</glyph>
<glyph name="pi" format="2">
  <advance width="708"/>
  <unicode hex="03C0"/>
  <outline>
    <contour>
      <point x="60" y="564" type="line"/>
      <point x="30" y="398" type="line"/>
      <point x="95" y="398" type="line"/>
      <point x="25" y="0" type="line"/>
      <point x="247" y="0" type="line"/>
      <point x="317" y="398" type="line"/>
      <point x="436" y="398" type="line"/>
      <point x="366" y="0" type="line"/>
      <point x="588" y="0" type="line"/>
      <point x="658" y="398" type="line"/>
      <point x="723" y="398" type="line"/>
      <point x="753" y="564" type="line"/>
    </contour>
  </outline>
</glyph>
<glyph name="dvAnusvara" format="2">
  <unicode hex="0902"/>
  <anchor x="-3" y="740" name="_abvm.e"/>
  <outline>
    <contour>
      <point x="-97" y="799" type="curve" smooth="yes"/>
      <point x="-33" y="799"/>
      <point x="27" y="850"/>
      <point x="38" y="912" type="curve" smooth="yes"/>
      <point x="49" y="976"/>
      <point x="7" y="1026"/>
      <point x="-57" y="1026" type="curve" smooth="yes"/>
      <point x="-120" y="1026"/>
      <point x="-179" y="976"/>
      <point x="-190" y="912" type="curve" smooth="yes"/>
      <point x="-201" y="850"/>
      <point x="-160" y="799"/>
    </contour>
  </outline>
</glyph>
<glyph name="dvU" format="2">
  <advance width="559"/>
  <unicode hex="0909"/>
  <anchor x="462" y="740" name="abvm.e"/>
  <outline>
    <contour>
      <point x="227" y="5" type="curve" smooth="yes"/>
      <point x="375" y="5"/>
      <point x="477" y="93"/>
      <point x="500" y="223" type="curve" smooth="yes"/>
      <point x="514" y="307"/>
      <point x="481" y="369"/>
      <point x="427" y="390" type="curve"/>
      <point x="428" y="393" type="line"/>
      <point x="476" y="406"/>
      <point x="519" y="456"/>
      <point x="533" y="538" type="curve" smooth="yes"/>
      <point x="563" y="706" type="line"/>
      <point x="367" y="706" type="line"/>
      <point x="339" y="547" type="line" smooth="yes"/>
      <point x="329" y="490"/>
      <point x="293" y="475"/>
      <point x="262" y="475" type="curve" smooth="yes"/>
      <point x="223" y="475" type="line"/>
      <point x="192" y="298" type="line"/>
      <point x="261" y="298" type="line" smooth="yes"/>
      <point x="302" y="298"/>
      <point x="316" y="272"/>
      <point x="311" y="240" type="curve" smooth="yes"/>
      <point x="305" y="207"/>
      <point x="281" y="186"/>
      <point x="249" y="186" type="curve" smooth="yes"/>
      <point x="215" y="186"/>
      <point x="198" y="210"/>
      <point x="205" y="245" type="curve"/>
      <point x="11" y="245" type="line"/>
      <point x="-17" y="91"/>
      <point x="74" y="5"/>
    </contour>
    <contour>
      <point x="24" y="570" type="line"/>
      <point x="605" y="570" type="line"/>
      <point x="635" y="740" type="line"/>
      <point x="54" y="740" type="line"/>
    </contour>
  </outline>
</glyph>
<glyph name="dvGA" format="2">
  <advance width="859"/>
  <unicode hex="0917"/>
  <outline>
    <contour>
      <point x="524" y="0" type="line"/>
      <point x="728" y="0" type="line"/>
      <point x="828" y="571" type="line"/>
      <point x="905" y="571" type="line"/>
      <point x="935" y="740" type="line"/>
      <point x="54" y="740" type="line"/>
      <point x="24" y="571" type="line"/>
      <point x="624" y="571" type="line"/>
    </contour>
    <contour>
      <point x="231" y="135" type="curve" smooth="yes"/>
      <point x="391" y="135"/>
      <point x="474" y="237"/>
      <point x="497" y="373" type="curve" smooth="yes"/>
      <point x="540" y="622" type="line"/>
      <point x="331" y="591" type="line"/>
      <point x="291" y="364" type="line" smooth="yes"/>
      <point x="287" y="339"/>
      <point x="278" y="308"/>
      <point x="249" y="308" type="curve" smooth="yes"/>
      <point x="223" y="308"/>
      <point x="219" y="330"/>
      <point x="225" y="364" type="curve" smooth="yes"/>
      <point x="231" y="396" type="line"/>
      <point x="34" y="396" type="line"/>
      <point x="31" y="385"/>
      <point x="29" y="374"/>
      <point x="27" y="363" type="curve" smooth="yes"/>
      <point x="-1" y="209"/>
      <point x="93" y="135"/>
    </contour>
  </outline>
</glyph>
<glyph name="dvCA" format="2">
  <advance width="765"/>
  <unicode hex="091A"/>
  <outline>
    <contour>
      <point x="24" y="571" type="line"/>
      <point x="811" y="571" type="line"/>
      <point x="841" y="740" type="line"/>
      <point x="54" y="740" type="line"/>
    </contour>
    <contour>
      <point x="279" y="72" type="curve" smooth="yes"/>
      <point x="405" y="72"/>
      <point x="507" y="143"/>
      <point x="532" y="286" type="curve"/>
      <point x="497" y="379" type="line"/>
      <point x="482" y="293"/>
      <point x="441" y="242"/>
      <point x="373" y="240" type="curve" smooth="yes"/>
      <point x="331" y="239"/>
      <point x="303" y="257"/>
      <point x="309" y="293" type="curve" smooth="yes"/>
      <point x="316" y="328"/>
      <point x="346" y="344"/>
      <point x="374" y="344" type="curve"/>
      <point x="316" y="404" type="line"/>
      <point x="206" y="404"/>
      <point x="127" y="344"/>
      <point x="112" y="255" type="curve" smooth="yes"/>
      <point x="91" y="140"/>
      <point x="165" y="72"/>
    </contour>
    <contour>
      <point x="46" y="344" type="line"/>
      <point x="420" y="344" type="line"/>
      <point x="448" y="503" type="line"/>
      <point x="74" y="503" type="line"/>
    </contour>
    <contour>
      <point x="430" y="0" type="line"/>
      <point x="634" y="0" type="line"/>
      <point x="740" y="601" type="line"/>
      <point x="536" y="601" type="line"/>
    </contour>
  </outline>
</glyph>
<glyph name="dvNYA" format="2">
  <advance width="851"/>
  <unicode hex="091E"/>
  <outline>
    <contour>
      <point x="224" y="31" type="curve" smooth="yes"/>
      <point x="362" y="31"/>
      <point x="480" y="117"/>
      <point x="508" y="274" type="curve" smooth="yes"/>
      <point x="536" y="431"/>
      <point x="448" y="518"/>
      <point x="310" y="518" type="curve" smooth="yes"/>
      <point x="180" y="518"/>
      <point x="61" y="445"/>
      <point x="31" y="308" type="curve"/>
      <point x="223" y="308" type="line"/>
      <point x="237" y="338"/>
      <point x="265" y="345"/>
      <point x="282" y="345" type="curve" smooth="yes"/>
      <point x="318" y="345"/>
      <point x="332" y="313"/>
      <point x="325" y="274" type="curve" smooth="yes"/>
      <point x="318" y="233"/>
      <point x="292" y="202"/>
      <point x="256" y="202" type="curve" smooth="yes"/>
      <point x="239" y="202"/>
      <point x="215" y="209"/>
      <point x="211" y="240" type="curve"/>
      <point x="19" y="240" type="line"/>
      <point x="1" y="103"/>
      <point x="94" y="31"/>
    </contour>
    <contour>
      <point x="421" y="196" type="line"/>
      <point x="661" y="196" type="line"/>
      <point x="691" y="367" type="line"/>
      <point x="451" y="367" type="line"/>
    </contour>
    <contour>
      <point x="517" y="0" type="line"/>
      <point x="721" y="0" type="line"/>
      <point x="829" y="616" type="line"/>
      <point x="625" y="616" type="line"/>
    </contour>
    <contour>
      <point x="24" y="571" type="line"/>
      <point x="897" y="571" type="line"/>
      <point x="927" y="740" type="line"/>
      <point x="54" y="740" type="line"/>
    </contour>
  </outline>
</glyph>
<glyph name="dvDDHA" format="2">
  <advance width="666"/>
  <unicode hex="0922"/>
  <anchor x="590" y="740" name="abvm.e"/>
  <anchor x="398" y="-119" name="blwm.u"/>
  <anchor x="402" y="-19" name="blwm.virama"/>
  <outline>
    <contour>
      <point x="320" y="-19" type="curve" smooth="yes"/>
      <point x="497" y="-19"/>
      <point x="603" y="57"/>
      <point x="627" y="183" type="curve" smooth="yes"/>
      <point x="645" y="289"/>
      <point x="578" y="360"/>
      <point x="468" y="360" type="curve" smooth="yes"/>
      <point x="361" y="360"/>
      <point x="280" y="312"/>
      <point x="265" y="222" type="curve" smooth="yes"/>
      <point x="263" y="210"/>
      <point x="262" y="194"/>
      <point x="262" y="179" type="curve"/>
      <point x="404" y="179" type="line"/>
      <point x="404" y="181"/>
      <point x="404" y="190"/>
      <point x="406" y="196" type="curve" smooth="yes"/>
      <point x="410" y="209"/>
      <point x="420" y="217"/>
      <point x="434" y="217" type="curve" smooth="yes"/>
      <point x="448" y="217"/>
      <point x="458" y="206"/>
      <point x="455" y="189" type="curve" smooth="yes"/>
      <point x="447" y="144"/>
      <point x="398" y="126"/>
      <point x="340" y="126" type="curve" smooth="yes"/>
      <point x="235" y="126"/>
      <point x="208" y="186"/>
      <point x="221" y="256" type="curve" smooth="yes"/>
      <point x="236" y="344"/>
      <point x="314" y="392"/>
      <point x="403" y="392" type="curve" smooth="yes"/>
      <point x="533" y="392" type="line"/>
      <point x="569" y="601" type="line"/>
      <point x="378" y="601" type="line"/>
      <point x="349" y="433" type="line"/>
      <point x="492" y="530" type="line"/>
      <point x="360" y="530" type="line" smooth="yes"/>
      <point x="195" y="530"/>
      <point x="57" y="439"/>
      <point x="27" y="275" type="curve" smooth="yes"/>
      <point x="-4" y="95"/>
      <point x="127" y="-19"/>
    </contour>
    <contour>
      <point x="26" y="571" type="line"/>
      <point x="712" y="571" type="line"/>
      <point x="742" y="740" type="line"/>
      <point x="56" y="740" type="line"/>
    </contour>
  </outline>
</glyph>
<glyph name="dvNNA" format="2">
  <advance width="921"/>
  <unicode hex="0923"/>
  <outline>
    <contour>
      <point x="289" y="120" type="curve" smooth="yes"/>
      <point x="447" y="120"/>
      <point x="531" y="223"/>
      <point x="553" y="354" type="curve" smooth="yes"/>
      <point x="603" y="634" type="line"/>
      <point x="403" y="634" type="line"/>
      <point x="350" y="335" type="line" smooth="yes"/>
      <point x="345" y="309"/>
      <point x="329" y="291"/>
      <point x="302" y="291" type="curve" smooth="yes"/>
      <point x="277" y="291"/>
      <point x="263" y="309"/>
      <point x="268" y="335" type="curve" smooth="yes"/>
      <point x="321" y="634" type="line"/>
      <point x="122" y="634" type="line"/>
      <point x="72" y="354" type="line" smooth="yes"/>
      <point x="47" y="214"/>
      <point x="137" y="120"/>
    </contour>
    <contour>
      <point x="586" y="0" type="line"/>
      <point x="790" y="0" type="line"/>
      <point x="902" y="634" type="line"/>
      <point x="698" y="634" type="line"/>
    </contour>
    <contour>
      <point x="24" y="571" type="line"/>
      <point x="967" y="571" type="line"/>
      <point x="997" y="740" type="line"/>
      <point x="54" y="740" type="line"/>
    </contour>
  </outline>
</glyph>
<glyph name="dvmI" format="2">
  <advance width="335"/>
  <unicode hex="093F"/>
  <outline>
    <contour>
      <point x="123" y="696" type="line"/>
      <point x="325" y="696" type="line"/>
      <point x="329" y="720" type="line" smooth="yes"/>
      <point x="347" y="826"/>
      <point x="461" y="888"/>
      <point x="595" y="888" type="curve" smooth="yes"/>
      <point x="728" y="888"/>
      <point x="814" y="823"/>
      <point x="798" y="710" type="curve" smooth="yes"/>
      <point x="796" y="696" type="line"/>
      <point x="1000" y="696" type="line"/>
      <point x="1003" y="714" type="line" smooth="yes"/>
      <point x="1034" y="898"/>
      <point x="912" y="1053"/>
      <point x="624" y="1053" type="curve" smooth="yes"/>
      <point x="335" y="1053"/>
      <point x="162" y="900"/>
      <point x="127" y="717" type="curve" smooth="yes"/>
    </contour>
    <contour>
      <point x="0" y="0" type="line"/>
      <point x="204" y="0" type="line"/>
      <point x="305" y="571" type="line"/>
      <point x="381" y="571" type="line"/>
      <point x="411" y="740" type="line"/>
      <point x="54" y="740" type="line"/>
      <point x="24" y="571" type="line"/>
      <point x="101" y="571" type="line"/>
    </contour>
  </outline>
</glyph>
<glyph name="dvmII" format="2">
  <advance width="335"/>
  <unicode hex="0940"/>
  <outline>
    <contour>
      <point x="-212" y="696" type="line"/>
      <point x="-14" y="696" type="line"/>
      <point x="0" y="775" type="line" smooth="yes"/>
      <point x="7" y="814"/>
      <point x="23" y="882"/>
      <point x="93" y="882" type="curve" smooth="yes"/>
      <point x="159" y="882"/>
      <point x="151" y="814"/>
      <point x="144" y="775" type="curve" smooth="yes"/>
      <point x="130" y="696" type="line"/>
      <point x="328" y="696" type="line"/>
      <point x="340" y="765" type="line" smooth="yes"/>
      <point x="368" y="928"/>
      <point x="327" y="1053"/>
      <point x="123" y="1053" type="curve" smooth="yes"/>
      <point x="-77" y="1053"/>
      <point x="-171" y="934"/>
      <point x="-200" y="765" type="curve" smooth="yes"/>
    </contour>
    <contour>
      <point x="1" y="0" type="line"/>
      <point x="205" y="0" type="line"/>
      <point x="306" y="571" type="line"/>
      <point x="382" y="571" type="line"/>
      <point x="412" y="740" type="line"/>
      <point x="55" y="740" type="line"/>
      <point x="25" y="571" type="line"/>
      <point x="102" y="571" type="line"/>
    </contour>
  </outline>
</glyph>
<glyph name="dvmUU" format="2">
  <unicode hex="0942"/>
  <anchor x="-130" y="0" name="_blwm.u"/>
  <outline>
    <contour>
      <point x="-315" y="-346" type="curve" smooth="yes"/>
      <point x="-306" y="-346"/>
      <point x="-297" y="-346"/>
      <point x="-288" y="-346" type="curve"/>
      <point x="-263" y="-202" type="line"/>
      <point x="-271" y="-202"/>
      <point x="-279" y="-202"/>
      <point x="-286" y="-202" type="curve" smooth="yes"/>
      <point x="-315" y="-202"/>
      <point x="-344" y="-190"/>
      <point x="-338" y="-155" type="curve" smooth="yes"/>
      <point x="-331" y="-117"/>
      <point x="-292" y="-105"/>
      <point x="-261" y="-105" type="curve" smooth="yes"/>
      <point x="-173" y="-105"/>
      <point x="-155" y="-176"/>
      <point x="-171" y="-264" type="curve" smooth="yes"/>
      <point x="-185" y="-341" type="line"/>
      <point x="-20" y="-341" type="line"/>
      <point x="-15" y="-318"/>
      <point x="-9" y="-295"/>
      <point x="-5" y="-270" type="curve" smooth="yes"/>
      <point x="19" y="-120"/>
      <point x="-30" y="45"/>
      <point x="-243" y="45" type="curve" smooth="yes"/>
      <point x="-375" y="45"/>
      <point x="-477" y="-21"/>
      <point x="-499" y="-149" type="curve" smooth="yes"/>
      <point x="-524" y="-284"/>
      <point x="-420" y="-346"/>
    </contour>
  </outline>
</glyph>
<glyph name="dvmAU" format="2">
  <advance width="335"/>
  <unicode hex="094C"/>
  <outline>
    <contour>
      <point x="-30" y="0" type="line"/>
      <point x="174" y="0" type="line"/>
      <point x="274" y="571" type="line"/>
      <point x="350" y="571" type="line"/>
      <point x="380" y="740" type="line"/>
      <point x="23" y="740" type="line"/>
      <point x="-7" y="571" type="line"/>
      <point x="70" y="571" type="line"/>
    </contour>
    <contour>
      <point x="163" y="737" type="curve"/>
      <point x="294" y="737" type="line"/>
      <point x="177" y="1075"/>
      <point x="155" y="1091"/>
      <point x="-12" y="1091" type="curve" smooth="yes"/>
      <point x="-72" y="1091" type="line"/>
      <point x="-94" y="965" type="line"/>
      <point x="-29" y="965" type="line" smooth="yes"/>
      <point x="51" y="965"/>
      <point x="98" y="965"/>
    </contour>
    <contour>
      <point x="120" y="737" type="curve"/>
      <point x="259" y="737" type="line"/>
      <point x="73" y="916"/>
      <point x="97" y="916"/>
      <point x="-47" y="916" type="curve" smooth="yes"/>
      <point x="-103" y="916" type="line"/>
      <point x="-125" y="791" type="line"/>
      <point x="-64" y="791" type="line" smooth="yes"/>
      <point x="44" y="791"/>
      <point x="24" y="791"/>
    </contour>
  </outline>
</glyph>
<glyph name="danda" format="2">
  <advance width="383"/>
  <unicode hex="0964"/>
  <outline>
    <contour>
      <point x="408" y="740" type="line"/>
      <point x="206" y="740" type="line"/>
      <point x="76" y="0" type="line"/>
      <point x="278" y="0" type="line"/>
    </contour>
  </outline>
</glyph>
<glyph name="quotedblleft" format="2">
  <advance width="660"/>
  <unicode hex="201C"/>
  <outline>
    <contour>
      <point x="389" y="708" type="line"/>
      <point x="243" y="708" type="line"/>
      <point x="73" y="413" type="line"/>
      <point x="293" y="413" type="line"/>
    </contour>
    <contour>
      <point x="671" y="708" type="line"/>
      <point x="525" y="708" type="line"/>
      <point x="355" y="413" type="line"/>
      <point x="575" y="413" type="line"/>
    </contour>
  </outline>
</glyph>
<glyph name="dagger" format="2">
  <advance width="717"/>
  <unicode hex="2020"/>
  <outline>
    <contour>
      <point x="716" y="564" type="line"/>
      <point x="494" y="549" type="line"/>
      <point x="559" y="794" type="line"/>
      <point x="337" y="794" type="line"/>
      <point x="315" y="549" type="line"/>
      <point x="101" y="564" type="line"/>
      <point x="71" y="398" type="line"/>
      <point x="291" y="413" type="line"/>
      <point x="150" y="-270" type="line"/>
      <point x="372" y="-270" type="line"/>
      <point x="470" y="413" type="line"/>
      <point x="686" y="398" type="line"/>
    </contour>
  </outline>
</glyph>
<glyph name="guilsinglleft" format="2">
  <advance width="373"/>
  <unicode hex="2039"/>
  <outline>
    <contour>
      <point x="294" y="120" type="line"/>
      <point x="246" y="295" type="line"/>
      <point x="356" y="470" type="line"/>
      <point x="155" y="470" type="line"/>
      <point x="47" y="295" type="line"/>
      <point x="93" y="120" type="line"/>
    </contour>
  </outline>
</glyph>
<glyph name="fraction" format="2">
  <advance width="555"/>
  <unicode hex="2044"/>
  <outline>
    <contour>
      <point x="422" y="711" type="line"/>
      <point x="-77" y="0" type="line"/>
      <point x="135" y="0" type="line"/>
      <point x="634" y="711" type="line"/>
    </contour>
  </outline>
</glyph>
<glyph name="foursuperior" format="2">
  <advance width="424"/>
  <unicode hex="2074"/>
  <outline>
    <contour>
      <point x="447" y="498" type="line"/>
      <point x="412" y="498" type="line"/>
      <point x="448" y="703" type="line"/>
      <point x="201" y="703" type="line"/>
      <point x="43" y="494" type="line"/>
      <point x="29" y="410" type="line"/>
      <point x="233" y="410" type="line"/>
      <point x="222" y="352" type="line"/>
      <point x="386" y="352" type="line"/>
      <point x="397" y="410" type="line"/>
      <point x="432" y="410" type="line"/>
    </contour>
    <contour>
      <point x="257" y="498" type="line"/>
      <point x="198" y="498" type="line"/>
      <point x="279" y="622" type="line"/>
    </contour>
  </outline>
</glyph>
<glyph name="estimated" format="2">
  <advance width="740"/>
  <unicode hex="212E"/>
  <outline>
    <contour>
      <point x="556" y="42"/>
      <point x="657" y="133" type="curve"/>
      <point x="601" y="216" type="line"/>
      <point x="526" y="152"/>
      <point x="443" y="117"/>
      <point x="350" y="117" type="curve" smooth="yes"/>
      <point x="309" y="117"/>
      <point x="266" y="126"/>
      <point x="228" y="140" type="curve"/>
      <point x="260" y="324" type="line"/>
      <point x="720" y="324" type="line"/>
      <point x="732" y="388" type="line" smooth="yes"/>
      <point x="762" y="560"/>
      <point x="667" y="721"/>
      <point x="447" y="721" type="curve" smooth="yes"/>
      <point x="227" y="721"/>
      <point x="76" y="555"/>
      <point x="38" y="340" type="curve" smooth="yes"/>
      <point x="-1" y="119"/>
      <point x="127" y="-7"/>
      <point x="328" y="-7" type="curve" smooth="yes"/>
      <point x="448" y="-7"/>
    </contour>
    <contour>
      <point x="516" y="427" type="line"/>
      <point x="279" y="427" type="line"/>
      <point x="306" y="582" type="line"/>
      <point x="340" y="592"/>
      <point x="376" y="603"/>
      <point x="427" y="603" type="curve" smooth="yes"/>
      <point x="471" y="603"/>
      <point x="512" y="599"/>
      <point x="544" y="586" type="curve"/>
    </contour>
  </outline>
</glyph>
<glyph name="minus" format="2">
  <advance width="506"/>
  <unicode hex="2212"/>
  <outline>
    <contour>
      <point x="47" y="433" type="line"/>
      <point x="14" y="250" type="line"/>
      <point x="480" y="250" type="line"/>
      <point x="513" y="433" type="line"/>
    </contour>
  </outline>
</glyph>
<glyph name="radical" format="2">
  <advance width="1020"/>
  <unicode hex="221A"/>
  <outline>
    <contour>
      <point x="983" y="927" type="line"/>
      <point x="434" y="194" type="line"/>
      <point x="457" y="172" type="line"/>
      <point x="343" y="472" type="line"/>
      <point x="22" y="301" type="line"/>
      <point x="66" y="201" type="line"/>
      <point x="168" y="255" type="line"/>
      <point x="281" y="-40" type="line"/>
      <point x="386" y="-40" type="line"/>
      <point x="1107" y="927" type="line"/>
    </contour>
  </outline>
</glyph>
<glyph name="infinity" format="2">
  <advance width="844"/>
  <unicode hex="221E"/>
  <outline>
    <contour>
      <point x="65" y="466"/>
      <point x="44" y="347" type="curve" smooth="yes"/>
      <point x="24" y="229"/>
      <point x="85" y="161"/>
      <point x="209" y="160" type="curve" smooth="yes"/>
      <point x="329" y="159"/>
      <point x="432" y="243"/>
      <point x="474" y="344" type="curve"/>
      <point x="366" y="372" type="line"/>
      <point x="333" y="322"/>
      <point x="288" y="303"/>
      <point x="251" y="303" type="curve" smooth="yes"/>
      <point x="226" y="303"/>
      <point x="210" y="318"/>
      <point x="215" y="347" type="curve" smooth="yes"/>
      <point x="221" y="377"/>
      <point x="242" y="393"/>
      <point x="267" y="393" type="curve" smooth="yes"/>
      <point x="358" y="393"/>
      <point x="359" y="160"/>
      <point x="596" y="160" type="curve" smooth="yes"/>
      <point x="702" y="160"/>
      <point x="803" y="230"/>
      <point x="824" y="348" type="curve" smooth="yes"/>
      <point x="845" y="467"/>
      <point x="784" y="534"/>
      <point x="658" y="535" type="curve" smooth="yes"/>
      <point x="539" y="536"/>
      <point x="436" y="452"/>
      <point x="394" y="351" type="curve"/>
      <point x="501" y="324" type="line"/>
      <point x="534" y="373"/>
      <point x="580" y="393"/>
      <point x="617" y="393" type="curve" smooth="yes"/>
      <point x="642" y="393"/>
      <point x="658" y="378"/>
      <point x="653" y="348" type="curve" smooth="yes"/>
      <point x="648" y="319"/>
      <point x="626" y="303"/>
      <point x="601" y="303" type="curve"/>
      <point x="466" y="303"/>
      <point x="510" y="535"/>
      <point x="271" y="535" type="curve" smooth="yes"/>
      <point x="166" y="535"/>
    </contour>
  </outline>
</glyph>
<glyph name="notequal" format="2">
  <advance width="626"/>
  <unicode hex="2260"/>
  <outline>
    <contour>
      <point x="570" y="680" type="line"/>
      <point x="-29" y="-1" type="line"/>
      <point x="78" y="-1" type="line"/>
      <point x="676" y="680" type="line"/>
    </contour>
    <component base="equal"/>
  </outline>
</glyph>
<glyph name="a.ss02" format="2">
  <advance width="646"/>
  <anchor x="546" y="0" name="ogonek"/>
  <anchor x="360" y="572" name="top"/>
  <outline>
    <contour>
      <point x="338" y="76" type="curve"/>
      <point x="325" y="0" type="line"/>
      <point x="546" y="0" type="line"/>
      <point x="604" y="329" type="line" smooth="yes"/>
      <point x="629" y="488"/>
      <point x="528" y="572"/>
      <point x="360" y="572" type="curve" smooth="yes"/>
      <point x="199" y="572"/>
      <point x="84" y="479"/>
      <point x="42" y="354" type="curve"/>
      <point x="266" y="354" type="line"/>
      <point x="278" y="375"/>
      <point x="299" y="394"/>
      <point x="332" y="394" type="curve" smooth="yes"/>
      <point x="363" y="394"/>
      <point x="383" y="377"/>
      <point x="383" y="346" type="curve" smooth="yes"/>
      <point x="383" y="340"/>
      <point x="382" y="334"/>
      <point x="381" y="328" type="curve"/>
      <point x="284" y="328" type="line" smooth="yes"/>
      <point x="124" y="328"/>
      <point x="-4" y="252"/>
      <point x="-4" y="128" type="curve" smooth="yes"/>
      <point x="-4" y="35"/>
      <point x="61" y="-11"/>
      <point x="145" y="-11" type="curve" smooth="yes"/>
      <point x="221" y="-11"/>
      <point x="302" y="20"/>
    </contour>
    <contour>
      <point x="268" y="143" type="curve" smooth="yes"/>
      <point x="243" y="143"/>
      <point x="227" y="154"/>
      <point x="227" y="174" type="curve" smooth="yes"/>
      <point x="227" y="201"/>
      <point x="254" y="223"/>
      <point x="292" y="223" type="curve" smooth="yes"/>
      <point x="362" y="223" type="line"/>
      <point x="362" y="221" type="line" smooth="yes"/>
      <point x="354" y="180"/>
      <point x="312" y="143"/>
    </contour>
  </outline>
</glyph>
<glyph name="divide.ss01" format="2">
  <advance width="551"/>
  <outline>
    <contour>
      <point x="48" y="441" type="line"/>
      <point x="13" y="240" type="line"/>
      <point x="524" y="240" type="line"/>
      <point x="559" y="441" type="line"/>
    </contour>
    <contour>
      <point x="152" y="212" type="line"/>
      <point x="114" y="0" type="line"/>
      <point x="334" y="0" type="line"/>
      <point x="372" y="212" type="line"/>
    </contour>
    <contour>
      <point x="234" y="681" type="line"/>
      <point x="197" y="469" type="line"/>
      <point x="417" y="469" type="line"/>
      <point x="454" y="681" type="line"/>
    </contour>
  </outline>
</glyph>
<glyph name="dvBH" format="2">
  <advance width="559"/>
  <outline>
    <contour>
      <point x="224" y="36" type="curve" smooth="yes"/>
      <point x="382" y="36"/>
      <point x="478" y="131"/>
      <point x="504" y="277" type="curve" smooth="yes"/>
      <point x="542" y="496" type="line" smooth="yes"/>
      <point x="567" y="633"/>
      <point x="533" y="749"/>
      <point x="358" y="749" type="curve" smooth="yes"/>
      <point x="202" y="749"/>
      <point x="114" y="658"/>
      <point x="94" y="545" type="curve" smooth="yes"/>
      <point x="92" y="533"/>
      <point x="91" y="519"/>
      <point x="92" y="509" type="curve"/>
      <point x="296" y="509" type="line"/>
      <point x="295" y="519"/>
      <point x="296" y="528"/>
      <point x="298" y="537" type="curve" smooth="yes"/>
      <point x="302" y="559"/>
      <point x="316" y="576"/>
      <point x="336" y="576" type="curve" smooth="yes"/>
      <point x="359" y="576"/>
      <point x="363" y="558"/>
      <point x="359" y="534" type="curve" smooth="yes"/>
      <point x="312" y="266" type="line" smooth="yes"/>
      <point x="306" y="234"/>
      <point x="288" y="208"/>
      <point x="251" y="208" type="curve" smooth="yes"/>
      <point x="224" y="208"/>
      <point x="204" y="223"/>
      <point x="210" y="256" type="curve" smooth="yes"/>
      <point x="216" y="289"/>
      <point x="245" y="305"/>
      <point x="282" y="305" type="curve" smooth="yes"/>
      <point x="715" y="305" type="line"/>
      <point x="744" y="471" type="line"/>
      <point x="305" y="471" type="line" smooth="yes"/>
      <point x="172" y="471"/>
      <point x="47" y="405"/>
      <point x="21" y="255" type="curve" smooth="yes"/>
      <point x="-3" y="122"/>
      <point x="79" y="36"/>
    </contour>
  </outline>
</glyph>
<glyph name="dvB_DH_VA" format="2">
  <advance width="1480"/>
  <outline>
    <contour>
      <point x="255" y="38" type="curve" smooth="yes"/>
      <point x="385" y="38"/>
      <point x="496" y="110"/>
      <point x="537" y="247" type="curve"/>
      <point x="419" y="280" type="line"/>
      <point x="400" y="219"/>
      <point x="347" y="174"/>
      <point x="291" y="174" type="curve" smooth="yes"/>
      <point x="229" y="174"/>
      <point x="182" y="213"/>
      <point x="193" y="278" type="curve" smooth="yes"/>
      <point x="206" y="348"/>
      <point x="265" y="391"/>
      <point x="330" y="391" type="curve" smooth="yes"/>
      <point x="349" y="391"/>
      <point x="360" y="390"/>
      <point x="376" y="387" type="curve"/>
      <point x="399" y="519" type="line"/>
      <point x="376" y="525"/>
      <point x="351" y="526"/>
      <point x="332" y="526" type="curve" smooth="yes"/>
      <point x="178" y="526"/>
      <point x="54" y="441"/>
      <point x="29" y="297" type="curve" smooth="yes"/>
      <point x="1" y="136"/>
      <point x="114" y="38"/>
    </contour>
    <contour>
      <point x="395" y="152" type="line"/>
      <point x="457" y="216" type="line"/>
      <point x="197" y="418" type="line"/>
      <point x="128" y="359" type="line"/>
    </contour>
    <contour>
      <point x="24" y="571" type="line"/>
      <point x="600" y="571" type="line"/>
      <point x="629" y="740" type="line"/>
      <point x="53" y="740" type="line"/>
    </contour>
    <component base="dvDH_VA" xOffset="373"/>
  </outline>
</glyph>
<glyph name="dvB_JA" format="2">
  <advance width="1228"/>
  <outline>
    <contour>
      <point x="610" y="80" type="curve" smooth="yes"/>
      <point x="762" y="80"/>
      <point x="857" y="179"/>
      <point x="882" y="319" type="curve" smooth="yes"/>
      <point x="911" y="481" type="line"/>
      <point x="712" y="481" type="line"/>
      <point x="684" y="325" type="line" smooth="yes"/>
      <point x="676" y="281"/>
      <point x="657" y="258"/>
      <point x="626" y="258" type="curve" smooth="yes"/>
      <point x="593" y="258"/>
      <point x="584" y="279"/>
      <point x="588" y="313" type="curve"/>
      <point x="571" y="379" type="line"/>
      <point x="465" y="476" type="line"/>
      <point x="437" y="319" type="line" smooth="yes"/>
      <point x="412" y="179"/>
      <point x="442" y="80"/>
    </contour>
    <contour>
      <point x="775" y="308" type="line"/>
      <point x="964" y="308" type="line"/>
      <point x="995" y="481" type="line"/>
      <point x="806" y="481" type="line"/>
    </contour>
    <contour>
      <point x="894" y="0" type="line"/>
      <point x="1098" y="0" type="line"/>
      <point x="1205" y="611" type="line"/>
      <point x="1001" y="611" type="line"/>
    </contour>
    <contour>
      <point x="380" y="571" type="line"/>
      <point x="1274" y="571" type="line"/>
      <point x="1304" y="740" type="line"/>
      <point x="410" y="740" type="line"/>
    </contour>
    <contour>
      <point x="266" y="38" type="curve" smooth="yes"/>
      <point x="451" y="38"/>
      <point x="563" y="161"/>
      <point x="585" y="288" type="curve" smooth="yes"/>
      <point x="607" y="416"/>
      <point x="529" y="526"/>
      <point x="343" y="526" type="curve" smooth="yes"/>
      <point x="165" y="526"/>
      <point x="51" y="428"/>
      <point x="29" y="298" type="curve" smooth="yes"/>
      <point x="3" y="160"/>
      <point x="88" y="38"/>
    </contour>
    <contour>
      <point x="287" y="176" type="curve" smooth="yes"/>
      <point x="228" y="176"/>
      <point x="183" y="217"/>
      <point x="194" y="282" type="curve" smooth="yes"/>
      <point x="205" y="342"/>
      <point x="262" y="389"/>
      <point x="324" y="389" type="curve" smooth="yes"/>
      <point x="388" y="389"/>
      <point x="425" y="344"/>
      <point x="414" y="282" type="curve" smooth="yes"/>
      <point x="404" y="222"/>
      <point x="352" y="176"/>
    </contour>
    <contour>
      <point x="402" y="150" type="line"/>
      <point x="463" y="213" type="line"/>
      <point x="204" y="416" type="line"/>
      <point x="136" y="356" type="line"/>
    </contour>
    <contour>
      <point x="24" y="571" type="line"/>
      <point x="627" y="571" type="line"/>
      <point x="657" y="740" type="line"/>
      <point x="54" y="740" type="line"/>
    </contour>
  </outline>
</glyph>
<glyph name="dvB_SHA" format="2">
  <advance width="1262"/>
  <outline>
    <contour>
      <point x="632" y="-6" type="curve" smooth="yes"/>
      <point x="793" y="-6"/>
      <point x="882" y="82"/>
      <point x="900" y="233" type="curve"/>
      <point x="702" y="233" type="line"/>
      <point x="694" y="192"/>
      <point x="681" y="168"/>
      <point x="648" y="168" type="curve" smooth="yes"/>
      <point x="610" y="168"/>
      <point x="607" y="196"/>
      <point x="612" y="222" type="curve" smooth="yes"/>
      <point x="637" y="364" type="line"/>
      <point x="551" y="267" type="line"/>
      <point x="627" y="267" type="line" smooth="yes"/>
      <point x="785" y="267"/>
      <point x="929" y="341"/>
      <point x="960" y="517" type="curve" smooth="yes"/>
      <point x="987" y="667"/>
      <point x="886" y="749"/>
      <point x="751" y="749" type="curve" smooth="yes"/>
      <point x="623" y="749"/>
      <point x="526" y="686"/>
      <point x="489" y="571" type="curve"/>
      <point x="714" y="571" type="line"/>
      <point x="718" y="572"/>
      <point x="723" y="573"/>
      <point x="728" y="573" type="curve" smooth="yes"/>
      <point x="750" y="573"/>
      <point x="759" y="553"/>
      <point x="755" y="530" type="curve" smooth="yes"/>
      <point x="741" y="451"/>
      <point x="656" y="437"/>
      <point x="579" y="437" type="curve" smooth="yes"/>
      <point x="444" y="437" type="line"/>
      <point x="408" y="234" type="line" smooth="yes"/>
      <point x="381" y="86"/>
      <point x="474" y="-6"/>
    </contour>
    <contour>
      <point x="264" y="38" type="curve" smooth="yes"/>
      <point x="449" y="38"/>
      <point x="552" y="151"/>
      <point x="572" y="288" type="curve" smooth="yes"/>
      <point x="591" y="416"/>
      <point x="510" y="526"/>
      <point x="334" y="526" type="curve" smooth="yes"/>
      <point x="155" y="526"/>
      <point x="45" y="418"/>
      <point x="27" y="288" type="curve" smooth="yes"/>
      <point x="8" y="150"/>
      <point x="95" y="38"/>
    </contour>
    <contour>
      <point x="286" y="176" type="curve" smooth="yes"/>
      <point x="227" y="176"/>
      <point x="183" y="217"/>
      <point x="194" y="282" type="curve" smooth="yes"/>
      <point x="204" y="342"/>
      <point x="262" y="389"/>
      <point x="324" y="389" type="curve" smooth="yes"/>
      <point x="388" y="389"/>
      <point x="425" y="344"/>
      <point x="414" y="282" type="curve" smooth="yes"/>
      <point x="403" y="222"/>
      <point x="351" y="176"/>
    </contour>
    <contour>
      <point x="402" y="150" type="line"/>
      <point x="463" y="213" type="line"/>
      <point x="204" y="416" type="line"/>
      <point x="135" y="356" type="line"/>
    </contour>
    <contour>
      <point x="24" y="571" type="line"/>
      <point x="627" y="571" type="line"/>
      <point x="657" y="740" type="line"/>
      <point x="54" y="740" type="line"/>
    </contour>
    <contour>
      <point x="924" y="0" type="line"/>
      <point x="1131" y="0" type="line"/>
      <point x="1232" y="571" type="line"/>
      <point x="1308" y="571" type="line"/>
      <point x="1338" y="740" type="line"/>
      <point x="1055" y="740" type="line"/>
    </contour>
  </outline>
</glyph>
<glyph name="dvB_YA" format="2">
  <advance width="1149"/>
  <outline>
    <contour>
      <point x="815" y="0" type="line"/>
      <point x="1019" y="0" type="line"/>
      <point x="1125" y="601" type="line"/>
      <point x="921" y="601" type="line"/>
    </contour>
    <contour>
      <point x="653" y="63" type="curve" smooth="yes"/>
      <point x="813" y="61"/>
      <point x="910" y="159"/>
      <point x="932" y="287" type="curve"/>
      <point x="881" y="375" type="line"/>
      <point x="867" y="295"/>
      <point x="813" y="232"/>
      <point x="722" y="232" type="curve" smooth="yes"/>
      <point x="626" y="232"/>
      <point x="606" y="290"/>
      <point x="617" y="351" type="curve"/>
      <point x="427" y="363" type="line"/>
      <point x="385" y="193"/>
      <point x="482" y="65"/>
    </contour>
    <contour>
      <point x="517" y="281" type="line"/>
      <point x="559" y="281" type="line" smooth="yes"/>
      <point x="711" y="281"/>
      <point x="777" y="417"/>
      <point x="792" y="502" type="curve" smooth="yes"/>
      <point x="810" y="601" type="line"/>
      <point x="608" y="601" type="line"/>
      <point x="597" y="540" type="line" smooth="yes"/>
      <point x="585" y="474"/>
      <point x="561" y="414"/>
      <point x="447" y="414" type="curve"/>
      <point x="443" y="414" type="line"/>
    </contour>
    <contour>
      <point x="404" y="571" type="line"/>
      <point x="1195" y="571" type="line"/>
      <point x="1225" y="740" type="line"/>
      <point x="434" y="740" type="line"/>
    </contour>
    <component base="dvB"/>
  </outline>
</glyph>
<glyph name="dvCH_YA" format="2">
  <advance width="1332"/>
  <outline>
    <contour>
      <point x="859" y="63" type="curve" smooth="yes"/>
      <point x="1003" y="63"/>
      <point x="1093" y="159"/>
      <point x="1115" y="287" type="curve"/>
      <point x="1063" y="375" type="line"/>
      <point x="1048" y="293"/>
      <point x="988" y="232"/>
      <point x="905" y="232" type="curve" smooth="yes"/>
      <point x="806" y="232"/>
      <point x="781" y="293"/>
      <point x="780" y="379" type="curve"/>
      <point x="633" y="344" type="line"/>
      <point x="604" y="174"/>
      <point x="684" y="63"/>
    </contour>
    <contour>
      <point x="746" y="309" type="line"/>
      <point x="869" y="309"/>
      <point x="957" y="402"/>
      <point x="974" y="502" type="curve" smooth="yes"/>
      <point x="992" y="601" type="line"/>
      <point x="795" y="601" type="line"/>
      <point x="783" y="532" type="line" smooth="yes"/>
      <point x="776" y="496"/>
      <point x="760" y="463"/>
      <point x="686" y="464" type="curve"/>
    </contour>
    <contour>
      <point x="997" y="0" type="line"/>
      <point x="1202" y="0" type="line"/>
      <point x="1308" y="601" type="line"/>
      <point x="1103" y="601" type="line"/>
    </contour>
    <contour>
      <point x="587" y="571" type="line"/>
      <point x="1378" y="571" type="line"/>
      <point x="1408" y="740" type="line"/>
      <point x="617" y="740" type="line"/>
    </contour>
    <component base="dvCH"/>
  </outline>
</glyph>
<glyph name="dvC_CA" format="2">
  <advance width="1108"/>
  <outline>
    <contour>
      <point x="293" y="70" type="curve" smooth="yes"/>
      <point x="411" y="70"/>
      <point x="493" y="132"/>
      <point x="554" y="239" type="curve"/>
      <point x="475" y="311" type="line"/>
      <point x="452" y="270"/>
      <point x="421" y="240"/>
      <point x="369" y="240" type="curve" smooth="yes"/>
      <point x="329" y="240"/>
      <point x="303" y="257"/>
      <point x="309" y="293" type="curve" smooth="yes"/>
      <point x="316" y="328"/>
      <point x="346" y="344"/>
      <point x="374" y="344" type="curve"/>
      <point x="316" y="404" type="line"/>
      <point x="206" y="404"/>
      <point x="128" y="344"/>
      <point x="112" y="255" type="curve" smooth="yes"/>
      <point x="91" y="141"/>
      <point x="176" y="70"/>
    </contour>
    <contour>
      <point x="46" y="344" type="line"/>
      <point x="423" y="344" type="line"/>
      <point x="451" y="503" type="line"/>
      <point x="74" y="503" type="line"/>
    </contour>
    <contour>
      <point x="24" y="571" type="line"/>
      <point x="707" y="571" type="line"/>
      <point x="737" y="740" type="line"/>
      <point x="54" y="740" type="line"/>
    </contour>
    <contour>
      <point x="367" y="571" type="line"/>
      <point x="1154" y="571" type="line"/>
      <point x="1184" y="740" type="line"/>
      <point x="397" y="740" type="line"/>
    </contour>
    <contour>
      <point x="622" y="72" type="curve" smooth="yes"/>
      <point x="748" y="72"/>
      <point x="850" y="143"/>
      <point x="875" y="286" type="curve"/>
      <point x="840" y="379" type="line"/>
      <point x="824" y="293"/>
      <point x="784" y="242"/>
      <point x="716" y="240" type="curve" smooth="yes"/>
      <point x="674" y="239"/>
      <point x="646" y="257"/>
      <point x="652" y="293" type="curve" smooth="yes"/>
      <point x="659" y="328"/>
      <point x="689" y="344"/>
      <point x="717" y="344" type="curve"/>
      <point x="659" y="404" type="line"/>
      <point x="549" y="404"/>
      <point x="470" y="344"/>
      <point x="455" y="255" type="curve" smooth="yes"/>
      <point x="434" y="140"/>
      <point x="508" y="72"/>
    </contour>
    <contour>
      <point x="389" y="344" type="line"/>
      <point x="763" y="344" type="line"/>
      <point x="791" y="503" type="line"/>
      <point x="417" y="503" type="line"/>
    </contour>
    <contour>
      <point x="773" y="0" type="line"/>
      <point x="977" y="0" type="line"/>
      <point x="1083" y="601" type="line"/>
      <point x="879" y="601" type="line"/>
    </contour>
  </outline>
</glyph>
<glyph name="dvC_CH_VA" format="2">
  <advance width="1247"/>
  <anchor x="1155" y="740" name="abvm.e"/>
  <anchor x="955" y="-339" name="blwm.u"/>
  <anchor x="955" y="-339" name="blwm.virama"/>
  <outline>
    <contour>
      <point x="767" y="16" type="curve"/>
      <point x="726" y="107" type="line"/>
      <point x="595" y="107"/>
      <point x="506" y="41"/>
      <point x="485" y="-80" type="curve" smooth="yes"/>
      <point x="467" y="-185"/>
      <point x="528" y="-287"/>
      <point x="656" y="-292" type="curve" smooth="yes"/>
      <point x="764" y="-296"/>
      <point x="839" y="-231"/>
      <point x="861" y="-105" type="curve"/>
      <point x="822" y="-66" type="line"/>
      <point x="815" y="-107"/>
      <point x="780" y="-137"/>
      <point x="737" y="-137" type="curve" smooth="yes"/>
      <point x="690" y="-137"/>
      <point x="668" y="-103"/>
      <point x="676" y="-61" type="curve" smooth="yes"/>
      <point x="684" y="-20"/>
      <point x="716" y="16"/>
    </contour>
    <contour>
      <point x="774" y="-339" type="line"/>
      <point x="955" y="-339" type="line"/>
      <point x="1044" y="164" type="line"/>
      <point x="862" y="163" type="line"/>
    </contour>
    <component base="dvC_CHA"/>
  </outline>
</glyph>
<glyph name="dvC_MA" format="2">
  <advance width="1324"/>
  <outline>
    <contour>
      <point x="310" y="70" type="curve" smooth="yes"/>
      <point x="455" y="70"/>
      <point x="557" y="157"/>
      <point x="603" y="312" type="curve"/>
      <point x="478" y="316" type="line"/>
      <point x="457" y="269"/>
      <point x="419" y="240"/>
      <point x="368" y="240" type="curve" smooth="yes"/>
      <point x="329" y="240"/>
      <point x="303" y="258"/>
      <point x="309" y="293" type="curve" smooth="yes"/>
      <point x="316" y="328"/>
      <point x="346" y="344"/>
      <point x="374" y="344" type="curve"/>
      <point x="316" y="404" type="line"/>
      <point x="206" y="404"/>
      <point x="127" y="344"/>
      <point x="112" y="255" type="curve" smooth="yes"/>
      <point x="90" y="134"/>
      <point x="186" y="70"/>
    </contour>
    <contour>
      <point x="46" y="344" type="line"/>
      <point x="420" y="344" type="line"/>
      <point x="448" y="503" type="line"/>
      <point x="74" y="503" type="line"/>
    </contour>
    <contour>
      <point x="24" y="571" type="line"/>
      <point x="707" y="571" type="line"/>
      <point x="737" y="740" type="line"/>
      <point x="54" y="740" type="line"/>
    </contour>
    <component base="dvMA" xOffset="445"/>
  </outline>
</glyph>
<glyph name="dvC_YA" format="2">
  <advance width="1217"/>
  <outline>
    <contour>
      <point x="321" y="70" type="curve" smooth="yes"/>
      <point x="489" y="70"/>
      <point x="600" y="183"/>
      <point x="634" y="373" type="curve"/>
      <point x="496" y="373" type="line"/>
      <point x="477" y="289"/>
      <point x="437" y="242"/>
      <point x="372" y="240" type="curve" smooth="yes"/>
      <point x="331" y="239"/>
      <point x="303" y="257"/>
      <point x="309" y="293" type="curve" smooth="yes"/>
      <point x="316" y="328"/>
      <point x="346" y="344"/>
      <point x="374" y="344" type="curve"/>
      <point x="316" y="404" type="line"/>
      <point x="206" y="404"/>
      <point x="127" y="344"/>
      <point x="112" y="255" type="curve" smooth="yes"/>
      <point x="90" y="130"/>
      <point x="197" y="70"/>
    </contour>
    <contour>
      <point x="46" y="344" type="line"/>
      <point x="420" y="344" type="line"/>
      <point x="448" y="503" type="line"/>
      <point x="74" y="503" type="line"/>
    </contour>
    <contour>
      <point x="24" y="571" type="line"/>
      <point x="707" y="571" type="line"/>
      <point x="737" y="740" type="line"/>
      <point x="54" y="740" type="line"/>
    </contour>
    <component base="dvYA" xOffset="448"/>
  </outline>
</glyph>
<glyph name="dvD" format="2">
  <advance width="612"/>
  <anchor x="599" y="740" name="abvm.e"/>
  <outline>
    <contour>
      <point x="373" y="-325" type="line"/>
      <point x="580" y="-325" type="line"/>
      <point x="483" y="-87" type="line"/>
      <point x="281" y="-87" type="line"/>
    </contour>
    <contour>
      <point x="290" y="-44" type="line"/>
      <point x="489" y="-44" type="line"/>
      <point x="544" y="267" type="line"/>
      <point x="355" y="267" type="line"/>
      <point x="349" y="232"/>
      <point x="325" y="204"/>
      <point x="286" y="204" type="curve" smooth="yes"/>
      <point x="249" y="204"/>
      <point x="230" y="228"/>
      <point x="237" y="266" type="curve" smooth="yes"/>
      <point x="244" y="307"/>
      <point x="277" y="336"/>
      <point x="329" y="336" type="curve" smooth="yes"/>
      <point x="527" y="336" type="line"/>
      <point x="574" y="601" type="line"/>
      <point x="369" y="601" type="line"/>
      <point x="353" y="510" type="line"/>
      <point x="338" y="510" type="line" smooth="yes"/>
      <point x="181" y="510"/>
      <point x="57" y="433"/>
      <point x="30" y="281" type="curve" smooth="yes"/>
      <point x="2" y="121"/>
      <point x="94" y="44"/>
      <point x="197" y="44" type="curve" smooth="yes"/>
      <point x="274" y="44"/>
      <point x="333" y="78"/>
      <point x="358" y="142" type="curve"/>
      <point x="325" y="155" type="line"/>
    </contour>
    <contour>
      <point x="28" y="571" type="line"/>
      <point x="662" y="571" type="line"/>
      <point x="693" y="740" type="line"/>
      <point x="58" y="740" type="line"/>
    </contour>
  </outline>
</glyph>
<glyph name="dvDA_mvR" format="2">
  <advance width="611"/>
  <anchor x="594" y="740" name="abvm.e"/>
  <outline>
    <contour>
      <point x="251" y="-32" type="curve" smooth="yes"/>
      <point x="417" y="-32"/>
      <point x="532" y="47"/>
      <point x="559" y="197" type="curve"/>
      <point x="389" y="197" type="line"/>
      <point x="381" y="152"/>
      <point x="352" y="119"/>
      <point x="292" y="119" type="curve" smooth="yes"/>
      <point x="252" y="119"/>
      <point x="236" y="131"/>
      <point x="239" y="151" type="curve" smooth="yes"/>
      <point x="242" y="166"/>
      <point x="253" y="180"/>
      <point x="290" y="180" type="curve" smooth="yes"/>
      <point x="323" y="180" type="line"/>
      <point x="349" y="328" type="line"/>
      <point x="326" y="328" type="line" smooth="yes"/>
      <point x="291" y="328"/>
      <point x="266" y="331"/>
      <point x="271" y="357" type="curve" smooth="yes"/>
      <point x="275" y="382"/>
      <point x="301" y="385"/>
      <point x="335" y="385" type="curve" smooth="yes"/>
      <point x="531" y="385" type="line"/>
      <point x="564" y="571" type="line"/>
      <point x="670" y="571" type="line"/>
      <point x="700" y="740" type="line"/>
      <point x="57" y="740" type="line"/>
      <point x="27" y="571" type="line"/>
      <point x="370" y="571" type="line"/>
      <point x="359" y="505" type="line"/>
      <point x="374" y="525" type="line"/>
      <point x="273" y="525" type="line" smooth="yes"/>
      <point x="174" y="525"/>
      <point x="89" y="489"/>
      <point x="70" y="388" type="curve" smooth="yes"/>
      <point x="58" y="323"/>
      <point x="95" y="269"/>
      <point x="150" y="253" type="curve"/>
      <point x="149" y="249" type="line"/>
      <point x="78" y="233"/>
      <point x="35" y="186"/>
      <point x="25" y="129" type="curve" smooth="yes"/>
      <point x="6" y="17"/>
      <point x="112" y="-32"/>
    </contour>
  </outline>
</glyph>
<glyph name="dvDDH_DDHA" format="2">
  <advance width="679"/>
  <anchor x="570" y="740" name="abvm.e"/>
  <anchor x="326" y="-412" name="blwm.u"/>
  <anchor x="330" y="-313" name="blwm.virama"/>
  <outline>
    <contour>
      <point x="326" y="38" type="curve" smooth="yes"/>
      <point x="474" y="38"/>
      <point x="592" y="107"/>
      <point x="613" y="227" type="curve" smooth="yes"/>
      <point x="629" y="318"/>
      <point x="576" y="382"/>
      <point x="459" y="382" type="curve" smooth="yes"/>
      <point x="360" y="382"/>
      <point x="287" y="339"/>
      <point x="272" y="256" type="curve" smooth="yes"/>
      <point x="270" y="245"/>
      <point x="270" y="231"/>
      <point x="270" y="217" type="curve"/>
      <point x="400" y="217" type="line"/>
      <point x="399" y="221"/>
      <point x="399" y="225"/>
      <point x="399" y="229" type="curve" smooth="yes"/>
      <point x="399" y="240"/>
      <point x="411" y="251"/>
      <point x="429" y="251" type="curve" smooth="yes"/>
      <point x="446" y="251"/>
      <point x="453" y="240"/>
      <point x="451" y="224" type="curve" smooth="yes"/>
      <point x="446" y="185"/>
      <point x="395" y="170"/>
      <point x="336" y="170" type="curve" smooth="yes"/>
      <point x="240" y="170"/>
      <point x="217" y="224"/>
      <point x="228" y="286" type="curve" smooth="yes"/>
      <point x="242" y="366"/>
      <point x="311" y="409"/>
      <point x="392" y="409" type="curve" smooth="yes"/>
      <point x="511" y="409" type="line"/>
      <point x="545" y="599" type="line"/>
      <point x="372" y="599" type="line"/>
      <point x="345" y="447" type="line"/>
      <point x="474" y="534" type="line"/>
      <point x="353" y="534" type="line" smooth="yes"/>
      <point x="200" y="534"/>
      <point x="72" y="446"/>
      <point x="45" y="295" type="curve" smooth="yes"/>
      <point x="15" y="128"/>
      <point x="143" y="38"/>
    </contour>
    <contour>
      <point x="24" y="571" type="line"/>
      <point x="725" y="571" type="line"/>
      <point x="755" y="740" type="line"/>
      <point x="54" y="740" type="line"/>
    </contour>
    <contour>
      <point x="243" y="-333" type="curve" smooth="yes"/>
      <point x="422" y="-333"/>
      <point x="527" y="-264"/>
      <point x="548" y="-144" type="curve" smooth="yes"/>
      <point x="564" y="-53"/>
      <point x="505" y="11"/>
      <point x="392" y="11" type="curve" smooth="yes"/>
      <point x="294" y="11"/>
      <point x="222" y="-33"/>
      <point x="207" y="-115" type="curve" smooth="yes"/>
      <point x="205" y="-126"/>
      <point x="204" y="-140"/>
      <point x="205" y="-154" type="curve"/>
      <point x="335" y="-154" type="line"/>
      <point x="334" y="-150"/>
      <point x="333" y="-146"/>
      <point x="334" y="-142" type="curve" smooth="yes"/>
      <point x="337" y="-131"/>
      <point x="347" y="-120"/>
      <point x="363" y="-120" type="curve" smooth="yes"/>
      <point x="381" y="-120"/>
      <point x="388" y="-131"/>
      <point x="385" y="-146" type="curve" smooth="yes"/>
      <point x="377" y="-186"/>
      <point x="330" y="-201"/>
      <point x="271" y="-201" type="curve" smooth="yes"/>
      <point x="175" y="-201"/>
      <point x="151" y="-147"/>
      <point x="162" y="-85" type="curve" smooth="yes"/>
      <point x="176" y="-5"/>
      <point x="246" y="38"/>
      <point x="327" y="38" type="curve"/>
      <point x="286" y="144" type="line"/>
      <point x="129" y="144"/>
      <point x="4" y="59"/>
      <point x="-22" y="-86" type="curve" smooth="yes"/>
      <point x="-51" y="-247"/>
      <point x="73" y="-333"/>
    </contour>
  </outline>
</glyph>
<glyph name="dvDD_VA" format="2">
  <advance width="581"/>
  <anchor x="547" y="740" name="abvm.e"/>
  <anchor x="390" y="-348" name="blwm.u"/>
  <anchor x="390" y="-348" name="blwm.virama"/>
  <outline>
    <contour>
      <point x="116" y="-283" type="curve" smooth="yes"/>
      <point x="217" y="-283"/>
      <point x="295" y="-221"/>
      <point x="315" y="-113" type="curve"/>
      <point x="267" y="-84" type="line"/>
      <point x="261" y="-117"/>
      <point x="229" y="-142"/>
      <point x="190" y="-142" type="curve" smooth="yes"/>
      <point x="153" y="-142"/>
      <point x="128" y="-115"/>
      <point x="136" y="-72" type="curve" smooth="yes"/>
      <point x="146" y="-18"/>
      <point x="185" y="11"/>
      <point x="239" y="11" type="curve" smooth="yes"/>
      <point x="390" y="11"/>
      <point x="490" y="70"/>
      <point x="509" y="181" type="curve" smooth="yes"/>
      <point x="528" y="292"/>
      <point x="459" y="338"/>
      <point x="339" y="345" type="curve" smooth="yes"/>
      <point x="287" y="348"/>
      <point x="250" y="340"/>
      <point x="257" y="371" type="curve" smooth="yes"/>
      <point x="261" y="390"/>
      <point x="277" y="396"/>
      <point x="295" y="396" type="curve" smooth="yes"/>
      <point x="486" y="396" type="line"/>
      <point x="509" y="527" type="line"/>
      <point x="268" y="527" type="line" smooth="yes"/>
      <point x="163" y="527"/>
      <point x="77" y="478"/>
      <point x="60" y="382" type="curve" smooth="yes"/>
      <point x="35" y="239"/>
      <point x="168" y="222"/>
      <point x="241" y="222" type="curve" smooth="yes"/>
      <point x="287" y="222"/>
      <point x="325" y="220"/>
      <point x="319" y="182" type="curve" smooth="yes"/>
      <point x="315" y="157"/>
      <point x="293" y="144"/>
      <point x="260" y="144" type="curve" smooth="yes"/>
      <point x="229" y="144"/>
      <point x="204" y="159"/>
      <point x="204" y="182" type="curve"/>
      <point x="10" y="182" type="line"/>
      <point x="-3" y="109"/>
      <point x="51" y="45"/>
      <point x="148" y="21" type="curve"/>
      <point x="175" y="87" type="line"/>
      <point x="59" y="87"/>
      <point x="-23" y="7"/>
      <point x="-41" y="-94" type="curve" smooth="yes"/>
      <point x="-61" y="-204"/>
      <point x="1" y="-283"/>
    </contour>
    <contour>
      <point x="220" y="-348" type="line"/>
      <point x="390" y="-348" type="line"/>
      <point x="475" y="134" type="line"/>
      <point x="293" y="65" type="line"/>
    </contour>
    <contour>
      <point x="24" y="571" type="line"/>
      <point x="627" y="571" type="line"/>
      <point x="657" y="740" type="line"/>
      <point x="54" y="740" type="line"/>
    </contour>
    <contour>
      <point x="314" y="491" type="line"/>
      <point x="503" y="491" type="line"/>
      <point x="543" y="719" type="line"/>
      <point x="354" y="719" type="line"/>
    </contour>
  </outline>
</glyph>
<glyph name="dvDH" format="2">
  <advance width="426"/>
  <outline>
    <contour>
      <point x="292" y="63" type="curve" smooth="yes"/>
      <point x="513" y="63"/>
      <point x="631" y="167"/>
      <point x="658" y="326" type="curve"/>
      <point x="480" y="326" type="line"/>
      <point x="470" y="271"/>
      <point x="424" y="231"/>
      <point x="331" y="231" type="curve" smooth="yes"/>
      <point x="289" y="231"/>
      <point x="243" y="238"/>
      <point x="250" y="274" type="curve" smooth="yes"/>
      <point x="257" y="308"/>
      <point x="290" y="318"/>
      <point x="332" y="318" type="curve" smooth="yes"/>
      <point x="384" y="318" type="line"/>
      <point x="413" y="481" type="line"/>
      <point x="321" y="481" type="line" smooth="yes"/>
      <point x="284" y="481"/>
      <point x="241" y="490"/>
      <point x="253" y="543" type="curve" smooth="yes"/>
      <point x="258" y="565"/>
      <point x="271" y="579"/>
      <point x="289" y="579" type="curve" smooth="yes"/>
      <point x="319" y="579"/>
      <point x="318" y="549"/>
      <point x="313" y="528" type="curve"/>
      <point x="462" y="528" type="line"/>
      <point x="503" y="664"/>
      <point x="438" y="749"/>
      <point x="301" y="749" type="curve" smooth="yes"/>
      <point x="190" y="749"/>
      <point x="105" y="688"/>
      <point x="85" y="572" type="curve" smooth="yes"/>
      <point x="69" y="477"/>
      <point x="119" y="419"/>
      <point x="176" y="398" type="curve"/>
      <point x="175" y="394" type="line"/>
      <point x="125" y="381"/>
      <point x="56" y="345"/>
      <point x="41" y="259" type="curve" smooth="yes"/>
      <point x="17" y="127"/>
      <point x="137" y="63"/>
    </contour>
  </outline>
</glyph>
<glyph name="dvDH_R" format="2">
  <advance width="426"/>
  <outline>
    <contour>
      <point x="149" y="-75" type="line"/>
      <point x="367" y="-75" type="line"/>
      <point x="585" y="169" type="line"/>
      <point x="376" y="150" type="line"/>
    </contour>
    <component base="dvDH"/>
  </outline>
</glyph>
<glyph name="dvDH_VA" format="2">
  <advance width="1107"/>
  <outline>
    <contour>
      <point x="778" y="0" type="line"/>
      <point x="977" y="0" type="line"/>
      <point x="1077" y="571" type="line"/>
      <point x="1153" y="571" type="line"/>
      <point x="1183" y="740" type="line"/>
      <point x="580" y="740" type="line"/>
      <point x="550" y="571" type="line"/>
      <point x="878" y="571" type="line"/>
    </contour>
    <contour>
      <point x="292" y="63" type="curve" smooth="yes"/>
      <point x="481" y="63"/>
      <point x="582" y="167"/>
      <point x="605" y="326" type="curve"/>
      <point x="484" y="330" type="line"/>
      <point x="462" y="262"/>
      <point x="423" y="231"/>
      <point x="331" y="231" type="curve" smooth="yes"/>
      <point x="289" y="231"/>
      <point x="243" y="238"/>
      <point x="250" y="274" type="curve" smooth="yes"/>
      <point x="257" y="308"/>
      <point x="290" y="318"/>
      <point x="332" y="318" type="curve" smooth="yes"/>
      <point x="384" y="318" type="line"/>
      <point x="413" y="481" type="line"/>
      <point x="321" y="481" type="line" smooth="yes"/>
      <point x="284" y="481"/>
      <point x="241" y="490"/>
      <point x="253" y="543" type="curve" smooth="yes"/>
      <point x="258" y="565"/>
      <point x="271" y="579"/>
      <point x="289" y="579" type="curve" smooth="yes"/>
      <point x="319" y="579"/>
      <point x="318" y="549"/>
      <point x="313" y="528" type="curve"/>
      <point x="462" y="528" type="line"/>
      <point x="503" y="664"/>
      <point x="438" y="749"/>
      <point x="301" y="749" type="curve" smooth="yes"/>
      <point x="190" y="749"/>
      <point x="105" y="688"/>
      <point x="85" y="572" type="curve" smooth="yes"/>
      <point x="69" y="477"/>
      <point x="119" y="419"/>
      <point x="176" y="398" type="curve"/>
      <point x="175" y="394" type="line"/>
      <point x="125" y="381"/>
      <point x="56" y="345"/>
      <point x="41" y="259" type="curve" smooth="yes"/>
      <point x="17" y="127"/>
      <point x="137" y="63"/>
    </contour>
    <contour>
      <point x="657" y="41" type="curve" smooth="yes"/>
      <point x="766" y="41"/>
      <point x="857" y="118"/>
      <point x="872" y="266" type="curve"/>
      <point x="846" y="280" type="line"/>
      <point x="827" y="280" type="line"/>
      <point x="819" y="236"/>
      <point x="783" y="203"/>
      <point x="737" y="203" type="curve" smooth="yes"/>
      <point x="688" y="203"/>
      <point x="664" y="237"/>
      <point x="671" y="279" type="curve" smooth="yes"/>
      <point x="678" y="321"/>
      <point x="714" y="355"/>
      <point x="763" y="355" type="curve" smooth="yes"/>
      <point x="809" y="355"/>
      <point x="835" y="324"/>
      <point x="827" y="280" type="curve"/>
      <point x="845" y="280" type="line"/>
      <point x="878" y="303" type="line"/>
      <point x="914" y="442"/>
      <point x="847" y="517"/>
      <point x="734" y="517" type="curve" smooth="yes"/>
      <point x="593" y="517"/>
      <point x="501" y="431"/>
      <point x="477" y="300" type="curve" smooth="yes"/>
      <point x="447" y="144"/>
      <point x="520" y="41"/>
    </contour>
  </outline>
</glyph>
<glyph name="dvD_BA" format="2">
  <advance width="631"/>
  <anchor x="617" y="740" name="abvm.e"/>
  <anchor x="447" y="-315" name="blwm.u"/>
  <anchor x="447" y="-315" name="blwm.virama"/>
  <outline>
    <contour>
      <point x="269" y="-315" type="line"/>
      <point x="447" y="-315" type="line"/>
      <point x="550" y="270" type="line"/>
      <point x="374" y="270" type="line"/>
      <point x="368" y="234"/>
      <point x="342" y="204"/>
      <point x="300" y="204" type="curve" smooth="yes"/>
      <point x="262" y="204"/>
      <point x="241" y="232"/>
      <point x="248" y="271" type="curve" smooth="yes"/>
      <point x="256" y="314"/>
      <point x="291" y="341"/>
      <point x="346" y="341" type="curve" smooth="yes"/>
      <point x="547" y="341" type="line"/>
      <point x="593" y="606" type="line"/>
      <point x="389" y="606" type="line"/>
      <point x="372" y="510" type="line"/>
      <point x="356" y="510" type="line" smooth="yes"/>
      <point x="199" y="510"/>
      <point x="76" y="430"/>
      <point x="52" y="291" type="curve" smooth="yes"/>
      <point x="27" y="145"/>
      <point x="121" y="84"/>
      <point x="223" y="84" type="curve"/>
      <point x="219" y="170" type="line"/>
      <point x="77" y="163"/>
      <point x="-20" y="72"/>
      <point x="-40" y="-43" type="curve" smooth="yes"/>
      <point x="-60" y="-157"/>
      <point x="-1" y="-258"/>
      <point x="140" y="-258" type="curve" smooth="yes"/>
      <point x="240" y="-258"/>
      <point x="327" y="-195"/>
      <point x="351" y="-58" type="curve"/>
      <point x="321" y="-19" type="line"/>
      <point x="311" y="-79"/>
      <point x="265" y="-120"/>
      <point x="216" y="-121" type="curve" smooth="yes"/>
      <point x="158" y="-122"/>
      <point x="126" y="-87"/>
      <point x="135" y="-37" type="curve" smooth="yes"/>
      <point x="144" y="11"/>
      <point x="182" y="43"/>
      <point x="247" y="49" type="curve" smooth="yes"/>
      <point x="310" y="55"/>
      <point x="357" y="91"/>
      <point x="377" y="146" type="curve"/>
      <point x="353" y="159" type="line"/>
    </contour>
    <contour>
      <point x="24" y="571" type="line"/>
      <point x="677" y="571" type="line"/>
      <point x="707" y="740" type="line"/>
      <point x="54" y="740" type="line"/>
    </contour>
    <contour>
      <point x="304" y="-122" type="line"/>
      <point x="363" y="-77" type="line"/>
      <point x="173" y="66" type="line"/>
      <point x="108" y="26" type="line"/>
    </contour>
  </outline>
</glyph>
<glyph name="dvEyelash" format="2">
  <advance width="391"/>
  <outline>
    <contour>
      <point x="458" y="319" type="curve"/>
      <point x="397" y="428" type="line"/>
      <point x="372" y="415"/>
      <point x="342" y="403"/>
      <point x="300" y="403" type="curve" smooth="yes"/>
      <point x="251" y="403"/>
      <point x="215" y="426"/>
      <point x="221" y="488" type="curve"/>
      <point x="27" y="488" type="line"/>
      <point x="4" y="319"/>
      <point x="115" y="258"/>
      <point x="246" y="258" type="curve" smooth="yes"/>
      <point x="323" y="258"/>
      <point x="402" y="283"/>
    </contour>
    <contour>
      <point x="2" y="571" type="line"/>
      <point x="504" y="571" type="line"/>
      <point x="533" y="740" type="line"/>
      <point x="31" y="740" type="line"/>
    </contour>
  </outline>
</glyph>
<glyph name="dvG_BH_YA" format="2">
  <advance width="1840"/>
  <outline>
    <contour>
      <point x="231" y="135" type="curve" smooth="yes"/>
      <point x="391" y="135"/>
      <point x="474" y="237"/>
      <point x="497" y="373" type="curve" smooth="yes"/>
      <point x="540" y="622" type="line"/>
      <point x="331" y="591" type="line"/>
      <point x="291" y="364" type="line" smooth="yes"/>
      <point x="287" y="339"/>
      <point x="278" y="308"/>
      <point x="249" y="308" type="curve" smooth="yes"/>
      <point x="223" y="308"/>
      <point x="219" y="330"/>
      <point x="225" y="364" type="curve" smooth="yes"/>
      <point x="231" y="396" type="line"/>
      <point x="34" y="396" type="line"/>
      <point x="31" y="385"/>
      <point x="29" y="374"/>
      <point x="27" y="363" type="curve" smooth="yes"/>
      <point x="-1" y="209"/>
      <point x="93" y="135"/>
    </contour>
    <contour>
      <point x="24" y="571" type="line"/>
      <point x="635" y="571" type="line"/>
      <point x="878" y="740" type="line"/>
      <point x="54" y="740" type="line"/>
    </contour>
    <contour>
      <point x="1354" y="63" type="curve" smooth="yes"/>
      <point x="1508" y="63"/>
      <point x="1601" y="159"/>
      <point x="1623" y="287" type="curve"/>
      <point x="1571" y="375" type="line"/>
      <point x="1557" y="295"/>
      <point x="1503" y="232"/>
      <point x="1413" y="232" type="curve" smooth="yes"/>
      <point x="1335" y="232"/>
      <point x="1303" y="276"/>
      <point x="1311" y="324" type="curve" smooth="yes"/>
      <point x="1314" y="338"/>
      <point x="1318" y="351"/>
      <point x="1323" y="365" type="curve"/>
      <point x="1215" y="316" type="line"/>
      <point x="1257" y="316" type="line" smooth="yes"/>
      <point x="1409" y="316"/>
      <point x="1465" y="402"/>
      <point x="1482" y="502" type="curve" smooth="yes"/>
      <point x="1500" y="601" type="line"/>
      <point x="1299" y="601" type="line"/>
      <point x="1288" y="540" type="line" smooth="yes"/>
      <point x="1278" y="483"/>
      <point x="1261" y="471"/>
      <point x="1195" y="471" type="curve" smooth="yes"/>
      <point x="1140" y="471" type="line"/>
      <point x="1133" y="447"/>
      <point x="1127" y="425"/>
      <point x="1113" y="345" type="curve" smooth="yes"/>
      <point x="1081" y="174"/>
      <point x="1179" y="63"/>
    </contour>
    <contour>
      <point x="1505" y="0" type="line"/>
      <point x="1709" y="0" type="line"/>
      <point x="1815" y="601" type="line"/>
      <point x="1611" y="601" type="line"/>
    </contour>
    <contour>
      <point x="1166" y="571" type="line"/>
      <point x="1887" y="571" type="line"/>
      <point x="1916" y="740" type="line"/>
      <point x="1195" y="740" type="line"/>
    </contour>
    <component base="dvBH" xOffset="532"/>
  </outline>
</glyph>
<glyph name="dvG_RA" format="2">
  <advance width="859"/>
  <outline>
    <contour>
      <point x="530" y="0" type="line"/>
      <point x="729" y="0" type="line"/>
      <point x="829" y="571" type="line"/>
      <point x="905" y="571" type="line"/>
      <point x="935" y="740" type="line"/>
      <point x="55" y="740" type="line"/>
      <point x="25" y="571" type="line"/>
      <point x="625" y="571" type="line"/>
      <point x="573" y="275" type="line"/>
      <point x="574" y="250" type="line"/>
    </contour>
    <contour>
      <point x="132" y="-20" type="line"/>
      <point x="366" y="-20" type="line"/>
      <point x="726" y="288" type="line"/>
      <point x="637" y="387" type="line"/>
    </contour>
    <contour>
      <point x="245" y="213" type="curve" smooth="yes"/>
      <point x="405" y="213"/>
      <point x="488" y="315"/>
      <point x="511" y="451" type="curve" smooth="yes"/>
      <point x="540" y="622" type="line"/>
      <point x="331" y="591" type="line"/>
      <point x="305" y="442" type="line" smooth="yes"/>
      <point x="301" y="417"/>
      <point x="292" y="386"/>
      <point x="263" y="386" type="curve" smooth="yes"/>
      <point x="237" y="386"/>
      <point x="233" y="408"/>
      <point x="239" y="442" type="curve" smooth="yes"/>
      <point x="245" y="474" type="line"/>
      <point x="48" y="474" type="line"/>
      <point x="45" y="463"/>
      <point x="43" y="452"/>
      <point x="41" y="441" type="curve" smooth="yes"/>
      <point x="13" y="287"/>
      <point x="107" y="213"/>
    </contour>
  </outline>
</glyph>
<glyph name="dvH_R" format="2">
  <advance width="584"/>
  <anchor x="550" y="740" name="abvm.e"/>
  <outline>
    <contour>
      <point x="202" y="-429" type="line"/>
      <point x="409" y="-429" type="line"/>
      <point x="312" y="-191" type="line"/>
      <point x="110" y="-191" type="line"/>
    </contour>
    <component base="dvH_RA"/>
  </outline>
</glyph>
<glyph name="dvH_RA" format="2">
  <advance width="584"/>
  <anchor x="550" y="740" name="abvm.e"/>
  <anchor x="326" y="-245" name="blwm.u"/>
  <anchor x="326" y="-151" name="blwm.virama"/>
  <outline>
    <contour>
      <point x="236" y="-151" type="curve" smooth="yes"/>
      <point x="376" y="-151"/>
      <point x="475" y="-81"/>
      <point x="502" y="42" type="curve"/>
      <point x="324" y="42" type="line"/>
      <point x="313" y="23"/>
      <point x="289" y="7"/>
      <point x="260" y="7" type="curve" smooth="yes"/>
      <point x="222" y="7"/>
      <point x="189" y="35"/>
      <point x="200" y="94" type="curve" smooth="yes"/>
      <point x="212" y="156"/>
      <point x="248" y="191"/>
      <point x="294" y="191" type="curve" smooth="yes"/>
      <point x="323" y="191"/>
      <point x="338" y="179"/>
      <point x="346" y="169" type="curve"/>
      <point x="269" y="90" type="line"/>
      <point x="448" y="90" type="line"/>
      <point x="523" y="170" type="line"/>
      <point x="530" y="273"/>
      <point x="441" y="343"/>
      <point x="314" y="343" type="curve" smooth="yes"/>
      <point x="169" y="343"/>
      <point x="39" y="269"/>
      <point x="11" y="111" type="curve" smooth="yes"/>
      <point x="-19" y="-46"/>
      <point x="85" y="-151"/>
    </contour>
    <contour>
      <point x="193" y="260" type="curve"/>
      <point x="305" y="333" type="line"/>
      <point x="285" y="335"/>
      <point x="279" y="348"/>
      <point x="282" y="360" type="curve" smooth="yes"/>
      <point x="287" y="380"/>
      <point x="301" y="388"/>
      <point x="320" y="388" type="curve" smooth="yes"/>
      <point x="487" y="388" type="line"/>
      <point x="513" y="531" type="line"/>
      <point x="271" y="531" type="line" smooth="yes"/>
      <point x="166" y="531"/>
      <point x="100" y="475"/>
      <point x="87" y="402" type="curve" smooth="yes"/>
      <point x="75" y="334"/>
      <point x="109" y="282"/>
    </contour>
    <contour>
      <point x="317" y="522" type="line"/>
      <point x="513" y="531" type="line"/>
      <point x="520" y="571" type="line"/>
      <point x="640" y="571" type="line"/>
      <point x="670" y="740" type="line"/>
      <point x="64" y="740" type="line"/>
      <point x="34" y="571" type="line"/>
      <point x="326" y="571" type="line"/>
    </contour>
  </outline>
</glyph>
<glyph name="dvJ_J_NYA" format="2">
  <advance width="1417"/>
  <outline>
    <contour>
      <point x="1084" y="0" type="line"/>
      <point x="1285" y="0" type="line"/>
      <point x="1386" y="571" type="line"/>
      <point x="1463" y="571" type="line"/>
      <point x="1493" y="740" type="line"/>
      <point x="604" y="740" type="line"/>
      <point x="574" y="571" type="line"/>
      <point x="1185" y="571" type="line"/>
    </contour>
    <contour>
      <point x="245" y="80" type="curve" smooth="yes"/>
      <point x="397" y="80"/>
      <point x="502" y="179"/>
      <point x="526" y="319" type="curve" smooth="yes"/>
      <point x="555" y="481" type="line"/>
      <point x="356" y="481" type="line"/>
      <point x="328" y="325" type="line" smooth="yes"/>
      <point x="320" y="281"/>
      <point x="301" y="258"/>
      <point x="270" y="258" type="curve" smooth="yes"/>
      <point x="238" y="258"/>
      <point x="226" y="281"/>
      <point x="234" y="325" type="curve" smooth="yes"/>
      <point x="262" y="481" type="line"/>
      <point x="57" y="481" type="line"/>
      <point x="29" y="326" type="line" smooth="yes"/>
      <point x="2" y="178"/>
      <point x="92" y="80"/>
    </contour>
    <contour>
      <point x="520" y="-32" type="line"/>
      <point x="718" y="-32" type="line"/>
      <point x="754" y="174" type="line"/>
      <point x="711" y="124" type="line"/>
      <point x="725" y="67"/>
      <point x="780" y="40"/>
      <point x="855" y="36" type="curve" smooth="yes"/>
      <point x="962" y="30"/>
      <point x="1048" y="98"/>
      <point x="1062" y="205" type="curve" smooth="yes"/>
      <point x="1077" y="322"/>
      <point x="993" y="366"/>
      <point x="906" y="366" type="curve"/>
      <point x="835" y="318" type="line"/>
      <point x="868" y="318"/>
      <point x="893" y="294"/>
      <point x="886" y="255" type="curve" smooth="yes"/>
      <point x="881" y="227"/>
      <point x="858" y="202"/>
      <point x="818" y="202" type="curve" smooth="yes"/>
      <point x="777" y="202"/>
      <point x="760" y="229"/>
      <point x="762" y="262" type="curve"/>
      <point x="572" y="262" type="line"/>
    </contour>
    <contour>
      <point x="26" y="571" type="line"/>
      <point x="749" y="571" type="line"/>
      <point x="779" y="740" type="line"/>
      <point x="56" y="740" type="line"/>
    </contour>
    <contour>
      <point x="423" y="318" type="line"/>
      <point x="863" y="318" type="line"/>
      <point x="888" y="481" type="line"/>
      <point x="452" y="481" type="line"/>
    </contour>
    <contour>
      <point x="783" y="318" type="line"/>
      <point x="1180" y="318" type="line"/>
      <point x="1208" y="481" type="line"/>
      <point x="811" y="481" type="line"/>
    </contour>
  </outline>
</glyph>
<glyph name="dvKH" format="2">
  <advance width="667"/>
  <outline>
    <contour>
      <point x="316" y="-9" type="curve" smooth="yes"/>
      <point x="474" y="-9"/>
      <point x="573" y="98"/>
      <point x="604" y="200" type="curve"/>
      <point x="446" y="247" type="line"/>
      <point x="439" y="221"/>
      <point x="411" y="166"/>
      <point x="326" y="166" type="curve" smooth="yes"/>
      <point x="255" y="166"/>
      <point x="229" y="214"/>
      <point x="240" y="272" type="curve" smooth="yes"/>
      <point x="257" y="370" type="line"/>
      <point x="175" y="263" type="line"/>
      <point x="180" y="263"/>
      <point x="185" y="263"/>
      <point x="189" y="263" type="curve" smooth="yes"/>
      <point x="309" y="263"/>
      <point x="405" y="347"/>
      <point x="431" y="494" type="curve" smooth="yes"/>
      <point x="446" y="583" type="line"/>
      <point x="241" y="583" type="line"/>
      <point x="231" y="523" type="line" smooth="yes"/>
      <point x="218" y="448"/>
      <point x="177" y="406"/>
      <point x="80" y="406" type="curve" smooth="yes"/>
      <point x="74" y="406"/>
      <point x="67" y="406"/>
      <point x="61" y="406" type="curve"/>
      <point x="42" y="297" type="line" smooth="yes"/>
      <point x="9" y="109"/>
      <point x="115" y="-9"/>
    </contour>
    <contour>
      <point x="613" y="92" type="curve" smooth="yes"/>
      <point x="741" y="92"/>
      <point x="859" y="165"/>
      <point x="882" y="300" type="curve" smooth="yes"/>
      <point x="905" y="430"/>
      <point x="820" y="506"/>
      <point x="686" y="506" type="curve"/>
      <point x="551" y="506"/>
      <point x="436" y="430"/>
      <point x="413" y="300" type="curve" smooth="yes"/>
      <point x="390" y="165"/>
      <point x="484" y="92"/>
    </contour>
    <contour>
      <point x="640" y="244" type="curve"/>
      <point x="605" y="244"/>
      <point x="586" y="265"/>
      <point x="592" y="300" type="curve" smooth="yes"/>
      <point x="598" y="334"/>
      <point x="624" y="355"/>
      <point x="659" y="355" type="curve" smooth="yes"/>
      <point x="694" y="355"/>
      <point x="711" y="334"/>
      <point x="705" y="300" type="curve" smooth="yes"/>
      <point x="699" y="265"/>
      <point x="675" y="244"/>
    </contour>
    <contour>
      <point x="25" y="571" type="line"/>
      <point x="930" y="571" type="line"/>
      <point x="960" y="740" type="line"/>
      <point x="55" y="740" type="line"/>
    </contour>
  </outline>
</glyph>
<glyph name="dvKH_YA" format="2">
  <advance width="1430"/>
  <outline>
    <contour>
      <point x="316" y="-9" type="curve" smooth="yes"/>
      <point x="474" y="-9"/>
      <point x="573" y="98"/>
      <point x="604" y="200" type="curve"/>
      <point x="446" y="247" type="line"/>
      <point x="439" y="221"/>
      <point x="411" y="166"/>
      <point x="326" y="166" type="curve" smooth="yes"/>
      <point x="255" y="166"/>
      <point x="229" y="214"/>
      <point x="240" y="272" type="curve" smooth="yes"/>
      <point x="257" y="370" type="line"/>
      <point x="175" y="263" type="line"/>
      <point x="180" y="263"/>
      <point x="185" y="263"/>
      <point x="189" y="263" type="curve" smooth="yes"/>
      <point x="309" y="263"/>
      <point x="405" y="347"/>
      <point x="431" y="494" type="curve" smooth="yes"/>
      <point x="446" y="583" type="line"/>
      <point x="241" y="583" type="line"/>
      <point x="231" y="523" type="line" smooth="yes"/>
      <point x="218" y="448"/>
      <point x="177" y="406"/>
      <point x="80" y="406" type="curve" smooth="yes"/>
      <point x="74" y="406"/>
      <point x="67" y="406"/>
      <point x="61" y="406" type="curve"/>
      <point x="42" y="297" type="line" smooth="yes"/>
      <point x="9" y="109"/>
      <point x="115" y="-9"/>
    </contour>
    <contour>
      <point x="613" y="92" type="curve" smooth="yes"/>
      <point x="735" y="92"/>
      <point x="847" y="165"/>
      <point x="869" y="300" type="curve" smooth="yes"/>
      <point x="890" y="430"/>
      <point x="811" y="506"/>
      <point x="686" y="506" type="curve"/>
      <point x="551" y="506"/>
      <point x="436" y="430"/>
      <point x="413" y="300" type="curve" smooth="yes"/>
      <point x="390" y="165"/>
      <point x="484" y="92"/>
    </contour>
    <contour>
      <point x="640" y="244" type="curve"/>
      <point x="605" y="244"/>
      <point x="586" y="265"/>
      <point x="592" y="300" type="curve" smooth="yes"/>
      <point x="598" y="334"/>
      <point x="624" y="355"/>
      <point x="659" y="355" type="curve" smooth="yes"/>
      <point x="694" y="355"/>
      <point x="711" y="334"/>
      <point x="705" y="300" type="curve" smooth="yes"/>
      <point x="699" y="265"/>
      <point x="675" y="244"/>
    </contour>
    <contour>
      <point x="25" y="571" type="line"/>
      <point x="930" y="571" type="line"/>
      <point x="960" y="740" type="line"/>
      <point x="55" y="740" type="line"/>
    </contour>
    <contour>
      <point x="941" y="63" type="curve" smooth="yes"/>
      <point x="1094" y="63"/>
      <point x="1192" y="163"/>
      <point x="1213" y="287" type="curve"/>
      <point x="1161" y="375" type="line"/>
      <point x="1147" y="295"/>
      <point x="1093" y="232"/>
      <point x="1003" y="232" type="curve" smooth="yes"/>
      <point x="926" y="232"/>
      <point x="893" y="276"/>
      <point x="902" y="324" type="curve" smooth="yes"/>
      <point x="904" y="338"/>
      <point x="909" y="351"/>
      <point x="914" y="365" type="curve"/>
      <point x="803" y="309" type="line"/>
      <point x="845" y="309" type="line" smooth="yes"/>
      <point x="997" y="309"/>
      <point x="1055" y="402"/>
      <point x="1072" y="502" type="curve" smooth="yes"/>
      <point x="1090" y="601" type="line"/>
      <point x="889" y="601" type="line"/>
      <point x="878" y="540" type="line" smooth="yes"/>
      <point x="868" y="474"/>
      <point x="849" y="414"/>
      <point x="756" y="414" type="curve" smooth="yes"/>
      <point x="748" y="414" type="line"/>
      <point x="741" y="390"/>
      <point x="735" y="368"/>
      <point x="731" y="345" type="curve" smooth="yes"/>
      <point x="705" y="177"/>
      <point x="770" y="63"/>
    </contour>
    <contour>
      <point x="1095" y="0" type="line"/>
      <point x="1299" y="0" type="line"/>
      <point x="1405" y="601" type="line"/>
      <point x="1201" y="601" type="line"/>
    </contour>
    <contour>
      <point x="685" y="571" type="line"/>
      <point x="1476" y="571" type="line"/>
      <point x="1506" y="740" type="line"/>
      <point x="715" y="740" type="line"/>
    </contour>
  </outline>
</glyph>
<glyph name="dvK_CA" format="2">
  <advance width="1310"/>
  <outline>
    <contour>
      <point x="319" y="0" type="line"/>
      <point x="515" y="0" type="line"/>
      <point x="615" y="571" type="line"/>
      <point x="941" y="571" type="line"/>
      <point x="971" y="740" type="line"/>
      <point x="54" y="740" type="line"/>
      <point x="24" y="571" type="line"/>
      <point x="419" y="571" type="line"/>
    </contour>
    <contour>
      <point x="196" y="43" type="curve" smooth="yes"/>
      <point x="305" y="43"/>
      <point x="376" y="111"/>
      <point x="394" y="217" type="curve"/>
      <point x="367" y="274" type="line"/>
      <point x="361" y="242"/>
      <point x="331" y="215"/>
      <point x="291" y="214" type="curve" smooth="yes"/>
      <point x="251" y="213"/>
      <point x="226" y="241"/>
      <point x="233" y="277" type="curve" smooth="yes"/>
      <point x="239" y="314"/>
      <point x="271" y="341"/>
      <point x="312" y="341" type="curve" smooth="yes"/>
      <point x="351" y="341"/>
      <point x="375" y="314"/>
      <point x="367" y="274" type="curve"/>
      <point x="418" y="343" type="line"/>
      <point x="436" y="443"/>
      <point x="391" y="513"/>
      <point x="277" y="513" type="curve" smooth="yes"/>
      <point x="141" y="513"/>
      <point x="51" y="420"/>
      <point x="27" y="283" type="curve" smooth="yes"/>
      <point x="2" y="146"/>
      <point x="77" y="43"/>
    </contour>
    <contour>
      <point x="824" y="72" type="curve" smooth="yes"/>
      <point x="950" y="72"/>
      <point x="1052" y="143"/>
      <point x="1077" y="286" type="curve"/>
      <point x="1042" y="379" type="line"/>
      <point x="1027" y="293"/>
      <point x="986" y="242"/>
      <point x="918" y="240" type="curve" smooth="yes"/>
      <point x="876" y="239"/>
      <point x="848" y="257"/>
      <point x="854" y="293" type="curve" smooth="yes"/>
      <point x="861" y="328"/>
      <point x="891" y="344"/>
      <point x="919" y="344" type="curve"/>
      <point x="861" y="404" type="line"/>
      <point x="751" y="404"/>
      <point x="672" y="344"/>
      <point x="657" y="255" type="curve" smooth="yes"/>
      <point x="636" y="140"/>
      <point x="710" y="72"/>
    </contour>
    <contour>
      <point x="975" y="0" type="line"/>
      <point x="1179" y="0" type="line"/>
      <point x="1285" y="601" type="line"/>
      <point x="1081" y="601" type="line"/>
    </contour>
    <contour>
      <point x="569" y="571" type="line"/>
      <point x="1356" y="571" type="line"/>
      <point x="1386" y="740" type="line"/>
      <point x="599" y="740" type="line"/>
    </contour>
    <contour>
      <point x="993" y="503" type="line"/>
      <point x="735" y="503" type="line" smooth="yes"/>
      <point x="632" y="502"/>
      <point x="560" y="455"/>
      <point x="541" y="353" type="curve"/>
      <point x="561" y="263" type="line"/>
      <point x="569" y="315"/>
      <point x="600" y="344"/>
      <point x="642" y="344" type="curve" smooth="yes"/>
      <point x="965" y="344" type="line"/>
    </contour>
  </outline>
</glyph>
<glyph name="dvK_SS_M_YA" format="2">
  <advance width="1913"/>
  <outline>
    <contour>
      <point x="289" y="-68" type="line"/>
      <point x="475" y="-68" type="line"/>
      <point x="534" y="268" type="line"/>
      <point x="366" y="268" type="line"/>
      <point x="361" y="238"/>
      <point x="335" y="201"/>
      <point x="292" y="201" type="curve" smooth="yes"/>
      <point x="259" y="201"/>
      <point x="238" y="224"/>
      <point x="244" y="256" type="curve" smooth="yes"/>
      <point x="253" y="306"/>
      <point x="305" y="322"/>
      <point x="388" y="351" type="curve"/>
      <point x="401" y="381" type="line"/>
      <point x="478" y="420"/>
      <point x="558" y="466"/>
      <point x="575" y="563" type="curve" smooth="yes"/>
      <point x="597" y="685"/>
      <point x="510" y="749"/>
      <point x="391" y="749" type="curve" smooth="yes"/>
      <point x="251" y="749"/>
      <point x="139" y="672"/>
      <point x="118" y="555" type="curve" smooth="yes"/>
      <point x="98" y="445"/>
      <point x="166" y="387"/>
      <point x="230" y="370" type="curve"/>
      <point x="364" y="469" type="line"/>
      <point x="308" y="467"/>
      <point x="287" y="496"/>
      <point x="293" y="528" type="curve" smooth="yes"/>
      <point x="298" y="556"/>
      <point x="324" y="576"/>
      <point x="355" y="576" type="curve" smooth="yes"/>
      <point x="393" y="576"/>
      <point x="405" y="549"/>
      <point x="401" y="525" type="curve" smooth="yes"/>
      <point x="380" y="409"/>
      <point x="65" y="430"/>
      <point x="26" y="210" type="curve" smooth="yes"/>
      <point x="7" y="102"/>
      <point x="76" y="33"/>
      <point x="187" y="33" type="curve" smooth="yes"/>
      <point x="236" y="33"/>
      <point x="282" y="47"/>
      <point x="314" y="75" type="curve"/>
    </contour>
    <contour>
      <point x="212" y="321" type="line"/>
      <point x="717" y="321" type="line"/>
      <point x="941" y="458" type="line"/>
      <point x="425" y="458" type="line"/>
    </contour>
    <contour>
      <point x="804" y="23" type="curve" smooth="yes"/>
      <point x="962" y="23"/>
      <point x="1059" y="118"/>
      <point x="1085" y="264" type="curve" smooth="yes"/>
      <point x="1148" y="618" type="line"/>
      <point x="958" y="618" type="line"/>
      <point x="893" y="253" type="line" smooth="yes"/>
      <point x="887" y="221"/>
      <point x="869" y="195"/>
      <point x="832" y="195" type="curve" smooth="yes"/>
      <point x="808" y="195"/>
      <point x="785" y="210"/>
      <point x="791" y="243" type="curve" smooth="yes"/>
      <point x="797" y="276"/>
      <point x="826" y="292"/>
      <point x="862" y="292" type="curve" smooth="yes"/>
      <point x="1297" y="292" type="line"/>
      <point x="1326" y="458" type="line"/>
      <point x="885" y="458" type="line" smooth="yes"/>
      <point x="753" y="458"/>
      <point x="628" y="392"/>
      <point x="602" y="242" type="curve" smooth="yes"/>
      <point x="579" y="111"/>
      <point x="659" y="23"/>
    </contour>
    <contour>
      <point x="659" y="571" type="line"/>
      <point x="1515" y="571" type="line"/>
      <point x="1545" y="740" type="line"/>
      <point x="689" y="740" type="line"/>
    </contour>
    <contour>
      <point x="1421" y="69" type="curve" smooth="yes"/>
      <point x="1578" y="69"/>
      <point x="1670" y="165"/>
      <point x="1696" y="293" type="curve"/>
      <point x="1644" y="381" type="line"/>
      <point x="1630" y="301"/>
      <point x="1576" y="238"/>
      <point x="1486" y="238" type="curve" smooth="yes"/>
      <point x="1409" y="238"/>
      <point x="1375" y="282"/>
      <point x="1385" y="330" type="curve" smooth="yes"/>
      <point x="1388" y="344"/>
      <point x="1392" y="357"/>
      <point x="1397" y="371" type="curve"/>
      <point x="1286" y="315" type="line"/>
      <point x="1328" y="315" type="line" smooth="yes"/>
      <point x="1457" y="315"/>
      <point x="1533" y="379"/>
      <point x="1555" y="502" type="curve" smooth="yes"/>
      <point x="1573" y="601" type="line"/>
      <point x="1372" y="601" type="line"/>
      <point x="1361" y="540" type="line" smooth="yes"/>
      <point x="1353" y="494"/>
      <point x="1335" y="458"/>
      <point x="1265" y="458" type="curve" smooth="yes"/>
      <point x="1209" y="458" type="line"/>
      <point x="1200" y="422"/>
      <point x="1193" y="386"/>
      <point x="1187" y="351" type="curve" smooth="yes"/>
      <point x="1158" y="180"/>
      <point x="1256" y="69"/>
    </contour>
    <contour>
      <point x="1578" y="0" type="line"/>
      <point x="1782" y="0" type="line"/>
      <point x="1888" y="601" type="line"/>
      <point x="1684" y="601" type="line"/>
    </contour>
    <contour>
      <point x="1168" y="571" type="line"/>
      <point x="1959" y="571" type="line"/>
      <point x="1989" y="740" type="line"/>
      <point x="1198" y="740" type="line"/>
    </contour>
  </outline>
</glyph>
<glyph name="dvK_SS_YA" format="2">
  <advance width="1345"/>
  <outline>
    <contour>
      <point x="857" y="63" type="curve" smooth="yes"/>
      <point x="1011" y="63"/>
      <point x="1106" y="159"/>
      <point x="1129" y="287" type="curve"/>
      <point x="1076" y="375" type="line"/>
      <point x="1062" y="295"/>
      <point x="1009" y="232"/>
      <point x="918" y="232" type="curve" smooth="yes"/>
      <point x="841" y="232"/>
      <point x="810" y="285"/>
      <point x="820" y="342" type="curve" smooth="yes"/>
      <point x="823" y="356"/>
      <point x="827" y="369"/>
      <point x="832" y="383" type="curve"/>
      <point x="722" y="321" type="line"/>
      <point x="734" y="321" type="line" smooth="yes"/>
      <point x="904" y="321"/>
      <point x="976" y="430"/>
      <point x="995" y="539" type="curve" smooth="yes"/>
      <point x="1006" y="601" type="line"/>
      <point x="804" y="601" type="line"/>
      <point x="793" y="539" type="line" smooth="yes"/>
      <point x="785" y="495"/>
      <point x="743" y="458"/>
      <point x="680" y="458" type="curve" smooth="yes"/>
      <point x="644" y="458" type="line"/>
      <point x="634" y="420"/>
      <point x="625" y="381"/>
      <point x="619" y="344" type="curve" smooth="yes"/>
      <point x="588" y="174"/>
      <point x="686" y="63"/>
    </contour>
    <contour>
      <point x="1010" y="0" type="line"/>
      <point x="1215" y="0" type="line"/>
      <point x="1321" y="601" type="line"/>
      <point x="1116" y="601" type="line"/>
    </contour>
    <contour>
      <point x="654" y="571" type="line"/>
      <point x="1392" y="571" type="line"/>
      <point x="1421" y="740" type="line"/>
      <point x="683" y="740" type="line"/>
    </contour>
    <contour>
      <point x="289" y="-68" type="line"/>
      <point x="475" y="-68" type="line"/>
      <point x="534" y="268" type="line"/>
      <point x="366" y="268" type="line"/>
      <point x="361" y="238"/>
      <point x="335" y="201"/>
      <point x="292" y="201" type="curve" smooth="yes"/>
      <point x="259" y="201"/>
      <point x="238" y="224"/>
      <point x="244" y="256" type="curve" smooth="yes"/>
      <point x="253" y="306"/>
      <point x="305" y="322"/>
      <point x="388" y="351" type="curve"/>
      <point x="401" y="381" type="line"/>
      <point x="478" y="420"/>
      <point x="558" y="466"/>
      <point x="575" y="563" type="curve" smooth="yes"/>
      <point x="597" y="685"/>
      <point x="510" y="749"/>
      <point x="391" y="749" type="curve" smooth="yes"/>
      <point x="251" y="749"/>
      <point x="139" y="672"/>
      <point x="118" y="555" type="curve" smooth="yes"/>
      <point x="98" y="445"/>
      <point x="166" y="387"/>
      <point x="230" y="370" type="curve"/>
      <point x="364" y="469" type="line"/>
      <point x="308" y="467"/>
      <point x="287" y="496"/>
      <point x="293" y="528" type="curve" smooth="yes"/>
      <point x="298" y="556"/>
      <point x="324" y="576"/>
      <point x="355" y="576" type="curve" smooth="yes"/>
      <point x="393" y="576"/>
      <point x="405" y="549"/>
      <point x="401" y="525" type="curve" smooth="yes"/>
      <point x="380" y="409"/>
      <point x="65" y="430"/>
      <point x="26" y="210" type="curve" smooth="yes"/>
      <point x="7" y="102"/>
      <point x="76" y="33"/>
      <point x="187" y="33" type="curve" smooth="yes"/>
      <point x="236" y="33"/>
      <point x="282" y="47"/>
      <point x="314" y="75" type="curve"/>
    </contour>
    <contour>
      <point x="212" y="321" type="line"/>
      <point x="717" y="321" type="line"/>
      <point x="742" y="458" type="line"/>
      <point x="425" y="458" type="line"/>
    </contour>
  </outline>
</glyph>
<glyph name="dvK_THA" format="2">
  <advance width="1460"/>
  <outline>
    <contour>
      <point x="319" y="0" type="line"/>
      <point x="515" y="0" type="line"/>
      <point x="615" y="571" type="line"/>
      <point x="919" y="571" type="line"/>
      <point x="971" y="740" type="line"/>
      <point x="54" y="740" type="line"/>
      <point x="24" y="571" type="line"/>
      <point x="419" y="571" type="line"/>
    </contour>
    <contour>
      <point x="196" y="43" type="curve" smooth="yes"/>
      <point x="305" y="43"/>
      <point x="376" y="111"/>
      <point x="394" y="217" type="curve"/>
      <point x="367" y="274" type="line"/>
      <point x="361" y="242"/>
      <point x="331" y="215"/>
      <point x="291" y="214" type="curve" smooth="yes"/>
      <point x="251" y="213"/>
      <point x="226" y="241"/>
      <point x="233" y="277" type="curve" smooth="yes"/>
      <point x="239" y="314"/>
      <point x="271" y="341"/>
      <point x="312" y="341" type="curve" smooth="yes"/>
      <point x="351" y="341"/>
      <point x="375" y="314"/>
      <point x="367" y="274" type="curve"/>
      <point x="418" y="343" type="line"/>
      <point x="436" y="443"/>
      <point x="391" y="513"/>
      <point x="277" y="513" type="curve" smooth="yes"/>
      <point x="141" y="513"/>
      <point x="51" y="420"/>
      <point x="27" y="283" type="curve" smooth="yes"/>
      <point x="2" y="146"/>
      <point x="77" y="43"/>
    </contour>
    <contour>
      <point x="540" y="353" type="curve"/>
      <point x="561" y="263" type="line"/>
      <point x="569" y="312"/>
      <point x="593" y="340"/>
      <point x="631" y="340" type="curve" smooth="yes"/>
      <point x="665" y="340"/>
      <point x="679" y="316"/>
      <point x="682" y="276" type="curve"/>
      <point x="872" y="374" type="line"/>
      <point x="864" y="449"/>
      <point x="822" y="503"/>
      <point x="728" y="503" type="curve" smooth="yes"/>
      <point x="628" y="503"/>
      <point x="556" y="440"/>
    </contour>
    <contour>
      <point x="1125" y="0" type="line"/>
      <point x="1329" y="0" type="line"/>
      <point x="1430" y="571" type="line"/>
      <point x="1507" y="571" type="line"/>
      <point x="1536" y="740" type="line"/>
      <point x="1255" y="740" type="line"/>
      <point x="1203" y="444" type="line" smooth="yes"/>
      <point x="1179" y="305"/>
      <point x="1087" y="240"/>
      <point x="988" y="240" type="curve" smooth="yes"/>
      <point x="893" y="240"/>
      <point x="875" y="291"/>
      <point x="877" y="321" type="curve"/>
      <point x="781" y="307" type="line"/>
      <point x="803" y="305"/>
      <point x="826" y="304"/>
      <point x="847" y="304" type="curve" smooth="yes"/>
      <point x="1046" y="304"/>
      <point x="1144" y="408"/>
      <point x="1166" y="533" type="curve" smooth="yes"/>
      <point x="1190" y="668"/>
      <point x="1113" y="749"/>
      <point x="985" y="749" type="curve" smooth="yes"/>
      <point x="854" y="749"/>
      <point x="767" y="670"/>
      <point x="739" y="571" type="curve"/>
      <point x="933" y="571" type="line"/>
      <point x="938" y="574"/>
      <point x="944" y="576"/>
      <point x="951" y="576" type="curve" smooth="yes"/>
      <point x="970" y="576"/>
      <point x="980" y="560"/>
      <point x="976" y="539" type="curve" smooth="yes"/>
      <point x="964" y="471"/>
      <point x="894" y="448"/>
      <point x="788" y="448" type="curve" smooth="yes"/>
      <point x="708" y="448" type="line"/>
      <point x="698" y="419"/>
      <point x="692" y="391"/>
      <point x="687" y="364" type="curve" smooth="yes"/>
      <point x="655" y="181"/>
      <point x="756" y="72"/>
      <point x="928" y="72" type="curve" smooth="yes"/>
      <point x="1032" y="72"/>
      <point x="1113" y="115"/>
      <point x="1154" y="165" type="curve"/>
    </contour>
  </outline>
</glyph>
<glyph name="dvK_T_RA" format="2">
  <advance width="1372"/>
  <outline>
    <contour>
      <point x="319" y="0" type="line"/>
      <point x="515" y="0" type="line"/>
      <point x="615" y="571" type="line"/>
      <point x="941" y="571" type="line"/>
      <point x="971" y="740" type="line"/>
      <point x="54" y="740" type="line"/>
      <point x="24" y="571" type="line"/>
      <point x="419" y="571" type="line"/>
    </contour>
    <contour>
      <point x="196" y="43" type="curve" smooth="yes"/>
      <point x="305" y="43"/>
      <point x="376" y="111"/>
      <point x="394" y="217" type="curve"/>
      <point x="367" y="274" type="line"/>
      <point x="361" y="242"/>
      <point x="331" y="215"/>
      <point x="291" y="214" type="curve" smooth="yes"/>
      <point x="251" y="213"/>
      <point x="226" y="241"/>
      <point x="233" y="277" type="curve" smooth="yes"/>
      <point x="239" y="314"/>
      <point x="271" y="341"/>
      <point x="312" y="341" type="curve" smooth="yes"/>
      <point x="351" y="341"/>
      <point x="375" y="314"/>
      <point x="367" y="274" type="curve"/>
      <point x="418" y="343" type="line"/>
      <point x="436" y="443"/>
      <point x="391" y="513"/>
      <point x="277" y="513" type="curve" smooth="yes"/>
      <point x="141" y="513"/>
      <point x="51" y="420"/>
      <point x="27" y="283" type="curve" smooth="yes"/>
      <point x="2" y="146"/>
      <point x="77" y="43"/>
    </contour>
    <contour>
      <point x="675" y="246" type="curve"/>
      <point x="846" y="246" type="line"/>
      <point x="894" y="400"/>
      <point x="843" y="513"/>
      <point x="725" y="513" type="curve" smooth="yes"/>
      <point x="628" y="513"/>
      <point x="558" y="449"/>
      <point x="541" y="353" type="curve"/>
      <point x="562" y="269" type="line"/>
      <point x="570" y="314"/>
      <point x="593" y="340"/>
      <point x="630" y="340" type="curve" smooth="yes"/>
      <point x="671" y="340"/>
      <point x="684" y="306"/>
    </contour>
    <contour>
      <point x="647" y="1" type="line"/>
      <point x="914" y="1" type="line"/>
      <point x="1132" y="179" type="line"/>
      <point x="1085" y="227" type="line"/>
      <point x="1045" y="0" type="line"/>
      <point x="1242" y="0" type="line"/>
      <point x="1345" y="587" type="line"/>
      <point x="1145" y="587" type="line"/>
      <point x="1124" y="466" type="line"/>
      <point x="1091" y="493"/>
      <point x="1042" y="510"/>
      <point x="981" y="510" type="curve" smooth="yes"/>
      <point x="813" y="510"/>
      <point x="698" y="401"/>
      <point x="675" y="246" type="curve"/>
      <point x="879" y="246" type="line"/>
      <point x="891" y="315"/>
      <point x="944" y="350"/>
      <point x="1006" y="350" type="curve" smooth="yes"/>
      <point x="1047" y="350"/>
      <point x="1084" y="331"/>
      <point x="1098" y="303" type="curve"/>
      <point x="1165" y="390" type="line"/>
      <point x="648" y="9" type="line"/>
    </contour>
    <contour>
      <point x="676" y="571" type="line"/>
      <point x="1418" y="571" type="line"/>
      <point x="1448" y="740" type="line"/>
      <point x="706" y="740" type="line"/>
    </contour>
  </outline>
</glyph>
<glyph name="dvL_BHA" format="2">
  <advance width="1518"/>
  <outline>
    <contour>
      <point x="852" y="36" type="curve" smooth="yes"/>
      <point x="1011" y="36"/>
      <point x="1108" y="131"/>
      <point x="1133" y="277" type="curve" smooth="yes"/>
      <point x="1171" y="496" type="line" smooth="yes"/>
      <point x="1195" y="633"/>
      <point x="1162" y="749"/>
      <point x="987" y="749" type="curve" smooth="yes"/>
      <point x="842" y="749"/>
      <point x="758" y="672"/>
      <point x="731" y="571" type="curve"/>
      <point x="948" y="571" type="line"/>
      <point x="952" y="573"/>
      <point x="958" y="576"/>
      <point x="965" y="576" type="curve" smooth="yes"/>
      <point x="988" y="576"/>
      <point x="992" y="558"/>
      <point x="988" y="534" type="curve" smooth="yes"/>
      <point x="941" y="266" type="line" smooth="yes"/>
      <point x="935" y="234"/>
      <point x="917" y="208"/>
      <point x="880" y="208" type="curve" smooth="yes"/>
      <point x="853" y="208"/>
      <point x="833" y="223"/>
      <point x="839" y="256" type="curve" smooth="yes"/>
      <point x="845" y="289"/>
      <point x="874" y="305"/>
      <point x="910" y="305" type="curve" smooth="yes"/>
      <point x="1344" y="305" type="line"/>
      <point x="1373" y="471" type="line"/>
      <point x="934" y="471" type="line" smooth="yes"/>
      <point x="801" y="471"/>
      <point x="676" y="405"/>
      <point x="650" y="255" type="curve" smooth="yes"/>
      <point x="627" y="122"/>
      <point x="707" y="36"/>
    </contour>
    <contour>
      <point x="254" y="5" type="curve" smooth="yes"/>
      <point x="261" y="5"/>
      <point x="270" y="5"/>
      <point x="284" y="6" type="curve"/>
      <point x="316" y="183" type="line"/>
      <point x="308" y="182"/>
      <point x="301" y="181"/>
      <point x="294" y="181" type="curve" smooth="yes"/>
      <point x="246" y="181"/>
      <point x="220" y="209"/>
      <point x="229" y="261" type="curve" smooth="yes"/>
      <point x="237" y="305"/>
      <point x="265" y="333"/>
      <point x="306" y="333" type="curve" smooth="yes"/>
      <point x="355" y="333"/>
      <point x="361" y="291"/>
      <point x="355" y="256" type="curve" smooth="yes"/>
      <point x="350" y="227" type="line"/>
      <point x="518" y="227" type="line"/>
      <point x="523" y="256" type="line" smooth="yes"/>
      <point x="529" y="291"/>
      <point x="551" y="333"/>
      <point x="600" y="333" type="curve" smooth="yes"/>
      <point x="629" y="333"/>
      <point x="662" y="313"/>
      <point x="650" y="255" type="curve"/>
      <point x="804" y="265" type="line"/>
      <point x="831" y="431"/>
      <point x="758" y="511"/>
      <point x="646" y="511" type="curve" smooth="yes"/>
      <point x="563" y="511"/>
      <point x="503" y="474"/>
      <point x="467" y="418" type="curve"/>
      <point x="464" y="418" type="line"/>
      <point x="443" y="472"/>
      <point x="390" y="512"/>
      <point x="301" y="512" type="curve" smooth="yes"/>
      <point x="185" y="512"/>
      <point x="55" y="449"/>
      <point x="25" y="273" type="curve" smooth="yes"/>
      <point x="-1" y="122"/>
      <point x="77" y="5"/>
    </contour>
    <contour>
      <point x="24" y="571" type="line"/>
      <point x="913" y="571" type="line"/>
      <point x="943" y="740" type="line"/>
      <point x="54" y="740" type="line"/>
    </contour>
    <contour>
      <point x="1182" y="0" type="line"/>
      <point x="1386" y="0" type="line"/>
      <point x="1487" y="571" type="line"/>
      <point x="1565" y="571" type="line"/>
      <point x="1594" y="740" type="line"/>
      <point x="1312" y="740" type="line"/>
    </contour>
  </outline>
</glyph>
<glyph name="dvL_LA" format="2">
  <advance width="1548"/>
  <anchor x="1464" y="740" name="abvm.e"/>
  <anchor x="1320" y="-89" name="blwm.u"/>
  <anchor x="1319" y="5" name="blwm.virama"/>
  <outline>
    <contour>
      <point x="254" y="5" type="curve" smooth="yes"/>
      <point x="261" y="5"/>
      <point x="270" y="5"/>
      <point x="284" y="6" type="curve"/>
      <point x="316" y="183" type="line"/>
      <point x="308" y="182"/>
      <point x="301" y="181"/>
      <point x="294" y="181" type="curve" smooth="yes"/>
      <point x="246" y="181"/>
      <point x="220" y="209"/>
      <point x="229" y="261" type="curve" smooth="yes"/>
      <point x="237" y="305"/>
      <point x="264" y="333"/>
      <point x="305" y="333" type="curve" smooth="yes"/>
      <point x="354" y="333"/>
      <point x="362" y="291"/>
      <point x="355" y="256" type="curve" smooth="yes"/>
      <point x="350" y="227" type="line"/>
      <point x="518" y="227" type="line"/>
      <point x="523" y="256" type="line" smooth="yes"/>
      <point x="530" y="291"/>
      <point x="551" y="333"/>
      <point x="600" y="333" type="curve" smooth="yes"/>
      <point x="629" y="333"/>
      <point x="661" y="314"/>
      <point x="651" y="261" type="curve"/>
      <point x="819" y="265" type="line"/>
      <point x="849" y="431"/>
      <point x="769" y="511"/>
      <point x="646" y="511" type="curve" smooth="yes"/>
      <point x="563" y="511"/>
      <point x="503" y="474"/>
      <point x="467" y="418" type="curve"/>
      <point x="464" y="418" type="line"/>
      <point x="443" y="472"/>
      <point x="390" y="512"/>
      <point x="301" y="512" type="curve" smooth="yes"/>
      <point x="185" y="512"/>
      <point x="55" y="449"/>
      <point x="25" y="273" type="curve" smooth="yes"/>
      <point x="-3" y="122"/>
      <point x="77" y="5"/>
    </contour>
    <contour>
      <point x="24" y="571" type="line"/>
      <point x="913" y="571" type="line"/>
      <point x="943" y="740" type="line"/>
      <point x="54" y="740" type="line"/>
    </contour>
    <component base="dvLA" xOffset="628"/>
  </outline>
</glyph>
<glyph name="dvL_THA" format="2">
  <advance width="1432"/>
  <outline>
    <contour>
      <point x="1094" y="0" type="line"/>
      <point x="1298" y="0" type="line"/>
      <point x="1399" y="571" type="line"/>
      <point x="1476" y="571" type="line"/>
      <point x="1505" y="740" type="line"/>
      <point x="1224" y="740" type="line"/>
      <point x="1172" y="444" type="line" smooth="yes"/>
      <point x="1148" y="305"/>
      <point x="1056" y="240"/>
      <point x="957" y="240" type="curve" smooth="yes"/>
      <point x="862" y="240"/>
      <point x="844" y="291"/>
      <point x="846" y="321" type="curve"/>
      <point x="750" y="307" type="line"/>
      <point x="772" y="305"/>
      <point x="795" y="304"/>
      <point x="816" y="304" type="curve" smooth="yes"/>
      <point x="1015" y="304"/>
      <point x="1113" y="408"/>
      <point x="1135" y="533" type="curve" smooth="yes"/>
      <point x="1159" y="668"/>
      <point x="1082" y="749"/>
      <point x="954" y="749" type="curve" smooth="yes"/>
      <point x="823" y="749"/>
      <point x="736" y="671"/>
      <point x="707" y="571" type="curve"/>
      <point x="901" y="571" type="line"/>
      <point x="906" y="575"/>
      <point x="912" y="576"/>
      <point x="920" y="576" type="curve" smooth="yes"/>
      <point x="939" y="576"/>
      <point x="949" y="560"/>
      <point x="945" y="539" type="curve" smooth="yes"/>
      <point x="933" y="471"/>
      <point x="863" y="448"/>
      <point x="757" y="448" type="curve" smooth="yes"/>
      <point x="677" y="448" type="line"/>
      <point x="667" y="419"/>
      <point x="661" y="391"/>
      <point x="656" y="364" type="curve" smooth="yes"/>
      <point x="624" y="181"/>
      <point x="725" y="72"/>
      <point x="897" y="72" type="curve" smooth="yes"/>
      <point x="1001" y="72"/>
      <point x="1082" y="115"/>
      <point x="1123" y="165" type="curve"/>
    </contour>
    <contour>
      <point x="254" y="5" type="curve" smooth="yes"/>
      <point x="261" y="5"/>
      <point x="270" y="5"/>
      <point x="284" y="6" type="curve"/>
      <point x="316" y="183" type="line"/>
      <point x="308" y="182"/>
      <point x="301" y="181"/>
      <point x="294" y="181" type="curve" smooth="yes"/>
      <point x="246" y="181"/>
      <point x="220" y="209"/>
      <point x="229" y="261" type="curve" smooth="yes"/>
      <point x="237" y="305"/>
      <point x="265" y="333"/>
      <point x="306" y="333" type="curve" smooth="yes"/>
      <point x="355" y="333"/>
      <point x="362" y="291"/>
      <point x="355" y="256" type="curve" smooth="yes"/>
      <point x="350" y="227" type="line"/>
      <point x="518" y="227" type="line"/>
      <point x="523" y="256" type="line" smooth="yes"/>
      <point x="530" y="291"/>
      <point x="551" y="333"/>
      <point x="600" y="333" type="curve" smooth="yes"/>
      <point x="630" y="333"/>
      <point x="649" y="314"/>
      <point x="651" y="277" type="curve"/>
      <point x="834" y="263" type="line"/>
      <point x="856" y="432"/>
      <point x="755" y="512"/>
      <point x="656" y="512" type="curve" smooth="yes"/>
      <point x="568" y="512"/>
      <point x="505" y="475"/>
      <point x="467" y="418" type="curve"/>
      <point x="464" y="418" type="line"/>
      <point x="443" y="472"/>
      <point x="390" y="512"/>
      <point x="301" y="512" type="curve" smooth="yes"/>
      <point x="185" y="512"/>
      <point x="55" y="449"/>
      <point x="25" y="273" type="curve" smooth="yes"/>
      <point x="-3" y="122"/>
      <point x="77" y="5"/>
    </contour>
    <contour>
      <point x="24" y="571" type="line"/>
      <point x="893" y="571" type="line"/>
      <point x="943" y="740" type="line"/>
      <point x="54" y="740" type="line"/>
    </contour>
  </outline>
</glyph>
<glyph name="dvL_V_DDA" format="2">
  <advance width="1778"/>
  <anchor x="1760" y="740" name="abvm.e"/>
  <anchor x="1545" y="-124" name="blwm.u"/>
  <anchor x="1548" y="-24" name="blwm.virama"/>
  <outline>
    <contour>
      <point x="254" y="5" type="curve" smooth="yes"/>
      <point x="261" y="5"/>
      <point x="270" y="5"/>
      <point x="284" y="6" type="curve"/>
      <point x="316" y="183" type="line"/>
      <point x="308" y="182"/>
      <point x="301" y="181"/>
      <point x="294" y="181" type="curve" smooth="yes"/>
      <point x="246" y="181"/>
      <point x="220" y="209"/>
      <point x="229" y="261" type="curve" smooth="yes"/>
      <point x="237" y="305"/>
      <point x="265" y="333"/>
      <point x="306" y="333" type="curve" smooth="yes"/>
      <point x="355" y="333"/>
      <point x="362" y="291"/>
      <point x="355" y="256" type="curve" smooth="yes"/>
      <point x="350" y="227" type="line"/>
      <point x="518" y="227" type="line"/>
      <point x="523" y="256" type="line" smooth="yes"/>
      <point x="530" y="291"/>
      <point x="551" y="333"/>
      <point x="600" y="333" type="curve" smooth="yes"/>
      <point x="636" y="333"/>
      <point x="657" y="310"/>
      <point x="653" y="271" type="curve"/>
      <point x="811" y="261" type="line"/>
      <point x="858" y="444"/>
      <point x="745" y="512"/>
      <point x="654" y="512" type="curve" smooth="yes"/>
      <point x="567" y="512"/>
      <point x="509" y="475"/>
      <point x="467" y="418" type="curve"/>
      <point x="464" y="418" type="line"/>
      <point x="443" y="472"/>
      <point x="390" y="512"/>
      <point x="301" y="512" type="curve" smooth="yes"/>
      <point x="185" y="512"/>
      <point x="55" y="449"/>
      <point x="25" y="273" type="curve" smooth="yes"/>
      <point x="-3" y="122"/>
      <point x="77" y="5"/>
    </contour>
    <contour>
      <point x="24" y="571" type="line"/>
      <point x="913" y="571" type="line"/>
      <point x="943" y="740" type="line"/>
      <point x="54" y="740" type="line"/>
    </contour>
    <contour>
      <point x="897" y="41" type="curve" smooth="yes"/>
      <point x="1082" y="41"/>
      <point x="1186" y="137"/>
      <point x="1207" y="265" type="curve" smooth="yes"/>
      <point x="1230" y="394"/>
      <point x="1147" y="517"/>
      <point x="961" y="517" type="curve" smooth="yes"/>
      <point x="781" y="517"/>
      <point x="678" y="422"/>
      <point x="656" y="292" type="curve" smooth="yes"/>
      <point x="631" y="157"/>
      <point x="717" y="41"/>
    </contour>
    <contour>
      <point x="921" y="201" type="curve" smooth="yes"/>
      <point x="870" y="201"/>
      <point x="844" y="235"/>
      <point x="851" y="279" type="curve" smooth="yes"/>
      <point x="858" y="323"/>
      <point x="897" y="358"/>
      <point x="948" y="358" type="curve" smooth="yes"/>
      <point x="996" y="358"/>
      <point x="1024" y="326"/>
      <point x="1016" y="280" type="curve" smooth="yes"/>
      <point x="1008" y="234"/>
      <point x="969" y="201"/>
    </contour>
    <contour>
      <point x="654" y="571" type="line"/>
      <point x="1262" y="571" type="line"/>
      <point x="1292" y="740" type="line"/>
      <point x="684" y="740" type="line"/>
    </contour>
    <component base="dvDDA" xOffset="1216"/>
  </outline>
</glyph>
<glyph name="dvM_YA" format="2">
  <advance width="1323"/>
  <outline>
    <contour>
      <point x="214" y="17" type="curve" smooth="yes"/>
      <point x="372" y="17"/>
      <point x="469" y="112"/>
      <point x="495" y="258" type="curve" smooth="yes"/>
      <point x="558" y="618" type="line"/>
      <point x="368" y="618" type="line"/>
      <point x="303" y="247" type="line" smooth="yes"/>
      <point x="297" y="215"/>
      <point x="279" y="189"/>
      <point x="242" y="189" type="curve" smooth="yes"/>
      <point x="218" y="189"/>
      <point x="195" y="204"/>
      <point x="201" y="237" type="curve" smooth="yes"/>
      <point x="207" y="270"/>
      <point x="236" y="286"/>
      <point x="272" y="286" type="curve" smooth="yes"/>
      <point x="707" y="286" type="line"/>
      <point x="736" y="452" type="line"/>
      <point x="295" y="452" type="line" smooth="yes"/>
      <point x="163" y="452"/>
      <point x="38" y="386"/>
      <point x="12" y="236" type="curve" smooth="yes"/>
      <point x="-11" y="105"/>
      <point x="69" y="17"/>
    </contour>
    <contour>
      <point x="24" y="571" type="line"/>
      <point x="756" y="571" type="line"/>
      <point x="786" y="740" type="line"/>
      <point x="54" y="740" type="line"/>
    </contour>
    <contour>
      <point x="831" y="63" type="curve" smooth="yes"/>
      <point x="988" y="63"/>
      <point x="1080" y="159"/>
      <point x="1106" y="287" type="curve"/>
      <point x="1054" y="375" type="line"/>
      <point x="1040" y="295"/>
      <point x="986" y="232"/>
      <point x="896" y="232" type="curve" smooth="yes"/>
      <point x="819" y="232"/>
      <point x="786" y="276"/>
      <point x="795" y="324" type="curve" smooth="yes"/>
      <point x="797" y="338"/>
      <point x="802" y="351"/>
      <point x="807" y="365" type="curve"/>
      <point x="696" y="309" type="line"/>
      <point x="738" y="309" type="line" smooth="yes"/>
      <point x="867" y="309"/>
      <point x="943" y="379"/>
      <point x="965" y="502" type="curve" smooth="yes"/>
      <point x="983" y="601" type="line"/>
      <point x="782" y="601" type="line"/>
      <point x="771" y="540" type="line" smooth="yes"/>
      <point x="763" y="494"/>
      <point x="745" y="452"/>
      <point x="675" y="452" type="curve" smooth="yes"/>
      <point x="619" y="452" type="line"/>
      <point x="610" y="416"/>
      <point x="603" y="380"/>
      <point x="597" y="345" type="curve" smooth="yes"/>
      <point x="565" y="174"/>
      <point x="666" y="63"/>
    </contour>
    <contour>
      <point x="988" y="0" type="line"/>
      <point x="1192" y="0" type="line"/>
      <point x="1298" y="601" type="line"/>
      <point x="1094" y="601" type="line"/>
    </contour>
    <contour>
      <point x="578" y="571" type="line"/>
      <point x="1369" y="571" type="line"/>
      <point x="1399" y="740" type="line"/>
      <point x="608" y="740" type="line"/>
    </contour>
  </outline>
</glyph>
<glyph name="dvNY_SHA" format="2">
  <advance width="1413"/>
  <outline>
    <contour>
      <point x="224" y="31" type="curve" smooth="yes"/>
      <point x="362" y="31"/>
      <point x="480" y="117"/>
      <point x="508" y="274" type="curve" smooth="yes"/>
      <point x="535" y="431"/>
      <point x="448" y="518"/>
      <point x="310" y="518" type="curve" smooth="yes"/>
      <point x="180" y="518"/>
      <point x="61" y="445"/>
      <point x="31" y="308" type="curve"/>
      <point x="223" y="308" type="line"/>
      <point x="237" y="338"/>
      <point x="264" y="345"/>
      <point x="281" y="345" type="curve" smooth="yes"/>
      <point x="317" y="345"/>
      <point x="332" y="313"/>
      <point x="325" y="274" type="curve" smooth="yes"/>
      <point x="318" y="233"/>
      <point x="292" y="202"/>
      <point x="256" y="202" type="curve" smooth="yes"/>
      <point x="239" y="202"/>
      <point x="214" y="209"/>
      <point x="211" y="240" type="curve"/>
      <point x="19" y="240" type="line"/>
      <point x="1" y="103"/>
      <point x="94" y="31"/>
    </contour>
    <contour>
      <point x="421" y="196" type="line"/>
      <point x="661" y="196" type="line"/>
      <point x="691" y="367" type="line"/>
      <point x="451" y="367" type="line"/>
    </contour>
    <contour>
      <point x="24" y="571" type="line"/>
      <point x="818" y="571" type="line"/>
      <point x="849" y="740" type="line"/>
      <point x="54" y="740" type="line"/>
    </contour>
    <component base="dvSHA" xOffset="531"/>
  </outline>
</glyph>
<glyph name="dvN_BH_VA" format="2">
  <advance width="1742"/>
  <outline>
    <contour>
      <point x="232" y="20" type="curve" smooth="yes"/>
      <point x="348" y="20"/>
      <point x="452" y="85"/>
      <point x="476" y="218" type="curve" smooth="yes"/>
      <point x="492" y="308"/>
      <point x="450" y="364"/>
      <point x="426" y="389" type="curve"/>
      <point x="374" y="303" type="line"/>
      <point x="687" y="303" type="line"/>
      <point x="924" y="472" type="line"/>
      <point x="310" y="472" type="line" smooth="yes"/>
      <point x="171" y="472"/>
      <point x="50" y="411"/>
      <point x="22" y="259" type="curve" smooth="yes"/>
      <point x="-3" y="121"/>
      <point x="94" y="20"/>
    </contour>
    <contour>
      <point x="254" y="191" type="curve" smooth="yes"/>
      <point x="220" y="191"/>
      <point x="200" y="214"/>
      <point x="206" y="247" type="curve" smooth="yes"/>
      <point x="212" y="279"/>
      <point x="240" y="303"/>
      <point x="274" y="303" type="curve" smooth="yes"/>
      <point x="307" y="303"/>
      <point x="325" y="279"/>
      <point x="320" y="247" type="curve" smooth="yes"/>
      <point x="315" y="214"/>
      <point x="287" y="191"/>
    </contour>
    <contour>
      <point x="24" y="571" type="line"/>
      <point x="780" y="571" type="line"/>
      <point x="849" y="740" type="line"/>
      <point x="53" y="740" type="line"/>
    </contour>
    <component base="dvBH_VA" xOffset="527"/>
  </outline>
</glyph>
<glyph name="dvN_CA" format="2">
  <advance width="1206"/>
  <outline>
    <contour>
      <point x="465" y="571" type="line"/>
      <point x="1252" y="571" type="line"/>
      <point x="1282" y="740" type="line"/>
      <point x="495" y="740" type="line"/>
    </contour>
    <contour>
      <point x="720" y="72" type="curve" smooth="yes"/>
      <point x="845" y="72"/>
      <point x="948" y="143"/>
      <point x="973" y="286" type="curve"/>
      <point x="938" y="379" type="line"/>
      <point x="922" y="293"/>
      <point x="886" y="240"/>
      <point x="809" y="240" type="curve" smooth="yes"/>
      <point x="770" y="240"/>
      <point x="744" y="255"/>
      <point x="749" y="287" type="curve" smooth="yes"/>
      <point x="754" y="315"/>
      <point x="778" y="332"/>
      <point x="813" y="332" type="curve"/>
      <point x="755" y="392" type="line"/>
      <point x="644" y="392"/>
      <point x="565" y="330"/>
      <point x="551" y="249" type="curve" smooth="yes"/>
      <point x="531" y="138"/>
      <point x="596" y="72"/>
    </contour>
    <contour>
      <point x="485" y="332" type="line"/>
      <point x="859" y="332" type="line"/>
      <point x="887" y="491" type="line"/>
      <point x="513" y="491" type="line"/>
    </contour>
    <contour>
      <point x="871" y="0" type="line"/>
      <point x="1075" y="0" type="line"/>
      <point x="1181" y="601" type="line"/>
      <point x="977" y="601" type="line"/>
    </contour>
    <contour>
      <point x="232" y="39" type="curve" smooth="yes"/>
      <point x="348" y="39"/>
      <point x="453" y="104"/>
      <point x="476" y="237" type="curve" smooth="yes"/>
      <point x="491" y="327"/>
      <point x="450" y="383"/>
      <point x="426" y="408" type="curve"/>
      <point x="374" y="322" type="line"/>
      <point x="687" y="322" type="line"/>
      <point x="716" y="491" type="line"/>
      <point x="310" y="491" type="line" smooth="yes"/>
      <point x="171" y="491"/>
      <point x="50" y="430"/>
      <point x="22" y="278" type="curve" smooth="yes"/>
      <point x="-2" y="140"/>
      <point x="94" y="39"/>
    </contour>
    <contour>
      <point x="254" y="210" type="curve" smooth="yes"/>
      <point x="220" y="210"/>
      <point x="200" y="233"/>
      <point x="206" y="266" type="curve" smooth="yes"/>
      <point x="211" y="298"/>
      <point x="240" y="322"/>
      <point x="274" y="322" type="curve" smooth="yes"/>
      <point x="307" y="322"/>
      <point x="325" y="298"/>
      <point x="320" y="266" type="curve" smooth="yes"/>
      <point x="314" y="233"/>
      <point x="287" y="210"/>
    </contour>
    <contour>
      <point x="24" y="571" type="line"/>
      <point x="731" y="571" type="line"/>
      <point x="761" y="740" type="line"/>
      <point x="54" y="740" type="line"/>
    </contour>
  </outline>
</glyph>
<glyph name="dvN_DH_YA" format="2">
  <advance width="1727"/>
  <outline>
    <contour>
      <point x="230" y="39" type="curve" smooth="yes"/>
      <point x="346" y="39"/>
      <point x="452" y="98"/>
      <point x="475" y="225" type="curve" smooth="yes"/>
      <point x="492" y="314"/>
      <point x="450" y="368"/>
      <point x="422" y="394" type="curve"/>
      <point x="374" y="322" type="line"/>
      <point x="423" y="322" type="line" smooth="yes"/>
      <point x="526" y="322"/>
      <point x="553" y="210"/>
      <point x="564" y="179" type="curve"/>
      <point x="676" y="289" type="line"/>
      <point x="651" y="416"/>
      <point x="547" y="491"/>
      <point x="354" y="491" type="curve" smooth="yes"/>
      <point x="313" y="491" type="line" smooth="yes"/>
      <point x="178" y="491"/>
      <point x="49" y="434"/>
      <point x="23" y="279" type="curve" smooth="yes"/>
      <point x="-2" y="134"/>
      <point x="100" y="39"/>
    </contour>
    <contour>
      <point x="254" y="210" type="curve" smooth="yes"/>
      <point x="220" y="210"/>
      <point x="200" y="233"/>
      <point x="206" y="266" type="curve" smooth="yes"/>
      <point x="212" y="298"/>
      <point x="240" y="322"/>
      <point x="274" y="322" type="curve" smooth="yes"/>
      <point x="307" y="322"/>
      <point x="326" y="298"/>
      <point x="320" y="266" type="curve" smooth="yes"/>
      <point x="314" y="233"/>
      <point x="287" y="210"/>
    </contour>
    <contour>
      <point x="24" y="571" type="line"/>
      <point x="721" y="571" type="line"/>
      <point x="789" y="740" type="line"/>
      <point x="53" y="740" type="line"/>
    </contour>
    <component base="dvDH_YA" xOffset="518"/>
  </outline>
</glyph>
<glyph name="dvN_M_YA" format="2">
  <advance width="1858"/>
  <outline>
    <contour>
      <point x="232" y="0" type="curve" smooth="yes"/>
      <point x="348" y="0"/>
      <point x="452" y="65"/>
      <point x="476" y="198" type="curve" smooth="yes"/>
      <point x="492" y="288"/>
      <point x="450" y="344"/>
      <point x="426" y="369" type="curve"/>
      <point x="374" y="283" type="line"/>
      <point x="687" y="283" type="line"/>
      <point x="924" y="452" type="line"/>
      <point x="310" y="452" type="line" smooth="yes"/>
      <point x="171" y="452"/>
      <point x="50" y="391"/>
      <point x="22" y="239" type="curve" smooth="yes"/>
      <point x="-3" y="101"/>
      <point x="94" y="0"/>
    </contour>
    <contour>
      <point x="254" y="171" type="curve" smooth="yes"/>
      <point x="220" y="171"/>
      <point x="200" y="194"/>
      <point x="206" y="227" type="curve" smooth="yes"/>
      <point x="212" y="259"/>
      <point x="240" y="283"/>
      <point x="274" y="283" type="curve" smooth="yes"/>
      <point x="307" y="283"/>
      <point x="325" y="259"/>
      <point x="320" y="227" type="curve" smooth="yes"/>
      <point x="315" y="194"/>
      <point x="287" y="171"/>
    </contour>
    <contour>
      <point x="24" y="571" type="line"/>
      <point x="780" y="571" type="line"/>
      <point x="849" y="740" type="line"/>
      <point x="53" y="740" type="line"/>
    </contour>
    <component base="dvM_YA" xOffset="535"/>
  </outline>
</glyph>
<glyph name="dvN_PA" format="2">
  <advance width="1195"/>
  <outline>
    <contour>
      <point x="232" y="39" type="curve" smooth="yes"/>
      <point x="348" y="39"/>
      <point x="453" y="104"/>
      <point x="476" y="237" type="curve" smooth="yes"/>
      <point x="491" y="327"/>
      <point x="450" y="383"/>
      <point x="426" y="408" type="curve"/>
      <point x="374" y="322" type="line"/>
      <point x="687" y="322" type="line"/>
      <point x="716" y="491" type="line"/>
      <point x="310" y="491" type="line" smooth="yes"/>
      <point x="171" y="491"/>
      <point x="50" y="430"/>
      <point x="22" y="278" type="curve" smooth="yes"/>
      <point x="-2" y="140"/>
      <point x="94" y="39"/>
    </contour>
    <contour>
      <point x="254" y="210" type="curve" smooth="yes"/>
      <point x="220" y="210"/>
      <point x="200" y="233"/>
      <point x="206" y="266" type="curve" smooth="yes"/>
      <point x="211" y="298"/>
      <point x="240" y="322"/>
      <point x="274" y="322" type="curve" smooth="yes"/>
      <point x="307" y="322"/>
      <point x="325" y="298"/>
      <point x="320" y="266" type="curve" smooth="yes"/>
      <point x="314" y="233"/>
      <point x="287" y="210"/>
    </contour>
    <contour>
      <point x="24" y="571" type="line"/>
      <point x="731" y="571" type="line"/>
      <point x="761" y="740" type="line"/>
      <point x="54" y="740" type="line"/>
    </contour>
    <component base="dvPA" xOffset="504"/>
  </outline>
</glyph>
<glyph name="dvN_R" format="2">
  <advance width="517"/>
  <outline>
    <contour>
      <point x="232" y="39" type="curve" smooth="yes"/>
      <point x="340" y="39"/>
      <point x="452" y="104"/>
      <point x="476" y="237" type="curve" smooth="yes"/>
      <point x="492" y="327"/>
      <point x="454" y="377"/>
      <point x="426" y="408" type="curve"/>
      <point x="374" y="322" type="line"/>
      <point x="688" y="322" type="line"/>
      <point x="717" y="491" type="line"/>
      <point x="310" y="491" type="line" smooth="yes"/>
      <point x="171" y="491"/>
      <point x="50" y="430"/>
      <point x="22" y="278" type="curve" smooth="yes"/>
      <point x="-3" y="140"/>
      <point x="94" y="39"/>
    </contour>
    <contour>
      <point x="254" y="210" type="curve" smooth="yes"/>
      <point x="220" y="210"/>
      <point x="200" y="233"/>
      <point x="206" y="266" type="curve" smooth="yes"/>
      <point x="212" y="298"/>
      <point x="240" y="322"/>
      <point x="274" y="322" type="curve" smooth="yes"/>
      <point x="307" y="322"/>
      <point x="325" y="298"/>
      <point x="320" y="266" type="curve" smooth="yes"/>
      <point x="315" y="233"/>
      <point x="287" y="210"/>
    </contour>
    <contour>
      <point x="228" y="-98" type="line"/>
      <point x="448" y="-98" type="line"/>
      <point x="652" y="116" type="line"/>
      <point x="688" y="322" type="line"/>
    </contour>
    <contour>
      <point x="24" y="571" type="line"/>
      <point x="732" y="571" type="line"/>
      <point x="762" y="740" type="line"/>
      <point x="54" y="740" type="line"/>
    </contour>
  </outline>
</glyph>
<glyph name="dvN_S_TTA" format="2">
  <advance width="1680"/>
  <anchor x="1608" y="740" name="abvm.e"/>
  <anchor x="1408" y="-94" name="blwm.u"/>
  <anchor x="1411" y="5" name="blwm.virama"/>
  <outline>
    <contour>
      <point x="230" y="39" type="curve" smooth="yes"/>
      <point x="348" y="39"/>
      <point x="454" y="105"/>
      <point x="475" y="235" type="curve" smooth="yes"/>
      <point x="490" y="325"/>
      <point x="454" y="377"/>
      <point x="426" y="408" type="curve"/>
      <point x="374" y="322" type="line"/>
      <point x="474" y="322" type="line" smooth="yes"/>
      <point x="540" y="322"/>
      <point x="559" y="288"/>
      <point x="553" y="251" type="curve"/>
      <point x="727" y="251" type="line"/>
      <point x="759" y="433"/>
      <point x="628" y="491"/>
      <point x="471" y="491" type="curve" smooth="yes"/>
      <point x="315" y="491" type="line" smooth="yes"/>
      <point x="180" y="491"/>
      <point x="51" y="437"/>
      <point x="23" y="281" type="curve" smooth="yes"/>
      <point x="-4" y="124"/>
      <point x="109" y="39"/>
    </contour>
    <contour>
      <point x="255" y="210" type="curve" smooth="yes"/>
      <point x="221" y="210"/>
      <point x="201" y="233"/>
      <point x="206" y="266" type="curve" smooth="yes"/>
      <point x="212" y="298"/>
      <point x="240" y="322"/>
      <point x="274" y="322" type="curve" smooth="yes"/>
      <point x="307" y="322"/>
      <point x="326" y="298"/>
      <point x="320" y="266" type="curve" smooth="yes"/>
      <point x="315" y="233"/>
      <point x="288" y="210"/>
    </contour>
    <contour>
      <point x="25" y="571" type="line"/>
      <point x="891" y="571" type="line"/>
      <point x="921" y="740" type="line"/>
      <point x="55" y="740" type="line"/>
    </contour>
    <component base="dvS_TTA" xOffset="523"/>
  </outline>
</glyph>
<glyph name="dvPH" format="2">
  <advance width="676"/>
  <outline>
    <contour>
      <point x="250" y="136" type="curve" smooth="yes"/>
      <point x="368" y="136"/>
      <point x="436" y="218"/>
      <point x="460" y="327" type="curve"/>
      <point x="410" y="393" type="line"/>
      <point x="403" y="346"/>
      <point x="376" y="307"/>
      <point x="326" y="307" type="curve" smooth="yes"/>
      <point x="273" y="307"/>
      <point x="255" y="344"/>
      <point x="265" y="390" type="curve" smooth="yes"/>
      <point x="300" y="592" type="line"/>
      <point x="96" y="592" type="line"/>
      <point x="61" y="390" type="line" smooth="yes"/>
      <point x="33" y="248"/>
      <point x="105" y="136"/>
    </contour>
    <contour>
      <point x="341" y="0" type="line"/>
      <point x="545" y="0" type="line"/>
      <point x="647" y="582" type="line"/>
      <point x="443" y="582" type="line"/>
    </contour>
    <contour>
      <point x="721" y="278" type="curve"/>
      <point x="928" y="278" type="line"/>
      <point x="951" y="410"/>
      <point x="901" y="513"/>
      <point x="771" y="513" type="curve" smooth="yes"/>
      <point x="663" y="513"/>
      <point x="584" y="449"/>
      <point x="567" y="353" type="curve"/>
      <point x="588" y="246" type="line"/>
      <point x="599" y="307"/>
      <point x="630" y="340"/>
      <point x="674" y="340" type="curve" smooth="yes"/>
      <point x="715" y="340"/>
      <point x="726" y="309"/>
    </contour>
    <contour>
      <point x="24" y="571" type="line"/>
      <point x="979" y="571" type="line"/>
      <point x="1009" y="740" type="line"/>
      <point x="54" y="740" type="line"/>
    </contour>
  </outline>
</glyph>
<glyph name="dvPH_JA" format="2">
  <advance width="1558"/>
  <outline>
    <contour>
      <point x="250" y="136" type="curve" smooth="yes"/>
      <point x="367" y="136"/>
      <point x="436" y="218"/>
      <point x="460" y="327" type="curve"/>
      <point x="410" y="390" type="line"/>
      <point x="402" y="345"/>
      <point x="375" y="307"/>
      <point x="325" y="307" type="curve" smooth="yes"/>
      <point x="274" y="307"/>
      <point x="255" y="344"/>
      <point x="265" y="390" type="curve" smooth="yes"/>
      <point x="300" y="592" type="line"/>
      <point x="96" y="592" type="line"/>
      <point x="61" y="390" type="line" smooth="yes"/>
      <point x="33" y="248"/>
      <point x="105" y="136"/>
    </contour>
    <contour>
      <point x="341" y="0" type="line"/>
      <point x="545" y="0" type="line"/>
      <point x="647" y="582" type="line"/>
      <point x="443" y="582" type="line"/>
    </contour>
    <contour>
      <point x="590" y="257" type="line"/>
      <point x="600" y="309"/>
      <point x="627" y="340"/>
      <point x="668" y="340" type="curve" smooth="yes"/>
      <point x="709" y="340"/>
      <point x="720" y="311"/>
      <point x="716" y="283" type="curve"/>
      <point x="921" y="331" type="line"/>
      <point x="936" y="415"/>
      <point x="897" y="513"/>
      <point x="765" y="513" type="curve" smooth="yes"/>
      <point x="664" y="513"/>
      <point x="588" y="449"/>
      <point x="571" y="353" type="curve"/>
    </contour>
    <contour>
      <point x="24" y="571" type="line"/>
      <point x="979" y="571" type="line"/>
      <point x="1009" y="740" type="line"/>
      <point x="54" y="740" type="line"/>
    </contour>
    <contour>
      <point x="930" y="80" type="curve" smooth="yes"/>
      <point x="1082" y="80"/>
      <point x="1187" y="177"/>
      <point x="1213" y="322" type="curve" smooth="yes"/>
      <point x="1242" y="481" type="line"/>
      <point x="1042" y="481" type="line"/>
      <point x="1014" y="325" type="line" smooth="yes"/>
      <point x="1006" y="281"/>
      <point x="988" y="258"/>
      <point x="957" y="258" type="curve" smooth="yes"/>
      <point x="926" y="258"/>
      <point x="912" y="281"/>
      <point x="920" y="325" type="curve" smooth="yes"/>
      <point x="921" y="331" type="line"/>
      <point x="719" y="307" type="line"/>
      <point x="716" y="283" type="line" smooth="yes"/>
      <point x="703" y="176"/>
      <point x="779" y="80"/>
    </contour>
    <contour>
      <point x="1225" y="0" type="line"/>
      <point x="1429" y="0" type="line"/>
      <point x="1537" y="616" type="line"/>
      <point x="1333" y="616" type="line"/>
    </contour>
    <contour>
      <point x="1106" y="308" type="line"/>
      <point x="1294" y="308" type="line"/>
      <point x="1325" y="481" type="line"/>
      <point x="1137" y="481" type="line"/>
    </contour>
    <contour>
      <point x="710" y="571" type="line"/>
      <point x="1604" y="571" type="line"/>
      <point x="1634" y="740" type="line"/>
      <point x="740" y="740" type="line"/>
    </contour>
  </outline>
</glyph>
<glyph name="dvPH_RA" format="2">
  <advance width="984"/>
  <anchor x="672" y="740" name="abvm.e"/>
  <anchor x="545" y="0" name="blwm.u"/>
  <anchor x="545" y="0" name="blwm.virama"/>
  <outline>
    <contour>
      <point x="-21" y="-35" type="line"/>
      <point x="197" y="-35" type="line"/>
      <point x="404" y="214" type="line"/>
      <point x="200" y="202" type="line"/>
    </contour>
    <contour>
      <point x="248" y="147" type="curve" smooth="yes"/>
      <point x="367" y="147"/>
      <point x="436" y="225"/>
      <point x="460" y="327" type="curve"/>
      <point x="410" y="393" type="line"/>
      <point x="403" y="346"/>
      <point x="376" y="307"/>
      <point x="326" y="307" type="curve" smooth="yes"/>
      <point x="273" y="307"/>
      <point x="255" y="344"/>
      <point x="265" y="390" type="curve" smooth="yes"/>
      <point x="300" y="592" type="line"/>
      <point x="96" y="592" type="line"/>
      <point x="61" y="390" type="line" smooth="yes"/>
      <point x="33" y="255"/>
      <point x="105" y="147"/>
    </contour>
    <contour>
      <point x="341" y="0" type="line"/>
      <point x="545" y="0" type="line"/>
      <point x="647" y="582" type="line"/>
      <point x="443" y="582" type="line"/>
    </contour>
    <contour>
      <point x="684" y="56" type="curve" smooth="yes"/>
      <point x="804" y="56"/>
      <point x="904" y="141"/>
      <point x="930" y="288" type="curve" smooth="yes"/>
      <point x="951" y="409"/>
      <point x="901" y="513"/>
      <point x="771" y="513" type="curve" smooth="yes"/>
      <point x="663" y="513"/>
      <point x="584" y="449"/>
      <point x="567" y="353" type="curve"/>
      <point x="588" y="246" type="line"/>
      <point x="599" y="307"/>
      <point x="630" y="340"/>
      <point x="674" y="340" type="curve" smooth="yes"/>
      <point x="715" y="340"/>
      <point x="726" y="309"/>
      <point x="721" y="278" type="curve" smooth="yes"/>
      <point x="715" y="247"/>
      <point x="693" y="220"/>
      <point x="657" y="220" type="curve" smooth="yes"/>
      <point x="650" y="220"/>
      <point x="642" y="221"/>
      <point x="634" y="223" type="curve"/>
      <point x="607" y="68" type="line"/>
      <point x="632" y="59"/>
      <point x="658" y="56"/>
    </contour>
    <contour>
      <point x="24" y="571" type="line"/>
      <point x="1030" y="571" type="line"/>
      <point x="1060" y="740" type="line"/>
      <point x="54" y="740" type="line"/>
    </contour>
  </outline>
</glyph>
<glyph name="dvPH_SHA" format="2">
  <advance width="1566"/>
  <outline>
    <contour>
      <point x="936" y="-6" type="curve" smooth="yes"/>
      <point x="1097" y="-6"/>
      <point x="1186" y="82"/>
      <point x="1204" y="233" type="curve"/>
      <point x="1006" y="233" type="line"/>
      <point x="998" y="192"/>
      <point x="985" y="168"/>
      <point x="952" y="168" type="curve" smooth="yes"/>
      <point x="914" y="168"/>
      <point x="911" y="196"/>
      <point x="916" y="222" type="curve" smooth="yes"/>
      <point x="941" y="364" type="line"/>
      <point x="855" y="267" type="line"/>
      <point x="931" y="267" type="line" smooth="yes"/>
      <point x="1089" y="267"/>
      <point x="1233" y="341"/>
      <point x="1264" y="517" type="curve" smooth="yes"/>
      <point x="1291" y="667"/>
      <point x="1190" y="749"/>
      <point x="1055" y="749" type="curve" smooth="yes"/>
      <point x="927" y="749"/>
      <point x="829" y="687"/>
      <point x="793" y="571" type="curve"/>
      <point x="1016" y="571" type="line"/>
      <point x="1021" y="573"/>
      <point x="1026" y="573"/>
      <point x="1032" y="573" type="curve" smooth="yes"/>
      <point x="1054" y="573"/>
      <point x="1063" y="553"/>
      <point x="1059" y="530" type="curve" smooth="yes"/>
      <point x="1045" y="451"/>
      <point x="960" y="437"/>
      <point x="883" y="437" type="curve" smooth="yes"/>
      <point x="748" y="437" type="line"/>
      <point x="712" y="234" type="line" smooth="yes"/>
      <point x="685" y="86"/>
      <point x="778" y="-6"/>
    </contour>
    <contour>
      <point x="250" y="136" type="curve" smooth="yes"/>
      <point x="368" y="136"/>
      <point x="436" y="218"/>
      <point x="460" y="327" type="curve"/>
      <point x="410" y="393" type="line"/>
      <point x="403" y="346"/>
      <point x="376" y="307"/>
      <point x="326" y="307" type="curve" smooth="yes"/>
      <point x="273" y="307"/>
      <point x="255" y="344"/>
      <point x="265" y="390" type="curve" smooth="yes"/>
      <point x="300" y="592" type="line"/>
      <point x="96" y="592" type="line"/>
      <point x="61" y="390" type="line" smooth="yes"/>
      <point x="33" y="248"/>
      <point x="105" y="136"/>
    </contour>
    <contour>
      <point x="341" y="0" type="line"/>
      <point x="545" y="0" type="line"/>
      <point x="647" y="582" type="line"/>
      <point x="443" y="582" type="line"/>
    </contour>
    <contour>
      <point x="584" y="226" type="line"/>
      <point x="595" y="288"/>
      <point x="626" y="320"/>
      <point x="670" y="320" type="curve" smooth="yes"/>
      <point x="711" y="320"/>
      <point x="721" y="289"/>
      <point x="716" y="259" type="curve"/>
      <point x="895" y="259" type="line"/>
      <point x="917" y="384"/>
      <point x="870" y="484"/>
      <point x="746" y="484" type="curve" smooth="yes"/>
      <point x="650" y="484"/>
      <point x="579" y="424"/>
      <point x="563" y="334" type="curve"/>
    </contour>
    <contour>
      <point x="24" y="571" type="line"/>
      <point x="979" y="571" type="line"/>
      <point x="1009" y="740" type="line"/>
      <point x="54" y="740" type="line"/>
    </contour>
    <contour>
      <point x="1228" y="0" type="line"/>
      <point x="1435" y="0" type="line"/>
      <point x="1536" y="571" type="line"/>
      <point x="1612" y="571" type="line"/>
      <point x="1642" y="740" type="line"/>
      <point x="1359" y="740" type="line"/>
    </contour>
  </outline>
</glyph>
<glyph name="dvPHx_RA" format="2">
  <advance width="1085"/>
  <anchor x="773" y="740" name="abvm.e"/>
  <anchor x="646" y="0" name="blwm.u"/>
  <anchor x="646" y="0" name="blwm.virama"/>
  <outline>
    <contour>
      <point x="80" y="-35" type="line"/>
      <point x="298" y="-35" type="line"/>
      <point x="505" y="214" type="line"/>
      <point x="301" y="202" type="line"/>
    </contour>
    <contour>
      <point x="349" y="147" type="curve" smooth="yes"/>
      <point x="468" y="147"/>
      <point x="537" y="225"/>
      <point x="561" y="327" type="curve"/>
      <point x="511" y="393" type="line"/>
      <point x="504" y="346"/>
      <point x="477" y="307"/>
      <point x="427" y="307" type="curve" smooth="yes"/>
      <point x="374" y="307"/>
      <point x="356" y="344"/>
      <point x="366" y="390" type="curve" smooth="yes"/>
      <point x="401" y="592" type="line"/>
      <point x="197" y="592" type="line"/>
      <point x="162" y="390" type="line" smooth="yes"/>
      <point x="134" y="255"/>
      <point x="206" y="147"/>
    </contour>
    <contour>
      <point x="442" y="0" type="line"/>
      <point x="646" y="0" type="line"/>
      <point x="748" y="582" type="line"/>
      <point x="544" y="582" type="line"/>
    </contour>
    <contour>
      <point x="785" y="56" type="curve" smooth="yes"/>
      <point x="905" y="56"/>
      <point x="1005" y="141"/>
      <point x="1031" y="288" type="curve" smooth="yes"/>
      <point x="1052" y="409"/>
      <point x="1002" y="513"/>
      <point x="872" y="513" type="curve" smooth="yes"/>
      <point x="764" y="513"/>
      <point x="685" y="449"/>
      <point x="668" y="353" type="curve"/>
      <point x="689" y="246" type="line"/>
      <point x="700" y="307"/>
      <point x="731" y="340"/>
      <point x="775" y="340" type="curve" smooth="yes"/>
      <point x="816" y="340"/>
      <point x="827" y="309"/>
      <point x="822" y="278" type="curve" smooth="yes"/>
      <point x="816" y="247"/>
      <point x="794" y="220"/>
      <point x="758" y="220" type="curve" smooth="yes"/>
      <point x="751" y="220"/>
      <point x="743" y="221"/>
      <point x="735" y="223" type="curve"/>
      <point x="708" y="68" type="line"/>
      <point x="733" y="59"/>
      <point x="759" y="56"/>
    </contour>
    <contour>
      <point x="27" y="571" type="line"/>
      <point x="1131" y="571" type="line"/>
      <point x="1161" y="740" type="line"/>
      <point x="57" y="740" type="line"/>
    </contour>
    <component base="dvNukta" xScale="0.8227" yScale="0.8227" xOffset="244" yOffset="307"/>
  </outline>
</glyph>
<glyph name="dvPHx_SA" format="2">
  <advance width="1521"/>
  <outline>
    <contour>
      <point x="250" y="136" type="curve" smooth="yes"/>
      <point x="368" y="136"/>
      <point x="436" y="218"/>
      <point x="460" y="327" type="curve"/>
      <point x="410" y="393" type="line"/>
      <point x="403" y="346"/>
      <point x="376" y="307"/>
      <point x="326" y="307" type="curve" smooth="yes"/>
      <point x="273" y="307"/>
      <point x="255" y="344"/>
      <point x="265" y="390" type="curve" smooth="yes"/>
      <point x="300" y="592" type="line"/>
      <point x="96" y="592" type="line"/>
      <point x="61" y="390" type="line" smooth="yes"/>
      <point x="33" y="248"/>
      <point x="105" y="136"/>
    </contour>
    <contour>
      <point x="341" y="0" type="line"/>
      <point x="545" y="0" type="line"/>
      <point x="647" y="582" type="line"/>
      <point x="443" y="582" type="line"/>
    </contour>
    <contour>
      <point x="588" y="245" type="line"/>
      <point x="599" y="307"/>
      <point x="627" y="340"/>
      <point x="671" y="340" type="curve" smooth="yes"/>
      <point x="717" y="340"/>
      <point x="726" y="306"/>
      <point x="717" y="257" type="curve"/>
      <point x="909" y="267" type="line"/>
      <point x="931" y="402"/>
      <point x="886" y="502"/>
      <point x="764" y="502" type="curve" smooth="yes"/>
      <point x="660" y="502"/>
      <point x="584" y="443"/>
      <point x="567" y="353" type="curve"/>
    </contour>
    <contour>
      <point x="24" y="571" type="line"/>
      <point x="979" y="571" type="line"/>
      <point x="1009" y="740" type="line"/>
      <point x="54" y="740" type="line"/>
    </contour>
    <component base="dvSA" xOffset="686"/>
    <component base="dvNukta" xOffset="373" yOffset="208"/>
  </outline>
</glyph>
<glyph name="dvP_LA" format="2">
  <advance width="1266"/>
  <anchor x="1183" y="740" name="abvm.e"/>
  <anchor x="1039" y="-89" name="blwm.u"/>
  <anchor x="1037" y="5" name="blwm.virama"/>
  <outline>
    <contour>
      <point x="544" y="398" type="curve"/>
      <point x="397" y="359" type="line"/>
      <point x="383" y="330"/>
      <point x="358" y="307"/>
      <point x="326" y="307" type="curve" smooth="yes"/>
      <point x="271" y="307"/>
      <point x="257" y="349"/>
      <point x="266" y="401" type="curve" smooth="yes"/>
      <point x="300" y="592" type="line"/>
      <point x="96" y="592" type="line"/>
      <point x="62" y="401" type="line" smooth="yes"/>
      <point x="34" y="253"/>
      <point x="115" y="136"/>
      <point x="281" y="136" type="curve" smooth="yes"/>
      <point x="431" y="136"/>
      <point x="519" y="249"/>
    </contour>
    <contour>
      <point x="24" y="571" type="line"/>
      <point x="624" y="571" type="line"/>
      <point x="654" y="740" type="line"/>
      <point x="54" y="740" type="line"/>
    </contour>
    <component base="dvLA" xOffset="346"/>
  </outline>
</glyph>
<glyph name="dvP_PA" format="2">
  <advance width="1056"/>
  <outline>
    <contour>
      <point x="281" y="136" type="curve" smooth="yes"/>
      <point x="431" y="136"/>
      <point x="519" y="249"/>
      <point x="544" y="398" type="curve"/>
      <point x="427" y="401" type="line"/>
      <point x="418" y="349"/>
      <point x="385" y="307"/>
      <point x="330" y="307" type="curve" smooth="yes"/>
      <point x="273" y="307"/>
      <point x="257" y="349"/>
      <point x="266" y="401" type="curve" smooth="yes"/>
      <point x="300" y="592" type="line"/>
      <point x="96" y="592" type="line"/>
      <point x="62" y="401" type="line" smooth="yes"/>
      <point x="34" y="253"/>
      <point x="115" y="136"/>
    </contour>
    <contour>
      <point x="24" y="571" type="line"/>
      <point x="737" y="571" type="line"/>
      <point x="767" y="740" type="line"/>
      <point x="54" y="740" type="line"/>
    </contour>
    <component base="dvPA" xOffset="365"/>
  </outline>
</glyph>
<glyph name="dvP_RA" format="2">
  <advance width="691"/>
  <outline>
    <contour>
      <point x="-20" y="-35" type="line"/>
      <point x="198" y="-35" type="line"/>
      <point x="408" y="204" type="line"/>
      <point x="205" y="193" type="line"/>
    </contour>
    <contour>
      <point x="247" y="146" type="curve" smooth="yes"/>
      <point x="379" y="146"/>
      <point x="451" y="224"/>
      <point x="477" y="327" type="curve"/>
      <point x="427" y="398" type="line"/>
      <point x="418" y="348"/>
      <point x="385" y="307"/>
      <point x="329" y="307" type="curve" smooth="yes"/>
      <point x="274" y="307"/>
      <point x="258" y="349"/>
      <point x="267" y="401" type="curve" smooth="yes"/>
      <point x="301" y="596" type="line"/>
      <point x="97" y="596" type="line"/>
      <point x="63" y="401" type="line" smooth="yes"/>
      <point x="38" y="259"/>
      <point x="96" y="146"/>
    </contour>
    <contour>
      <point x="357" y="0" type="line"/>
      <point x="561" y="0" type="line"/>
      <point x="664" y="587" type="line"/>
      <point x="460" y="587" type="line"/>
    </contour>
    <contour>
      <point x="25" y="571" type="line"/>
      <point x="738" y="571" type="line"/>
      <point x="767" y="740" type="line"/>
      <point x="54" y="740" type="line"/>
    </contour>
  </outline>
</glyph>
<glyph name="dvP_YA" format="2">
  <advance width="1129"/>
  <outline>
    <contour>
      <point x="281" y="136" type="curve" smooth="yes"/>
      <point x="431" y="136"/>
      <point x="516" y="249"/>
      <point x="541" y="398" type="curve"/>
      <point x="417" y="407" type="line"/>
      <point x="401" y="353"/>
      <point x="378" y="307"/>
      <point x="330" y="307" type="curve" smooth="yes"/>
      <point x="273" y="307"/>
      <point x="257" y="349"/>
      <point x="266" y="401" type="curve" smooth="yes"/>
      <point x="300" y="592" type="line"/>
      <point x="96" y="592" type="line"/>
      <point x="62" y="401" type="line" smooth="yes"/>
      <point x="34" y="253"/>
      <point x="115" y="136"/>
    </contour>
    <contour>
      <point x="24" y="571" type="line"/>
      <point x="624" y="571" type="line"/>
      <point x="654" y="740" type="line"/>
      <point x="54" y="740" type="line"/>
    </contour>
    <component base="dvYA" xOffset="360"/>
  </outline>
</glyph>
<glyph name="dvReph_Anusvara" format="2">
  <anchor x="-10" y="740" name="_abvm.e"/>
  <outline>
    <contour>
      <point x="-197" y="732" type="line"/>
      <point x="-11" y="732" type="line"/>
      <point x="3" y="813" type="line" smooth="yes"/>
      <point x="12" y="865"/>
      <point x="50" y="903"/>
      <point x="101" y="903" type="curve" smooth="yes"/>
      <point x="152" y="903"/>
      <point x="170" y="871"/>
      <point x="168" y="842" type="curve"/>
      <point x="322" y="842" type="line"/>
      <point x="358" y="959"/>
      <point x="281" y="1059"/>
      <point x="124" y="1059" type="curve" smooth="yes"/>
      <point x="-31" y="1059"/>
      <point x="-154" y="966"/>
      <point x="-182" y="813" type="curve" smooth="yes"/>
    </contour>
    <contour>
      <point x="79" y="772" type="curve" smooth="yes"/>
      <point x="107" y="772"/>
      <point x="133" y="794"/>
      <point x="138" y="821" type="curve" smooth="yes"/>
      <point x="143" y="849"/>
      <point x="125" y="871"/>
      <point x="96" y="871" type="curve" smooth="yes"/>
      <point x="69" y="871"/>
      <point x="43" y="849"/>
      <point x="38" y="821" type="curve" smooth="yes"/>
      <point x="33" y="794"/>
      <point x="51" y="772"/>
    </contour>
  </outline>
</glyph>
<glyph name="dvSH_LA" format="2">
  <advance width="1469"/>
  <anchor x="1385" y="740" name="abvm.e"/>
  <anchor x="1241" y="-89" name="blwm.u"/>
  <anchor x="1240" y="5" name="blwm.virama"/>
  <outline>
    <contour>
      <point x="1016" y="418" type="curve"/>
      <point x="1013" y="418" type="line"/>
      <point x="992" y="472"/>
      <point x="939" y="512"/>
      <point x="850" y="512" type="curve" smooth="yes"/>
      <point x="734" y="512"/>
      <point x="604" y="449"/>
      <point x="574" y="273" type="curve" smooth="yes"/>
      <point x="546" y="122"/>
      <point x="626" y="5"/>
      <point x="803" y="5" type="curve" smooth="yes"/>
      <point x="810" y="5"/>
      <point x="819" y="5"/>
      <point x="833" y="6" type="curve"/>
      <point x="865" y="183" type="line"/>
      <point x="857" y="182"/>
      <point x="850" y="181"/>
      <point x="843" y="181" type="curve" smooth="yes"/>
      <point x="795" y="181"/>
      <point x="769" y="209"/>
      <point x="778" y="261" type="curve" smooth="yes"/>
      <point x="786" y="305"/>
      <point x="814" y="333"/>
      <point x="855" y="333" type="curve" smooth="yes"/>
      <point x="904" y="333"/>
      <point x="911" y="291"/>
      <point x="904" y="256" type="curve" smooth="yes"/>
      <point x="899" y="227" type="line"/>
      <point x="1067" y="227" type="line"/>
      <point x="1072" y="256" type="line" smooth="yes"/>
      <point x="1079" y="291"/>
      <point x="1100" y="333"/>
      <point x="1149" y="333" type="curve" smooth="yes"/>
      <point x="1188" y="333"/>
      <point x="1208" y="305"/>
      <point x="1200" y="261" type="curve" smooth="yes"/>
      <point x="1191" y="207"/>
      <point x="1152" y="181"/>
      <point x="1112" y="181" type="curve" smooth="yes"/>
      <point x="1104" y="181"/>
      <point x="1092" y="182"/>
      <point x="1087" y="183" type="curve"/>
      <point x="1055" y="7" type="line"/>
      <point x="1065" y="6"/>
      <point x="1083" y="5"/>
      <point x="1090" y="5" type="curve" smooth="yes"/>
      <point x="1264" y="0"/>
      <point x="1380" y="100"/>
      <point x="1407" y="251" type="curve" smooth="yes"/>
      <point x="1438" y="427"/>
      <point x="1330" y="512"/>
      <point x="1213" y="512" type="curve" smooth="yes"/>
      <point x="1121" y="512"/>
      <point x="1056" y="475"/>
    </contour>
    <contour>
      <point x="1135" y="455" type="line"/>
      <point x="1335" y="455" type="line"/>
      <point x="1355" y="571" type="line"/>
      <point x="1515" y="571" type="line"/>
      <point x="1545" y="740" type="line"/>
      <point x="656" y="740" type="line"/>
      <point x="626" y="571" type="line"/>
      <point x="1155" y="571" type="line"/>
    </contour>
    <component base="dvSH"/>
  </outline>
</glyph>
<glyph name="dvSH_RA" format="2">
  <advance width="897"/>
  <outline>
    <contour>
      <point x="605" y="123" type="line"/>
      <point x="640" y="300" type="line"/>
      <point x="347" y="454" type="line" smooth="yes"/>
      <point x="319" y="469"/>
      <point x="298" y="495"/>
      <point x="304" y="530" type="curve" smooth="yes"/>
      <point x="309" y="558"/>
      <point x="331" y="581"/>
      <point x="363" y="581" type="curve" smooth="yes"/>
      <point x="397" y="581"/>
      <point x="411" y="555"/>
      <point x="406" y="527" type="curve" smooth="yes"/>
      <point x="399" y="484"/>
      <point x="354" y="456"/>
      <point x="319" y="434" type="curve" smooth="yes"/>
      <point x="-27" y="197" type="line"/>
      <point x="-31" y="173" type="line"/>
      <point x="200" y="173" type="line"/>
      <point x="422" y="329" type="line" smooth="yes"/>
      <point x="540" y="411"/>
      <point x="579" y="464"/>
      <point x="594" y="549" type="curve" smooth="yes"/>
      <point x="613" y="660"/>
      <point x="528" y="749"/>
      <point x="389" y="749" type="curve" smooth="yes"/>
      <point x="243" y="749"/>
      <point x="139" y="674"/>
      <point x="118" y="550" type="curve" smooth="yes"/>
      <point x="97" y="431"/>
      <point x="176" y="350"/>
      <point x="299" y="285" type="curve" smooth="yes"/>
    </contour>
    <contour>
      <point x="113" y="-15" type="line"/>
      <point x="352" y="-15" type="line"/>
      <point x="703" y="277" type="line"/>
      <point x="510" y="304" type="line"/>
      <point x="116" y="3" type="line"/>
    </contour>
    <contour>
      <point x="566" y="0" type="line"/>
      <point x="766" y="0" type="line"/>
      <point x="867" y="571" type="line"/>
      <point x="943" y="571" type="line"/>
      <point x="973" y="740" type="line"/>
      <point x="697" y="740" type="line"/>
    </contour>
  </outline>
</glyph>
